0
SECTION
2
HEADER
9
$INSUNITS
70
4
0
ENDSEC
0
SECTION
2
TABLES
0
TABLE
2
LTYPE
0
LTYPE
72
65
70
64
2
CONTINUOUS
3
______
73
0
40
0
0
ENDTAB
0
TABLE
2
LAYER
0
ENDTAB
0
ENDSEC
0
SECTION
2
ENTITIES
0
LINE
8
0
10
82.1129769
20
-71.7612345
11
89.7826821
21
-159.426368
0
LINE
8
0
10
83.9310549
20
-69.5945337
11
117.6091744
21
-66.6480801
0
LINE
8
0
10
119.0830915
20
-65.7885379
11
126.4170504
21
-55.1180443
0
LINE
8
0
10
128.0652789
20
-54.2508915
11
143.2906802
21
-54.2508915
0
LINE
8
0
10
145.2685528
20
-52.5475725
11
145.5075572
21
-50.9542104
0
LINE
8
0
10
147.4854298
20
-49.2508914
11
165.9974905
21
-49.2508914
0
LINE
8
0
10
167.9820463
20
-51.002822
11
168.2940637
21
-53.4989608
0
LINE
8
0
10
170.2786195
20
-55.2508914
11
185.1271189
21
-55.2508914
0
LINE
8
0
10
186.9997465
20
-56.5485624
11
187.263155
21
-57.2508914
0
LINE
8
0
10
187.263155
20
-57.2508914
11
203.263055
21
-57.2508914
0
LINE
8
0
10
205.263055
20
-59.2508914
11
205.263055
21
-129.5008914
0
LINE
8
0
10
203.263055
20
-131.5008914
11
186.944106
21
-131.5008914
0
LINE
8
0
10
184.9739125
20
-133.1568894
11
182.8021975
21
-145.5948934
0
LINE
8
0
10
180.832004
20
-147.2508914
11
166.2786195
21
-147.2508914
0
LINE
8
0
10
164.2940637
20
-145.4989608
11
163.9820463
21
-143.002822
0
LINE
8
0
10
161.9974905
20
-141.2508914
11
151.4854298
21
-141.2508914
0
LINE
8
0
10
149.5075572
20
-142.9542104
11
149.2685528
21
-144.5475725
0
LINE
8
0
10
147.2906802
20
-146.2508915
11
132.9352368
21
-146.2508915
0
LINE
8
0
10
130.9368108
20
-148.1715607
11
130.6217771
21
-156.1075807
0
LINE
8
0
10
91.9493829
20
-161.244446
11
128.7976625
21
-158.0206393
0
ARC
8
0
10
84.1053663
20
-71.5869231
40
2
50
94.9999976
51
184.9999976
0
ARC
8
0
10
117.434863
20
-64.6556907
40
2
50
274.9999976
51
325.4987911
0
ARC
8
0
10
128.0652789
20
-56.2508915
40
2
50
90
51
145.4987911
0
ARC
8
0
10
143.2906802
20
-52.2508915
40
2
50
270
51
351.4692321
0
ARC
8
0
10
147.4854298
20
-51.2508914
40
2
50
90
51
171.4692321
0
ARC
8
0
10
165.9974905
20
-51.2508914
40
2
50
7.1250142
51
90
0
ARC
8
0
10
170.2786195
20
-53.2508914
40
2
50
187.1250142
51
270
0
ARC
8
0
10
185.1271189
20
-57.2508914
40
2
50
20.5585573
51
90
0
ARC
8
0
10
203.263055
20
-59.2508914
40
2
50
0
51
90
0
ARC
8
0
10
203.263055
20
-129.5008914
40
2
50
270
51
0
0
ARC
8
0
10
186.944106
20
-133.5008914
40
2
50
90
51
170.0958184
0
ARC
8
0
10
180.832004
20
-145.2508914
40
2
50
270
51
350.0958184
0
ARC
8
0
10
166.2786195
20
-145.2508914
40
2
50
187.1250142
51
270
0
ARC
8
0
10
161.9974905
20
-143.2508914
40
2
50
7.1250142
51
90
0
ARC
8
0
10
151.4854298
20
-143.2508914
40
2
50
90
51
171.4692321
0
ARC
8
0
10
147.2906802
20
-144.2508915
40
2
50
270
51
351.4692321
0
ARC
8
0
10
132.9352368
20
-148.2508915
40
2
50
90
51
177.7267436
0
ARC
8
0
10
128.6233511
20
-156.0282499
40
2
50
274.9999976
51
357.7267436
0
ARC
8
0
10
91.7750715
20
-159.2520566
40
2
50
184.9999976
51
274.9999976
0
ENDSEC
0
EOF