0
SECTION
2
HEADER
9
$INSUNITS
70
4
0
ENDSEC
0
SECTION
2
TABLES
0
TABLE
2
LTYPE
0
LTYPE
72
65
70
64
2
CONTINUOUS
3
______
73
0
40
0
0
ENDTAB
0
TABLE
2
LAYER
0
ENDTAB
0
ENDSEC
0
SECTION
2
ENTITIES
0
LINE
8
0
10
55.8175191
20
-68.2471698
11
38.1611735
21
-68.863743
0
LINE
8
0
10
36.2321908
20
-70.9323237
11
39.3033466
21
-158.8787164
0
LINE
8
0
10
41.3719273
20
-160.8076991
11
57.8005057
21
-160.2340005
0
LINE
8
0
10
58.8304809
20
-159.9056968
11
60.8386593
21
-158.5835945
0
LINE
8
0
10
61.9384335
20
-158.2540725
11
76.6888118
21
-158.2540725
0
LINE
8
0
10
77.8651552
20
-157.8715447
11
79.5632038
21
-156.6366003
0
LINE
8
0
10
80.7395472
20
-156.2540725
11
95.4388119
21
-156.2540725
0
LINE
8
0
10
96.6151553
20
-155.8715446
11
98.3126448
21
-154.6370068
0
LINE
8
0
10
99.4902381
20
-154.2544793
11
114.1921359
21
-154.263668
0
LINE
8
0
10
115.3633723
20
-154.6433974
11
117.0644273
21
-155.8743426
0
LINE
8
0
10
118.2369137
20
-156.2540724
11
131.1324548
21
-156.2540724
0
LINE
8
0
10
133.1228185
20
-158.4501648
11
132.3811031
21
-165.9786747
0
LINE
8
0
10
134.1992418
20
-168.1673379
11
152.7074461
21
-169.7670689
0
LINE
8
0
10
152.9983885
20
-169.8140098
11
168.692714
21
-173.550127
0
LINE
8
0
10
169.2295466
20
-173.7637061
11
186.2972266
21
-183.6177358
0
LINE
8
0
10
189.0292774
20
-182.885685
11
200.7792774
21
-162.534088
0
LINE
8
0
10
200.0472266
20
-159.8020372
11
191.0130805
21
-154.5861705
0
LINE
8
0
10
190.092516
20
-152.2960587
11
196.8824872
21
-128.9284016
0
LINE
8
0
10
195.4795607
20
-126.4384889
11
178.8409379
21
-121.9801833
0
LINE
8
0
10
177.3597019
20
-120.1154308
11
177.3391795
21
-119.5040724
0
LINE
8
0
10
177.3391795
20
-119.5040724
11
177.3391795
21
-68.2540724
0
LINE
8
0
10
175.3391795
20
-66.2540724
11
136.9895472
21
-66.2540724
0
LINE
8
0
10
135.8132038
20
-65.8715446
11
134.1151552
21
-64.6366002
0
LINE
8
0
10
132.9388118
20
-64.2540724
11
118.2395472
21
-64.2540724
0
LINE
8
0
10
117.0632038
20
-63.8715446
11
115.3651552
21
-62.6366002
0
LINE
8
0
10
114.1888118
20
-62.2540724
11
99.4895471
21
-62.2540724
0
LINE
8
0
10
98.3132037
20
-62.6366003
11
96.6151553
21
-63.8715446
0
LINE
8
0
10
95.4388119
20
-64.2540725
11
80.7395472
21
-64.2540725
0
LINE
8
0
10
79.5632038
20
-64.6366003
11
77.8651552
21
-65.8715447
0
LINE
8
0
10
76.6888118
20
-66.2540725
11
61.7080534
21
-66.2540725
0
LINE
8
0
10
60.9945762
20
-66.385664
11
56.4611974
21
-68.1167966
0
ARC
8
0
10
38.2309725
20
-70.8625247
40
2
50
92.0000002
51
182.0000002
0
ARC
8
0
10
41.3021283
20
-158.8089174
40
2
50
182.0000002
51
272.0000002
0
ARC
8
0
10
57.7307067
20
-158.2352188
40
2
50
272.0000002
51
303.3592677
0
ARC
8
0
10
61.9384335
20
-160.2540725
40
2
50
90
51
123.3592677
0
ARC
8
0
10
76.6888118
20
-156.2540725
40
2
50
270
51
306.027373
0
ARC
8
0
10
80.7395472
20
-158.2540725
40
2
50
90
51
126.027373
0
ARC
8
0
10
95.4388119
20
-154.2540725
40
2
50
270
51
306.027373
0
ARC
8
0
10
99.4889881
20
-156.2544789
40
2
50
89.9641901
51
126.027373
0
ARC
8
0
10
114.1908859
20
-156.2636676
40
2
50
54.1091343
51
89.9641901
0
ARC
8
0
10
118.2369137
20
-154.2540724
40
2
50
234.1091343
51
270
0
ARC
8
0
10
131.1324548
20
-158.2540724
40
2
50
354.3733271
51
90
0
ARC
8
0
10
134.3714668
20
-166.1747671
40
2
50
174.3733271
51
265.0599989
0
ARC
8
0
10
152.5352211
20
-171.7596397
40
2
50
76.6096715
51
85.0599989
0
ARC
8
0
10
168.2295466
20
-175.4957569
40
2
50
59.9999999
51
76.6096715
0
ARC
8
0
10
187.2972266
20
-181.885685
40
2
50
239.9999999
51
329.9999999
0
ARC
8
0
10
199.0472266
20
-161.534088
40
2
50
329.9999999
51
59.9999999
0
ARC
8
0
10
192.0130805
20
-152.8541197
40
2
50
163.7976489
51
239.9999999
0
ARC
8
0
10
194.9619227
20
-128.3703406
40
2
50
343.7976489
51
75.0000021
0
ARC
8
0
10
179.358576
20
-120.0483316
40
2
50
181.9226112
51
255.0000021
0
ARC
8
0
10
175.3391795
20
-68.2540724
40
2
50
0
51
90
0
ARC
8
0
10
136.9895472
20
-64.2540724
40
2
50
233.972627
51
270
0
ARC
8
0
10
132.9388118
20
-66.2540724
40
2
50
53.972627
51
90
0
ARC
8
0
10
118.2395472
20
-62.2540724
40
2
50
233.972627
51
270
0
ARC
8
0
10
114.1888118
20
-64.2540724
40
2
50
53.972627
51
90
0
ARC
8
0
10
99.4895471
20
-64.2540724
40
2
50
90
51
126.027373
0
ARC
8
0
10
95.4388119
20
-62.2540725
40
2
50
270
51
306.027373
0
ARC
8
0
10
80.7395472
20
-66.2540725
40
2
50
90
51
126.027373
0
ARC
8
0
10
76.6888118
20
-64.2540725
40
2
50
270
51
306.027373
0
ARC
8
0
10
61.7080534
20
-68.2540725
40
2
50
90
51
110.9000378
0
ARC
8
0
10
55.7477201
20
-66.2483881
40
2
50
272.0000002
51
290.9000378
0
ENDSEC
0
EOF