0
SECTION
2
HEADER
9
$INSUNITS
70
4
0
ENDSEC
0
SECTION
2
TABLES
0
TABLE
2
LTYPE
0
LTYPE
72
65
70
64
2
CONTINUOUS
3
______
73
0
40
0
0
ENDTAB
0
TABLE
2
LAYER
0
ENDTAB
0
ENDSEC
0
SECTION
2
ENTITIES
0
LINE
8
0
10
352.5804999
20
-66.7364658
11
374.0674027
21
-67.486805
0
LINE
8
0
10
374.0674027
20
-67.486805
11
370.7519504
21
-162.4289336
0
LINE
8
0
10
370.7519504
20
-162.4289336
11
350.2644384
21
-161.713494
0
LINE
8
0
10
350.2644384
20
-161.713494
11
347.3391795
21
-159.7540725
0
LINE
8
0
10
347.3391795
20
-159.7540725
11
331.3391795
21
-159.7540725
0
LINE
8
0
10
331.3391795
20
-159.7540725
11
328.5891795
21
-157.7540725
0
LINE
8
0
10
328.5891795
20
-157.7540725
11
312.5891795
21
-157.7540725
0
LINE
8
0
10
312.5891795
20
-157.7540725
11
309.8391795
21
-155.7540724
0
LINE
8
0
10
309.8391795
20
-155.7540724
11
293.8391795
21
-155.7540724
0
LINE
8
0
10
293.8391795
20
-155.7540724
11
291.0891795
21
-157.7540724
0
LINE
8
0
10
291.0891795
20
-157.7540724
11
276.8391795
21
-157.7540724
0
LINE
8
0
10
276.8391795
20
-157.7540724
11
278.1207383
21
-169.3565948
0
LINE
8
0
10
278.1207383
20
-169.3565948
11
256.2119363
21
-171.2286811
0
LINE
8
0
10
256.2119363
20
-171.2286811
11
240.4516404
21
-174.9167739
0
LINE
8
0
10
240.4516404
20
-174.9167739
11
220.1000435
21
-186.6667739
0
LINE
8
0
10
220.1000435
20
-186.6667739
11
204.8500435
21
-160.2529991
0
LINE
8
0
10
204.8500435
20
-160.2529991
11
216.9743991
21
-153.2529991
0
LINE
8
0
10
216.9743991
20
-153.2529991
11
209.388858
21
-125.906445
0
LINE
8
0
10
209.388858
20
-125.906445
11
229.4318189
21
-120.5359499
0
LINE
8
0
10
229.4318189
20
-120.5359499
11
229.8391795
21
-118.0040724
0
LINE
8
0
10
229.8391795
20
-118.0040724
11
229.8391795
21
-64.7540724
0
LINE
8
0
10
229.8391795
20
-64.7540724
11
272.3391795
21
-64.7540724
0
LINE
8
0
10
272.3391795
20
-64.7540724
11
275.0891795
21
-62.7540724
0
LINE
8
0
10
275.0891795
20
-62.7540724
11
291.0891795
21
-62.7540724
0
LINE
8
0
10
291.0891795
20
-62.7540724
11
293.8391795
21
-60.7540724
0
LINE
8
0
10
293.8391795
20
-60.7540724
11
309.8391795
21
-60.7540724
0
LINE
8
0
10
309.8391795
20
-60.7540724
11
312.5891795
21
-62.7540725
0
LINE
8
0
10
312.5891795
20
-62.7540725
11
328.5891795
21
-62.7540725
0
LINE
8
0
10
328.5891795
20
-62.7540725
11
331.3391795
21
-64.7540725
0
LINE
8
0
10
331.3391795
20
-64.7540725
11
347.3391795
21
-64.7540725
0
LINE
8
0
10
347.3391795
20
-64.7540725
11
352.5804999
21
-66.7364658
0
ENDSEC
0
EOF