0
SECTION
2
HEADER
9
$INSUNITS
70
4
0
ENDSEC
0
SECTION
2
TABLES
0
TABLE
2
LTYPE
0
LTYPE
72
65
70
64
2
CONTINUOUS
3
______
73
0
40
0
0
ENDTAB
0
TABLE
2
LAYER
0
ENDTAB
0
ENDSEC
0
SECTION
2
ENTITIES
0
LINE
8
0
10
56.0978591
20
-66.7364658
11
34.6109563
21
-67.486805
0
LINE
8
0
10
34.6109563
20
-67.486805
11
37.9264086
21
-162.4289336
0
LINE
8
0
10
37.9264086
20
-162.4289336
11
58.4139206
21
-161.713494
0
LINE
8
0
10
58.4139206
20
-161.713494
11
61.3391795
21
-159.7540725
0
LINE
8
0
10
61.3391795
20
-159.7540725
11
77.3391795
21
-159.7540725
0
LINE
8
0
10
77.3391795
20
-159.7540725
11
80.0891795
21
-157.7540725
0
LINE
8
0
10
80.0891795
20
-157.7540725
11
96.0891795
21
-157.7540725
0
LINE
8
0
10
96.0891795
20
-157.7540725
11
98.8391795
21
-155.7540724
0
LINE
8
0
10
98.8391795
20
-155.7540724
11
114.8391795
21
-155.7540724
0
LINE
8
0
10
114.8391795
20
-155.7540724
11
117.5891795
21
-157.7540724
0
LINE
8
0
10
117.5891795
20
-157.7540724
11
131.8391795
21
-157.7540724
0
LINE
8
0
10
131.8391795
20
-157.7540724
11
130.5576207
21
-169.3565948
0
LINE
8
0
10
130.5576207
20
-169.3565948
11
152.4664227
21
-171.2286811
0
LINE
8
0
10
152.4664227
20
-171.2286811
11
168.2267186
21
-174.9167739
0
LINE
8
0
10
168.2267186
20
-174.9167739
11
188.5783155
21
-186.6667739
0
LINE
8
0
10
188.5783155
20
-186.6667739
11
203.8283155
21
-160.2529991
0
LINE
8
0
10
203.8283155
20
-160.2529991
11
191.7039599
21
-153.2529991
0
LINE
8
0
10
191.7039599
20
-153.2529991
11
199.289501
21
-125.906445
0
LINE
8
0
10
199.289501
20
-125.906445
11
179.2465401
21
-120.5359499
0
LINE
8
0
10
179.2465401
20
-120.5359499
11
178.8391795
21
-118.0040724
0
LINE
8
0
10
178.8391795
20
-118.0040724
11
178.8391795
21
-64.7540724
0
LINE
8
0
10
178.8391795
20
-64.7540724
11
136.3391795
21
-64.7540724
0
LINE
8
0
10
136.3391795
20
-64.7540724
11
133.5891795
21
-62.7540724
0
LINE
8
0
10
133.5891795
20
-62.7540724
11
117.5891795
21
-62.7540724
0
LINE
8
0
10
117.5891795
20
-62.7540724
11
114.8391795
21
-60.7540724
0
LINE
8
0
10
114.8391795
20
-60.7540724
11
98.8391795
21
-60.7540724
0
LINE
8
0
10
98.8391795
20
-60.7540724
11
96.0891795
21
-62.7540725
0
LINE
8
0
10
96.0891795
20
-62.7540725
11
80.0891795
21
-62.7540725
0
LINE
8
0
10
80.0891795
20
-62.7540725
11
77.3391795
21
-64.7540725
0
LINE
8
0
10
77.3391795
20
-64.7540725
11
61.3391795
21
-64.7540725
0
LINE
8
0
10
61.3391795
20
-64.7540725
11
56.0978591
21
-66.7364658
0
ENDSEC
0
EOF