0
SECTION
2
HEADER
9
$INSUNITS
70
4
0
ENDSEC
0
SECTION
2
TABLES
0
TABLE
2
LTYPE
0
LTYPE
72
65
70
64
2
CONTINUOUS
3
______
73
0
40
0
0
ENDTAB
0
TABLE
2
LAYER
0
ENDTAB
0
ENDSEC
0
SECTION
2
ENTITIES
0
LINE
8
0
10
93.6367273
20
-157.5834531
11
107.5834531
21
-156.3632727
0
LINE
8
0
10
107.5834531
20
-156.3632727
11
106.3632727
21
-142.4165469
0
LINE
8
0
10
106.3632727
20
-142.4165469
11
92.4165469
21
-143.6367273
0
LINE
8
0
10
92.4165469
20
-143.6367273
11
93.6367273
21
-157.5834531
0
LINE
8
0
10
92.0897129
20
-139.9009972
11
106.0364387
21
-138.6808168
0
LINE
8
0
10
106.0364387
20
-138.6808168
11
104.8162583
21
-124.734091
0
LINE
8
0
10
104.8162583
20
-124.734091
11
90.8695325
21
-125.9542714
0
LINE
8
0
10
90.8695325
20
-125.9542714
11
92.0897129
21
-139.9009972
0
LINE
8
0
10
90.5426985
20
-122.2185413
11
104.4894243
21
-120.9983609
0
LINE
8
0
10
104.4894243
20
-120.9983609
11
103.2692439
21
-107.0516351
0
LINE
8
0
10
103.2692439
20
-107.0516351
11
89.3225181
21
-108.2718155
0
LINE
8
0
10
89.3225181
20
-108.2718155
11
90.5426985
21
-122.2185413
0
LINE
8
0
10
88.9956841
20
-104.5360854
11
102.9424099
21
-103.315905
0
LINE
8
0
10
102.9424099
20
-103.315905
11
101.7222295
21
-89.3691792
0
LINE
8
0
10
101.7222295
20
-89.3691792
11
87.7755037
21
-90.5893596
0
LINE
8
0
10
87.7755037
20
-90.5893596
11
88.9956841
21
-104.5360854
0
LINE
8
0
10
87.4486697
20
-86.8536295
11
101.3953955
21
-85.6334491
0
LINE
8
0
10
101.3953955
20
-85.6334491
11
100.1752151
21
-71.6867233
0
LINE
8
0
10
100.1752151
20
-71.6867233
11
86.2284893
21
-72.9069037
0
LINE
8
0
10
86.2284893
20
-72.9069037
11
87.4486697
21
-86.8536295
0
LINE
8
0
10
112.3153779
20
-155.9492829
11
126.2621037
21
-154.7291025
0
LINE
8
0
10
126.2621037
20
-154.7291025
11
125.0419233
21
-140.7823767
0
LINE
8
0
10
125.0419233
20
-140.7823767
11
111.0951975
21
-142.0025571
0
LINE
8
0
10
111.0951975
20
-142.0025571
11
112.3153779
21
-155.9492829
0
LINE
8
0
10
110.7683635
20
-138.266827
11
124.7150893
21
-137.0466466
0
LINE
8
0
10
124.7150893
20
-137.0466466
11
123.4949089
21
-123.0999208
0
LINE
8
0
10
123.4949089
20
-123.0999208
11
109.5481831
21
-124.3201012
0
LINE
8
0
10
109.5481831
20
-124.3201012
11
110.7683635
21
-138.266827
0
LINE
8
0
10
109.2213491
20
-120.5843711
11
123.1680749
21
-119.3641907
0
LINE
8
0
10
123.1680749
20
-119.3641907
11
121.9478945
21
-105.4174649
0
LINE
8
0
10
121.9478945
20
-105.4174649
11
108.0011687
21
-106.6376453
0
LINE
8
0
10
108.0011687
20
-106.6376453
11
109.2213491
21
-120.5843711
0
LINE
8
0
10
107.6743347
20
-102.9019152
11
121.6210605
21
-101.6817348
0
LINE
8
0
10
121.6210605
20
-101.6817348
11
120.4008801
21
-87.735009
0
LINE
8
0
10
120.4008801
20
-87.735009
11
106.4541543
21
-88.9551894
0
LINE
8
0
10
106.4541543
20
-88.9551894
11
107.6743347
21
-102.9019152
0
LINE
8
0
10
106.1273203
20
-85.2194593
11
120.0740461
21
-83.9992789
0
LINE
8
0
10
120.0740461
20
-83.9992789
11
118.8538657
21
-70.0525531
0
LINE
8
0
10
118.8538657
20
-70.0525531
11
104.9071399
21
-71.2727335
0
LINE
8
0
10
104.9071399
20
-71.2727335
11
106.1273203
21
-85.2194593
0
LINE
8
0
10
131.013055
20
-142.7508915
11
145.013055
21
-142.7508915
0
LINE
8
0
10
145.013055
20
-142.7508915
11
145.013055
21
-128.7508915
0
LINE
8
0
10
145.013055
20
-128.7508915
11
131.013055
21
-128.7508915
0
LINE
8
0
10
131.013055
20
-128.7508915
11
131.013055
21
-142.7508915
0
LINE
8
0
10
131.013055
20
-125.0008915
11
145.013055
21
-125.0008915
0
LINE
8
0
10
145.013055
20
-125.0008915
11
145.013055
21
-111.0008915
0
LINE
8
0
10
145.013055
20
-111.0008915
11
131.013055
21
-111.0008915
0
LINE
8
0
10
131.013055
20
-111.0008915
11
131.013055
21
-125.0008915
0
LINE
8
0
10
131.013055
20
-107.2508915
11
145.013055
21
-107.2508915
0
LINE
8
0
10
145.013055
20
-107.2508915
11
145.013055
21
-93.2508915
0
LINE
8
0
10
145.013055
20
-93.2508915
11
131.013055
21
-93.2508915
0
LINE
8
0
10
131.013055
20
-93.2508915
11
131.013055
21
-107.2508915
0
LINE
8
0
10
131.013055
20
-89.5008915
11
145.013055
21
-89.5008915
0
LINE
8
0
10
145.013055
20
-89.5008915
11
145.013055
21
-75.5008915
0
LINE
8
0
10
145.013055
20
-75.5008915
11
131.013055
21
-75.5008915
0
LINE
8
0
10
131.013055
20
-75.5008915
11
131.013055
21
-89.5008915
0
LINE
8
0
10
131.013055
20
-71.7508915
11
145.013055
21
-71.7508915
0
LINE
8
0
10
145.013055
20
-71.7508915
11
145.013055
21
-57.7508915
0
LINE
8
0
10
145.013055
20
-57.7508915
11
131.013055
21
-57.7508915
0
LINE
8
0
10
131.013055
20
-57.7508915
11
131.013055
21
-71.7508915
0
LINE
8
0
10
149.763055
20
-137.7508914
11
163.763055
21
-137.7508914
0
LINE
8
0
10
163.763055
20
-137.7508914
11
163.763055
21
-123.7508914
0
LINE
8
0
10
163.763055
20
-123.7508914
11
149.763055
21
-123.7508914
0
LINE
8
0
10
149.763055
20
-123.7508914
11
149.763055
21
-137.7508914
0
LINE
8
0
10
149.763055
20
-120.0008914
11
163.763055
21
-120.0008914
0
LINE
8
0
10
163.763055
20
-120.0008914
11
163.763055
21
-106.0008914
0
LINE
8
0
10
163.763055
20
-106.0008914
11
149.763055
21
-106.0008914
0
LINE
8
0
10
149.763055
20
-106.0008914
11
149.763055
21
-120.0008914
0
LINE
8
0
10
149.763055
20
-102.2508914
11
163.763055
21
-102.2508914
0
LINE
8
0
10
163.763055
20
-102.2508914
11
163.763055
21
-88.2508914
0
LINE
8
0
10
163.763055
20
-88.2508914
11
149.763055
21
-88.2508914
0
LINE
8
0
10
149.763055
20
-88.2508914
11
149.763055
21
-102.2508914
0
LINE
8
0
10
149.763055
20
-84.5008914
11
163.763055
21
-84.5008914
0
LINE
8
0
10
163.763055
20
-84.5008914
11
163.763055
21
-70.5008914
0
LINE
8
0
10
163.763055
20
-70.5008914
11
149.763055
21
-70.5008914
0
LINE
8
0
10
149.763055
20
-70.5008914
11
149.763055
21
-84.5008914
0
LINE
8
0
10
149.763055
20
-66.7508914
11
163.763055
21
-66.7508914
0
LINE
8
0
10
163.763055
20
-66.7508914
11
163.763055
21
-52.7508914
0
LINE
8
0
10
163.763055
20
-52.7508914
11
149.763055
21
-52.7508914
0
LINE
8
0
10
149.763055
20
-52.7508914
11
149.763055
21
-66.7508914
0
LINE
8
0
10
168.513055
20
-143.7508914
11
182.513055
21
-143.7508914
0
LINE
8
0
10
182.513055
20
-143.7508914
11
182.513055
21
-129.7508914
0
LINE
8
0
10
182.513055
20
-129.7508914
11
168.513055
21
-129.7508914
0
LINE
8
0
10
168.513055
20
-129.7508914
11
168.513055
21
-143.7508914
0
LINE
8
0
10
168.513055
20
-126.0008914
11
182.513055
21
-126.0008914
0
LINE
8
0
10
182.513055
20
-126.0008914
11
182.513055
21
-112.0008914
0
LINE
8
0
10
182.513055
20
-112.0008914
11
168.513055
21
-112.0008914
0
LINE
8
0
10
168.513055
20
-112.0008914
11
168.513055
21
-126.0008914
0
LINE
8
0
10
168.513055
20
-108.2508914
11
182.513055
21
-108.2508914
0
LINE
8
0
10
182.513055
20
-108.2508914
11
182.513055
21
-94.2508914
0
LINE
8
0
10
182.513055
20
-94.2508914
11
168.513055
21
-94.2508914
0
LINE
8
0
10
168.513055
20
-94.2508914
11
168.513055
21
-108.2508914
0
LINE
8
0
10
168.513055
20
-90.5008914
11
182.513055
21
-90.5008914
0
LINE
8
0
10
182.513055
20
-90.5008914
11
182.513055
21
-76.5008914
0
LINE
8
0
10
182.513055
20
-76.5008914
11
168.513055
21
-76.5008914
0
LINE
8
0
10
168.513055
20
-76.5008914
11
168.513055
21
-90.5008914
0
LINE
8
0
10
168.513055
20
-72.7508914
11
182.513055
21
-72.7508914
0
LINE
8
0
10
182.513055
20
-72.7508914
11
182.513055
21
-58.7508914
0
LINE
8
0
10
182.513055
20
-58.7508914
11
168.513055
21
-58.7508914
0
LINE
8
0
10
168.513055
20
-58.7508914
11
168.513055
21
-72.7508914
0
LINE
8
0
10
187.263055
20
-128.0008914
11
201.263055
21
-128.0008914
0
LINE
8
0
10
201.263055
20
-128.0008914
11
201.263055
21
-114.0008914
0
LINE
8
0
10
201.263055
20
-114.0008914
11
187.263055
21
-114.0008914
0
LINE
8
0
10
187.263055
20
-114.0008914
11
187.263055
21
-128.0008914
0
LINE
8
0
10
187.263055
20
-110.2508914
11
201.263055
21
-110.2508914
0
LINE
8
0
10
201.263055
20
-110.2508914
11
201.263055
21
-96.2508914
0
LINE
8
0
10
201.263055
20
-96.2508914
11
187.263055
21
-96.2508914
0
LINE
8
0
10
187.263055
20
-96.2508914
11
187.263055
21
-110.2508914
0
LINE
8
0
10
187.263055
20
-92.5008914
11
201.263055
21
-92.5008914
0
LINE
8
0
10
201.263055
20
-92.5008914
11
201.263055
21
-78.5008914
0
LINE
8
0
10
201.263055
20
-78.5008914
11
187.263055
21
-78.5008914
0
LINE
8
0
10
187.263055
20
-78.5008914
11
187.263055
21
-92.5008914
0
LINE
8
0
10
187.263055
20
-74.7508914
11
201.263055
21
-74.7508914
0
LINE
8
0
10
201.263055
20
-74.7508914
11
201.263055
21
-60.7508914
0
LINE
8
0
10
201.263055
20
-60.7508914
11
187.263055
21
-60.7508914
0
LINE
8
0
10
187.263055
20
-60.7508914
11
187.263055
21
-74.7508914
0
LINE
8
0
10
186.6796019
20
-152.6141641
11
200.6263277
21
-153.8343445
0
LINE
8
0
10
200.6263277
20
-153.8343445
11
201.8465081
21
-139.8876187
0
LINE
8
0
10
201.8465081
20
-139.8876187
11
187.8997823
21
-138.6674383
0
LINE
8
0
10
187.8997823
20
-138.6674383
11
186.6796019
21
-152.6141641
0
LINE
8
0
10
206.457407
20
-154.7742502
11
219.9803686
21
-158.3977168
0
LINE
8
0
10
219.9803686
20
-158.3977168
11
223.6038352
21
-144.8747552
0
LINE
8
0
10
223.6038352
20
-144.8747552
11
210.0808736
21
-141.2512886
0
LINE
8
0
10
210.0808736
20
-141.2512886
11
206.457407
21
-154.7742502
0
LINE
8
0
10
225.7396957
20
-160.7688833
11
237.8640513
21
-167.7688833
0
LINE
8
0
10
237.8640513
20
-167.7688833
11
244.8640513
21
-155.6445277
0
LINE
8
0
10
244.8640513
20
-155.6445277
11
232.7396957
21
-148.6445277
0
LINE
8
0
10
232.7396957
20
-148.6445277
11
225.7396957
21
-160.7688833
0
LINE
8
0
10
206.4296019
20
-128.1141641
11
220.3763277
21
-129.3343445
0
LINE
8
0
10
220.3763277
20
-129.3343445
11
221.5965081
21
-115.3876187
0
LINE
8
0
10
221.5965081
20
-115.3876187
11
207.6497823
21
-114.1674383
0
LINE
8
0
10
207.6497823
20
-114.1674383
11
206.4296019
21
-128.1141641
0
LINE
8
0
10
225.460261
20
-130.2088834
11
238.9832226
21
-133.83235
0
LINE
8
0
10
238.9832226
20
-133.83235
11
242.6066892
21
-120.3093884
0
LINE
8
0
10
242.6066892
20
-120.3093884
11
229.0837276
21
-116.6859218
0
LINE
8
0
10
229.0837276
20
-116.6859218
11
225.460261
21
-130.2088834
0
LINE
8
0
10
400.9426569
20
-156.3632727
11
414.8893827
21
-157.5834531
0
LINE
8
0
10
414.8893827
20
-157.5834531
11
416.1095631
21
-143.6367273
0
LINE
8
0
10
416.1095631
20
-143.6367273
11
402.1628373
21
-142.4165469
0
LINE
8
0
10
402.1628373
20
-142.4165469
11
400.9426569
21
-156.3632727
0
LINE
8
0
10
402.4896713
20
-138.6808168
11
416.4363971
21
-139.9009972
0
LINE
8
0
10
416.4363971
20
-139.9009972
11
417.6565775
21
-125.9542714
0
LINE
8
0
10
417.6565775
20
-125.9542714
11
403.7098517
21
-124.734091
0
LINE
8
0
10
403.7098517
20
-124.734091
11
402.4896713
21
-138.6808168
0
LINE
8
0
10
404.0366857
20
-120.9983609
11
417.9834115
21
-122.2185413
0
LINE
8
0
10
417.9834115
20
-122.2185413
11
419.2035919
21
-108.2718155
0
LINE
8
0
10
419.2035919
20
-108.2718155
11
405.2568661
21
-107.0516351
0
LINE
8
0
10
405.2568661
20
-107.0516351
11
404.0366857
21
-120.9983609
0
LINE
8
0
10
405.5837001
20
-103.315905
11
419.5304259
21
-104.5360854
0
LINE
8
0
10
419.5304259
20
-104.5360854
11
420.7506063
21
-90.5893596
0
LINE
8
0
10
420.7506063
20
-90.5893596
11
406.8038805
21
-89.3691792
0
LINE
8
0
10
406.8038805
20
-89.3691792
11
405.5837001
21
-103.315905
0
LINE
8
0
10
407.1307145
20
-85.6334491
11
421.0774403
21
-86.8536295
0
LINE
8
0
10
421.0774403
20
-86.8536295
11
422.2976207
21
-72.9069037
0
LINE
8
0
10
422.2976207
20
-72.9069037
11
408.3508949
21
-71.6867233
0
LINE
8
0
10
408.3508949
20
-71.6867233
11
407.1307145
21
-85.6334491
0
LINE
8
0
10
382.2640063
20
-154.7291025
11
396.2107321
21
-155.9492829
0
LINE
8
0
10
396.2107321
20
-155.9492829
11
397.4309125
21
-142.0025571
0
LINE
8
0
10
397.4309125
20
-142.0025571
11
383.4841867
21
-140.7823767
0
LINE
8
0
10
383.4841867
20
-140.7823767
11
382.2640063
21
-154.7291025
0
LINE
8
0
10
383.8110207
20
-137.0466466
11
397.7577465
21
-138.266827
0
LINE
8
0
10
397.7577465
20
-138.266827
11
398.9779269
21
-124.3201012
0
LINE
8
0
10
398.9779269
20
-124.3201012
11
385.0312011
21
-123.0999208
0
LINE
8
0
10
385.0312011
20
-123.0999208
11
383.8110207
21
-137.0466466
0
LINE
8
0
10
385.3580351
20
-119.3641907
11
399.3047609
21
-120.5843711
0
LINE
8
0
10
399.3047609
20
-120.5843711
11
400.5249413
21
-106.6376453
0
LINE
8
0
10
400.5249413
20
-106.6376453
11
386.5782155
21
-105.4174649
0
LINE
8
0
10
386.5782155
20
-105.4174649
11
385.3580351
21
-119.3641907
0
LINE
8
0
10
386.9050495
20
-101.6817348
11
400.8517753
21
-102.9019152
0
LINE
8
0
10
400.8517753
20
-102.9019152
11
402.0719557
21
-88.9551894
0
LINE
8
0
10
402.0719557
20
-88.9551894
11
388.1252299
21
-87.735009
0
LINE
8
0
10
388.1252299
20
-87.735009
11
386.9050495
21
-101.6817348
0
LINE
8
0
10
388.4520639
20
-83.9992789
11
402.3987897
21
-85.2194593
0
LINE
8
0
10
402.3987897
20
-85.2194593
11
403.6189701
21
-71.2727335
0
LINE
8
0
10
403.6189701
20
-71.2727335
11
389.6722443
21
-70.0525531
0
LINE
8
0
10
389.6722443
20
-70.0525531
11
388.4520639
21
-83.9992789
0
LINE
8
0
10
363.513055
20
-142.7508915
11
377.513055
21
-142.7508915
0
LINE
8
0
10
377.513055
20
-142.7508915
11
377.513055
21
-128.7508915
0
LINE
8
0
10
377.513055
20
-128.7508915
11
363.513055
21
-128.7508915
0
LINE
8
0
10
363.513055
20
-128.7508915
11
363.513055
21
-142.7508915
0
LINE
8
0
10
363.513055
20
-125.0008915
11
377.513055
21
-125.0008915
0
LINE
8
0
10
377.513055
20
-125.0008915
11
377.513055
21
-111.0008915
0
LINE
8
0
10
377.513055
20
-111.0008915
11
363.513055
21
-111.0008915
0
LINE
8
0
10
363.513055
20
-111.0008915
11
363.513055
21
-125.0008915
0
LINE
8
0
10
363.513055
20
-107.2508915
11
377.513055
21
-107.2508915
0
LINE
8
0
10
377.513055
20
-107.2508915
11
377.513055
21
-93.2508915
0
LINE
8
0
10
377.513055
20
-93.2508915
11
363.513055
21
-93.2508915
0
LINE
8
0
10
363.513055
20
-93.2508915
11
363.513055
21
-107.2508915
0
LINE
8
0
10
363.513055
20
-89.5008915
11
377.513055
21
-89.5008915
0
LINE
8
0
10
377.513055
20
-89.5008915
11
377.513055
21
-75.5008915
0
LINE
8
0
10
377.513055
20
-75.5008915
11
363.513055
21
-75.5008915
0
LINE
8
0
10
363.513055
20
-75.5008915
11
363.513055
21
-89.5008915
0
LINE
8
0
10
363.513055
20
-71.7508915
11
377.513055
21
-71.7508915
0
LINE
8
0
10
377.513055
20
-71.7508915
11
377.513055
21
-57.7508915
0
LINE
8
0
10
377.513055
20
-57.7508915
11
363.513055
21
-57.7508915
0
LINE
8
0
10
363.513055
20
-57.7508915
11
363.513055
21
-71.7508915
0
LINE
8
0
10
344.763055
20
-137.7508914
11
358.763055
21
-137.7508914
0
LINE
8
0
10
358.763055
20
-137.7508914
11
358.763055
21
-123.7508914
0
LINE
8
0
10
358.763055
20
-123.7508914
11
344.763055
21
-123.7508914
0
LINE
8
0
10
344.763055
20
-123.7508914
11
344.763055
21
-137.7508914
0
LINE
8
0
10
344.763055
20
-120.0008914
11
358.763055
21
-120.0008914
0
LINE
8
0
10
358.763055
20
-120.0008914
11
358.763055
21
-106.0008914
0
LINE
8
0
10
358.763055
20
-106.0008914
11
344.763055
21
-106.0008914
0
LINE
8
0
10
344.763055
20
-106.0008914
11
344.763055
21
-120.0008914
0
LINE
8
0
10
344.763055
20
-102.2508914
11
358.763055
21
-102.2508914
0
LINE
8
0
10
358.763055
20
-102.2508914
11
358.763055
21
-88.2508914
0
LINE
8
0
10
358.763055
20
-88.2508914
11
344.763055
21
-88.2508914
0
LINE
8
0
10
344.763055
20
-88.2508914
11
344.763055
21
-102.2508914
0
LINE
8
0
10
344.763055
20
-84.5008914
11
358.763055
21
-84.5008914
0
LINE
8
0
10
358.763055
20
-84.5008914
11
358.763055
21
-70.5008914
0
LINE
8
0
10
358.763055
20
-70.5008914
11
344.763055
21
-70.5008914
0
LINE
8
0
10
344.763055
20
-70.5008914
11
344.763055
21
-84.5008914
0
LINE
8
0
10
344.763055
20
-66.7508914
11
358.763055
21
-66.7508914
0
LINE
8
0
10
358.763055
20
-66.7508914
11
358.763055
21
-52.7508914
0
LINE
8
0
10
358.763055
20
-52.7508914
11
344.763055
21
-52.7508914
0
LINE
8
0
10
344.763055
20
-52.7508914
11
344.763055
21
-66.7508914
0
LINE
8
0
10
326.013055
20
-143.7508914
11
340.013055
21
-143.7508914
0
LINE
8
0
10
340.013055
20
-143.7508914
11
340.013055
21
-129.7508914
0
LINE
8
0
10
340.013055
20
-129.7508914
11
326.013055
21
-129.7508914
0
LINE
8
0
10
326.013055
20
-129.7508914
11
326.013055
21
-143.7508914
0
LINE
8
0
10
326.013055
20
-126.0008914
11
340.013055
21
-126.0008914
0
LINE
8
0
10
340.013055
20
-126.0008914
11
340.013055
21
-112.0008914
0
LINE
8
0
10
340.013055
20
-112.0008914
11
326.013055
21
-112.0008914
0
LINE
8
0
10
326.013055
20
-112.0008914
11
326.013055
21
-126.0008914
0
LINE
8
0
10
326.013055
20
-108.2508914
11
340.013055
21
-108.2508914
0
LINE
8
0
10
340.013055
20
-108.2508914
11
340.013055
21
-94.2508914
0
LINE
8
0
10
340.013055
20
-94.2508914
11
326.013055
21
-94.2508914
0
LINE
8
0
10
326.013055
20
-94.2508914
11
326.013055
21
-108.2508914
0
LINE
8
0
10
326.013055
20
-90.5008914
11
340.013055
21
-90.5008914
0
LINE
8
0
10
340.013055
20
-90.5008914
11
340.013055
21
-76.5008914
0
LINE
8
0
10
340.013055
20
-76.5008914
11
326.013055
21
-76.5008914
0
LINE
8
0
10
326.013055
20
-76.5008914
11
326.013055
21
-90.5008914
0
LINE
8
0
10
326.013055
20
-72.7508914
11
340.013055
21
-72.7508914
0
LINE
8
0
10
340.013055
20
-72.7508914
11
340.013055
21
-58.7508914
0
LINE
8
0
10
340.013055
20
-58.7508914
11
326.013055
21
-58.7508914
0
LINE
8
0
10
326.013055
20
-58.7508914
11
326.013055
21
-72.7508914
0
LINE
8
0
10
307.263055
20
-128.0008914
11
321.263055
21
-128.0008914
0
LINE
8
0
10
321.263055
20
-128.0008914
11
321.263055
21
-114.0008914
0
LINE
8
0
10
321.263055
20
-114.0008914
11
307.263055
21
-114.0008914
0
LINE
8
0
10
307.263055
20
-114.0008914
11
307.263055
21
-128.0008914
0
LINE
8
0
10
307.263055
20
-110.2508914
11
321.263055
21
-110.2508914
0
LINE
8
0
10
321.263055
20
-110.2508914
11
321.263055
21
-96.2508914
0
LINE
8
0
10
321.263055
20
-96.2508914
11
307.263055
21
-96.2508914
0
LINE
8
0
10
307.263055
20
-96.2508914
11
307.263055
21
-110.2508914
0
LINE
8
0
10
307.263055
20
-92.5008914
11
321.263055
21
-92.5008914
0
LINE
8
0
10
321.263055
20
-92.5008914
11
321.263055
21
-78.5008914
0
LINE
8
0
10
321.263055
20
-78.5008914
11
307.263055
21
-78.5008914
0
LINE
8
0
10
307.263055
20
-78.5008914
11
307.263055
21
-92.5008914
0
LINE
8
0
10
307.263055
20
-74.7508914
11
321.263055
21
-74.7508914
0
LINE
8
0
10
321.263055
20
-74.7508914
11
321.263055
21
-60.7508914
0
LINE
8
0
10
321.263055
20
-60.7508914
11
307.263055
21
-60.7508914
0
LINE
8
0
10
307.263055
20
-60.7508914
11
307.263055
21
-74.7508914
0
LINE
8
0
10
307.8997823
20
-153.8343445
11
321.8465081
21
-152.6141641
0
LINE
8
0
10
321.8465081
20
-152.6141641
11
320.6263277
21
-138.6674383
0
LINE
8
0
10
320.6263277
20
-138.6674383
11
306.6796019
21
-139.8876187
0
LINE
8
0
10
306.6796019
20
-139.8876187
11
307.8997823
21
-153.8343445
0
LINE
8
0
10
288.5457414
20
-158.3977168
11
302.068703
21
-154.7742502
0
LINE
8
0
10
302.068703
20
-154.7742502
11
298.4452364
21
-141.2512886
0
LINE
8
0
10
298.4452364
20
-141.2512886
11
284.9222748
21
-144.8747552
0
LINE
8
0
10
284.9222748
20
-144.8747552
11
288.5457414
21
-158.3977168
0
LINE
8
0
10
270.6620587
20
-167.7688833
11
282.7864143
21
-160.7688833
0
LINE
8
0
10
282.7864143
20
-160.7688833
11
275.7864143
21
-148.6445277
0
LINE
8
0
10
275.7864143
20
-148.6445277
11
263.6620587
21
-155.6445277
0
LINE
8
0
10
263.6620587
20
-155.6445277
11
270.6620587
21
-167.7688833
0
LINE
8
0
10
288.1497823
20
-129.3343445
11
302.0965081
21
-128.1141641
0
LINE
8
0
10
302.0965081
20
-128.1141641
11
300.8763277
21
-114.1674383
0
LINE
8
0
10
300.8763277
20
-114.1674383
11
286.9296019
21
-115.3876187
0
LINE
8
0
10
286.9296019
20
-115.3876187
11
288.1497823
21
-129.3343445
0
LINE
8
0
10
269.5428874
20
-133.83235
11
283.065849
21
-130.2088834
0
LINE
8
0
10
283.065849
20
-130.2088834
11
279.4423824
21
-116.6859218
0
LINE
8
0
10
279.4423824
20
-116.6859218
11
265.9194208
21
-120.3093884
0
LINE
8
0
10
265.9194208
20
-120.3093884
11
269.5428874
21
-133.83235
0
ENDSEC
0
EOF