0
SECTION
2
HEADER
9
$INSUNITS
70
4
0
ENDSEC
0
SECTION
2
TABLES
0
TABLE
2
LTYPE
0
LTYPE
72
65
70
64
2
CONTINUOUS
3
______
73
0
40
0
0
ENDTAB
0
TABLE
2
LAYER
0
ENDTAB
0
ENDSEC
0
SECTION
2
ENTITIES
0
LINE
8
0
10
55.8175191
20
-68.2471698
11
38.1611735
21
-68.863743
0
LINE
8
0
10
36.2321908
20
-70.9323237
11
39.3033466
21
-158.8787164
0
LINE
8
0
10
41.3719273
20
-160.8076991
11
57.8005057
21
-160.2340005
0
LINE
8
0
10
58.8304809
20
-159.9056968
11
60.8386593
21
-158.5835945
0
LINE
8
0
10
61.9384335
20
-158.2540725
11
76.6888118
21
-158.2540725
0
LINE
8
0
10
77.8651552
20
-157.8715447
11
79.5632038
21
-156.6366003
0
LINE
8
0
10
80.7395472
20
-156.2540725
11
95.4388119
21
-156.2540725
0
LINE
8
0
10
96.6151553
20
-155.8715446
11
98.3132037
21
-154.6366003
0
LINE
8
0
10
99.4895471
20
-154.2540724
11
114.1888118
21
-154.2540724
0
LINE
8
0
10
115.3651552
20
-154.6366002
11
117.0632038
21
-155.8715446
0
LINE
8
0
10
118.2395472
20
-156.2540724
11
131.1324548
21
-156.2540724
0
LINE
8
0
10
133.1228185
20
-158.4501648
11
132.3811031
21
-165.9786747
0
LINE
8
0
10
134.1992418
20
-168.1673379
11
152.7074461
21
-169.7670689
0
LINE
8
0
10
152.9983885
20
-169.8140098
11
168.692714
21
-173.550127
0
LINE
8
0
10
169.2295466
20
-173.7637061
11
186.2972266
21
-183.6177358
0
LINE
8
0
10
189.0292774
20
-182.885685
11
200.7792774
21
-162.534088
0
LINE
8
0
10
200.0472266
20
-159.8020372
11
191.0130805
21
-154.5861705
0
LINE
8
0
10
190.092516
20
-152.2960587
11
196.8824872
21
-128.9284016
0
LINE
8
0
10
195.4795607
20
-126.4384889
11
178.8409379
21
-121.9801833
0
LINE
8
0
10
177.3597019
20
-120.1154308
11
177.3391795
21
-119.5040724
0
LINE
8
0
10
177.3391795
20
-119.5040724
11
177.3391795
21
-68.2540724
0
LINE
8
0
10
175.3391795
20
-66.2540724
11
136.9895472
21
-66.2540724
0
LINE
8
0
10
135.8132038
20
-65.8715446
11
134.1151552
21
-64.6366002
0
LINE
8
0
10
132.9388118
20
-64.2540724
11
118.2395472
21
-64.2540724
0
LINE
8
0
10
117.0632038
20
-63.8715446
11
115.3651552
21
-62.6366002
0
LINE
8
0
10
114.1888118
20
-62.2540724
11
99.4895471
21
-62.2540724
0
LINE
8
0
10
98.3132037
20
-62.6366003
11
96.6151553
21
-63.8715446
0
LINE
8
0
10
95.4388119
20
-64.2540725
11
80.7395472
21
-64.2540725
0
LINE
8
0
10
79.5632038
20
-64.6366003
11
77.8651552
21
-65.8715447
0
LINE
8
0
10
76.6888118
20
-66.2540725
11
61.7080534
21
-66.2540725
0
LINE
8
0
10
60.9945762
20
-66.385664
11
56.4611974
21
-68.1167966
0
ARC
8
0
10
38.2309725
20
-70.8625247
40
2
50
92.0000002
51
182.0000002
0
ARC
8
0
10
41.3021283
20
-158.8089174
40
2
50
182.0000002
51
272.0000002
0
ARC
8
0
10
57.7307067
20
-158.2352188
40
2
50
272.0000002
51
303.3592677
0
ARC
8
0
10
61.9384335
20
-160.2540725
40
2
50
90
51
123.3592677
0
ARC
8
0
10
76.6888118
20
-156.2540725
40
2
50
270
51
306.027373
0
ARC
8
0
10
80.7395472
20
-158.2540725
40
2
50
90
51
126.027373
0
ARC
8
0
10
95.4388119
20
-154.2540725
40
2
50
270
51
306.027373
0
ARC
8
0
10
99.4895471
20
-156.2540724
40
2
50
90
51
126.027373
0
ARC
8
0
10
114.1888118
20
-156.2540724
40
2
50
53.972627
51
90
0
ARC
8
0
10
118.2395472
20
-154.2540724
40
2
50
233.972627
51
270
0
ARC
8
0
10
131.1324548
20
-158.2540724
40
2
50
354.3733271
51
90
0
ARC
8
0
10
134.3714668
20
-166.1747671
40
2
50
174.3733271
51
265.0599989
0
ARC
8
0
10
152.5352211
20
-171.7596397
40
2
50
76.6096715
51
85.0599989
0
ARC
8
0
10
168.2295466
20
-175.4957569
40
2
50
59.9999999
51
76.6096715
0
ARC
8
0
10
187.2972266
20
-181.885685
40
2
50
239.9999999
51
329.9999999
0
ARC
8
0
10
199.0472266
20
-161.534088
40
2
50
329.9999999
51
59.9999999
0
ARC
8
0
10
192.0130805
20
-152.8541197
40
2
50
163.7976489
51
239.9999999
0
ARC
8
0
10
194.9619227
20
-128.3703406
40
2
50
343.7976489
51
75.0000021
0
ARC
8
0
10
179.358576
20
-120.0483316
40
2
50
181.9226112
51
255.0000021
0
ARC
8
0
10
175.3391795
20
-68.2540724
40
2
50
0
51
90
0
ARC
8
0
10
136.9895472
20
-64.2540724
40
2
50
233.972627
51
270
0
ARC
8
0
10
132.9388118
20
-66.2540724
40
2
50
53.972627
51
90
0
ARC
8
0
10
118.2395472
20
-62.2540724
40
2
50
233.972627
51
270
0
ARC
8
0
10
114.1888118
20
-64.2540724
40
2
50
53.972627
51
90
0
ARC
8
0
10
99.4895471
20
-64.2540724
40
2
50
90
51
126.027373
0
ARC
8
0
10
95.4388119
20
-62.2540725
40
2
50
270
51
306.027373
0
ARC
8
0
10
80.7395472
20
-66.2540725
40
2
50
90
51
126.027373
0
ARC
8
0
10
76.6888118
20
-64.2540725
40
2
50
270
51
306.027373
0
ARC
8
0
10
61.7080534
20
-68.2540725
40
2
50
90
51
110.9000378
0
ARC
8
0
10
55.7477201
20
-66.2483881
40
2
50
272.0000002
51
290.9000378
0
LINE
8
0
10
43.2485607
20
-157.2400323
11
57.2400323
21
-156.7514393
0
LINE
8
0
10
57.2400323
20
-156.7514393
11
56.7514393
21
-142.7599677
0
LINE
8
0
10
56.7514393
20
-142.7599677
11
42.7599677
21
-143.2485607
0
LINE
8
0
10
42.7599677
20
-143.2485607
11
43.2485607
21
-157.2400323
0
LINE
8
0
10
42.6290946
20
-139.5008451
11
56.6205662
21
-139.0122521
0
LINE
8
0
10
56.6205662
20
-139.0122521
11
56.1319732
21
-125.0207805
0
LINE
8
0
10
56.1319732
20
-125.0207805
11
42.1405016
21
-125.5093735
0
LINE
8
0
10
42.1405016
20
-125.5093735
11
42.6290946
21
-139.5008451
0
LINE
8
0
10
42.0096285
20
-121.7616579
11
56.0011001
21
-121.2730649
0
LINE
8
0
10
56.0011001
20
-121.2730649
11
55.5125071
21
-107.2815933
0
LINE
8
0
10
55.5125071
20
-107.2815933
11
41.5210355
21
-107.7701863
0
LINE
8
0
10
41.5210355
20
-107.7701863
11
42.0096285
21
-121.7616579
0
LINE
8
0
10
41.3901624
20
-104.0224707
11
55.381634
21
-103.5338777
0
LINE
8
0
10
55.381634
20
-103.5338777
11
54.893041
21
-89.5424061
0
LINE
8
0
10
54.893041
20
-89.5424061
11
40.9015694
21
-90.0309991
0
LINE
8
0
10
40.9015694
20
-90.0309991
11
41.3901624
21
-104.0224707
0
LINE
8
0
10
40.7706963
20
-86.2832835
11
54.7621679
21
-85.7946905
0
LINE
8
0
10
54.7621679
20
-85.7946905
11
54.2735749
21
-71.8032189
0
LINE
8
0
10
54.2735749
20
-71.8032189
11
40.2821033
21
-72.2918119
0
LINE
8
0
10
40.2821033
20
-72.2918119
11
40.7706963
21
-86.2832835
0
LINE
8
0
10
62.3391795
20
-154.7540725
11
76.3391795
21
-154.7540725
0
LINE
8
0
10
76.3391795
20
-154.7540725
11
76.3391795
21
-140.7540725
0
LINE
8
0
10
76.3391795
20
-140.7540725
11
62.3391795
21
-140.7540725
0
LINE
8
0
10
62.3391795
20
-140.7540725
11
62.3391795
21
-154.7540725
0
LINE
8
0
10
62.3391795
20
-137.0040725
11
76.3391795
21
-137.0040725
0
LINE
8
0
10
76.3391795
20
-137.0040725
11
76.3391795
21
-123.0040725
0
LINE
8
0
10
76.3391795
20
-123.0040725
11
62.3391795
21
-123.0040725
0
LINE
8
0
10
62.3391795
20
-123.0040725
11
62.3391795
21
-137.0040725
0
LINE
8
0
10
62.3391795
20
-119.2540725
11
76.3391795
21
-119.2540725
0
LINE
8
0
10
76.3391795
20
-119.2540725
11
76.3391795
21
-105.2540725
0
LINE
8
0
10
76.3391795
20
-105.2540725
11
62.3391795
21
-105.2540725
0
LINE
8
0
10
62.3391795
20
-105.2540725
11
62.3391795
21
-119.2540725
0
LINE
8
0
10
62.3391795
20
-101.5040725
11
76.3391795
21
-101.5040725
0
LINE
8
0
10
76.3391795
20
-101.5040725
11
76.3391795
21
-87.5040725
0
LINE
8
0
10
76.3391795
20
-87.5040725
11
62.3391795
21
-87.5040725
0
LINE
8
0
10
62.3391795
20
-87.5040725
11
62.3391795
21
-101.5040725
0
LINE
8
0
10
62.3391795
20
-83.7540725
11
76.3391795
21
-83.7540725
0
LINE
8
0
10
76.3391795
20
-83.7540725
11
76.3391795
21
-69.7540725
0
LINE
8
0
10
76.3391795
20
-69.7540725
11
62.3391795
21
-69.7540725
0
LINE
8
0
10
62.3391795
20
-69.7540725
11
62.3391795
21
-83.7540725
0
LINE
8
0
10
81.0891795
20
-152.7540725
11
95.0891795
21
-152.7540725
0
LINE
8
0
10
95.0891795
20
-152.7540725
11
95.0891795
21
-138.7540725
0
LINE
8
0
10
95.0891795
20
-138.7540725
11
81.0891795
21
-138.7540725
0
LINE
8
0
10
81.0891795
20
-138.7540725
11
81.0891795
21
-152.7540725
0
LINE
8
0
10
81.0891795
20
-135.0040725
11
95.0891795
21
-135.0040725
0
LINE
8
0
10
95.0891795
20
-135.0040725
11
95.0891795
21
-121.0040725
0
LINE
8
0
10
95.0891795
20
-121.0040725
11
81.0891795
21
-121.0040725
0
LINE
8
0
10
81.0891795
20
-121.0040725
11
81.0891795
21
-135.0040725
0
LINE
8
0
10
81.0891795
20
-117.2540725
11
95.0891795
21
-117.2540725
0
LINE
8
0
10
95.0891795
20
-117.2540725
11
95.0891795
21
-103.2540725
0
LINE
8
0
10
95.0891795
20
-103.2540725
11
81.0891795
21
-103.2540725
0
LINE
8
0
10
81.0891795
20
-103.2540725
11
81.0891795
21
-117.2540725
0
LINE
8
0
10
81.0891795
20
-99.5040725
11
95.0891795
21
-99.5040725
0
LINE
8
0
10
95.0891795
20
-99.5040725
11
95.0891795
21
-85.5040725
0
LINE
8
0
10
95.0891795
20
-85.5040725
11
81.0891795
21
-85.5040725
0
LINE
8
0
10
81.0891795
20
-85.5040725
11
81.0891795
21
-99.5040725
0
LINE
8
0
10
81.0891795
20
-81.7540725
11
95.0891795
21
-81.7540725
0
LINE
8
0
10
95.0891795
20
-81.7540725
11
95.0891795
21
-67.7540725
0
LINE
8
0
10
95.0891795
20
-67.7540725
11
81.0891795
21
-67.7540725
0
LINE
8
0
10
81.0891795
20
-67.7540725
11
81.0891795
21
-81.7540725
0
LINE
8
0
10
99.8391795
20
-150.7540724
11
113.8391795
21
-150.7540724
0
LINE
8
0
10
113.8391795
20
-150.7540724
11
113.8391795
21
-136.7540724
0
LINE
8
0
10
113.8391795
20
-136.7540724
11
99.8391795
21
-136.7540724
0
LINE
8
0
10
99.8391795
20
-136.7540724
11
99.8391795
21
-150.7540724
0
LINE
8
0
10
99.8391795
20
-133.0040724
11
113.8391795
21
-133.0040724
0
LINE
8
0
10
113.8391795
20
-133.0040724
11
113.8391795
21
-119.0040724
0
LINE
8
0
10
113.8391795
20
-119.0040724
11
99.8391795
21
-119.0040724
0
LINE
8
0
10
99.8391795
20
-119.0040724
11
99.8391795
21
-133.0040724
0
LINE
8
0
10
99.8391795
20
-115.2540724
11
113.8391795
21
-115.2540724
0
LINE
8
0
10
113.8391795
20
-115.2540724
11
113.8391795
21
-101.2540724
0
LINE
8
0
10
113.8391795
20
-101.2540724
11
99.8391795
21
-101.2540724
0
LINE
8
0
10
99.8391795
20
-101.2540724
11
99.8391795
21
-115.2540724
0
LINE
8
0
10
99.8391795
20
-97.5040724
11
113.8391795
21
-97.5040724
0
LINE
8
0
10
113.8391795
20
-97.5040724
11
113.8391795
21
-83.5040724
0
LINE
8
0
10
113.8391795
20
-83.5040724
11
99.8391795
21
-83.5040724
0
LINE
8
0
10
99.8391795
20
-83.5040724
11
99.8391795
21
-97.5040724
0
LINE
8
0
10
99.8391795
20
-79.7540724
11
113.8391795
21
-79.7540724
0
LINE
8
0
10
113.8391795
20
-79.7540724
11
113.8391795
21
-65.7540724
0
LINE
8
0
10
113.8391795
20
-65.7540724
11
99.8391795
21
-65.7540724
0
LINE
8
0
10
99.8391795
20
-65.7540724
11
99.8391795
21
-79.7540724
0
LINE
8
0
10
118.5891795
20
-152.7540724
11
132.5891795
21
-152.7540724
0
LINE
8
0
10
132.5891795
20
-152.7540724
11
132.5891795
21
-138.7540724
0
LINE
8
0
10
132.5891795
20
-138.7540724
11
118.5891795
21
-138.7540724
0
LINE
8
0
10
118.5891795
20
-138.7540724
11
118.5891795
21
-152.7540724
0
LINE
8
0
10
118.5891795
20
-135.0040724
11
132.5891795
21
-135.0040724
0
LINE
8
0
10
132.5891795
20
-135.0040724
11
132.5891795
21
-121.0040724
0
LINE
8
0
10
132.5891795
20
-121.0040724
11
118.5891795
21
-121.0040724
0
LINE
8
0
10
118.5891795
20
-121.0040724
11
118.5891795
21
-135.0040724
0
LINE
8
0
10
118.5891795
20
-117.2540724
11
132.5891795
21
-117.2540724
0
LINE
8
0
10
132.5891795
20
-117.2540724
11
132.5891795
21
-103.2540724
0
LINE
8
0
10
132.5891795
20
-103.2540724
11
118.5891795
21
-103.2540724
0
LINE
8
0
10
118.5891795
20
-103.2540724
11
118.5891795
21
-117.2540724
0
LINE
8
0
10
118.5891795
20
-99.5040724
11
132.5891795
21
-99.5040724
0
LINE
8
0
10
132.5891795
20
-99.5040724
11
132.5891795
21
-85.5040724
0
LINE
8
0
10
132.5891795
20
-85.5040724
11
118.5891795
21
-85.5040724
0
LINE
8
0
10
118.5891795
20
-85.5040724
11
118.5891795
21
-99.5040724
0
LINE
8
0
10
118.5891795
20
-81.7540724
11
132.5891795
21
-81.7540724
0
LINE
8
0
10
132.5891795
20
-81.7540724
11
132.5891795
21
-67.7540724
0
LINE
8
0
10
132.5891795
20
-67.7540724
11
118.5891795
21
-67.7540724
0
LINE
8
0
10
118.5891795
20
-67.7540724
11
118.5891795
21
-81.7540724
0
LINE
8
0
10
137.3391795
20
-137.0040724
11
151.3391795
21
-137.0040724
0
LINE
8
0
10
151.3391795
20
-137.0040724
11
151.3391795
21
-123.0040724
0
LINE
8
0
10
151.3391795
20
-123.0040724
11
137.3391795
21
-123.0040724
0
LINE
8
0
10
137.3391795
20
-123.0040724
11
137.3391795
21
-137.0040724
0
LINE
8
0
10
137.3391795
20
-119.2540724
11
151.3391795
21
-119.2540724
0
LINE
8
0
10
151.3391795
20
-119.2540724
11
151.3391795
21
-105.2540724
0
LINE
8
0
10
151.3391795
20
-105.2540724
11
137.3391795
21
-105.2540724
0
LINE
8
0
10
137.3391795
20
-105.2540724
11
137.3391795
21
-119.2540724
0
LINE
8
0
10
137.3391795
20
-101.5040724
11
151.3391795
21
-101.5040724
0
LINE
8
0
10
151.3391795
20
-101.5040724
11
151.3391795
21
-87.5040724
0
LINE
8
0
10
151.3391795
20
-87.5040724
11
137.3391795
21
-87.5040724
0
LINE
8
0
10
137.3391795
20
-87.5040724
11
137.3391795
21
-101.5040724
0
LINE
8
0
10
137.3391795
20
-83.7540724
11
151.3391795
21
-83.7540724
0
LINE
8
0
10
151.3391795
20
-83.7540724
11
151.3391795
21
-69.7540724
0
LINE
8
0
10
151.3391795
20
-69.7540724
11
137.3391795
21
-69.7540724
0
LINE
8
0
10
137.3391795
20
-69.7540724
11
137.3391795
21
-83.7540724
0
LINE
8
0
10
136.7557264
20
-161.6173451
11
150.7024522
21
-162.8375255
0
LINE
8
0
10
150.7024522
20
-162.8375255
11
151.9226326
21
-148.8907997
0
LINE
8
0
10
151.9226326
20
-148.8907997
11
137.9759068
21
-147.6706193
0
LINE
8
0
10
137.9759068
20
-147.6706193
11
136.7557264
21
-161.6173451
0
LINE
8
0
10
156.5335315
20
-163.7774312
11
170.0564931
21
-167.4008978
0
LINE
8
0
10
170.0564931
20
-167.4008978
11
173.6799597
21
-153.8779362
0
LINE
8
0
10
173.6799597
20
-153.8779362
11
160.1569981
21
-150.2544696
0
LINE
8
0
10
160.1569981
20
-150.2544696
11
156.5335315
21
-163.7774312
0
LINE
8
0
10
175.8158202
20
-169.7720643
11
187.9401758
21
-176.7720643
0
LINE
8
0
10
187.9401758
20
-176.7720643
11
194.9401758
21
-164.6477087
0
LINE
8
0
10
194.9401758
20
-164.6477087
11
182.8158202
21
-157.6477087
0
LINE
8
0
10
182.8158202
20
-157.6477087
11
175.8158202
21
-169.7720643
0
LINE
8
0
10
156.5057264
20
-137.1173451
11
170.4524522
21
-138.3375255
0
LINE
8
0
10
170.4524522
20
-138.3375255
11
171.6726326
21
-124.3907997
0
LINE
8
0
10
171.6726326
20
-124.3907997
11
157.7259068
21
-123.1706193
0
LINE
8
0
10
157.7259068
20
-123.1706193
11
156.5057264
21
-137.1173451
0
LINE
8
0
10
175.5363855
20
-139.2120644
11
189.0593471
21
-142.835531
0
LINE
8
0
10
189.0593471
20
-142.835531
11
192.6828137
21
-129.3125694
0
LINE
8
0
10
192.6828137
20
-129.3125694
11
179.1598521
21
-125.6891028
0
LINE
8
0
10
179.1598521
20
-125.6891028
11
175.5363855
21
-139.2120644
0
ENDSEC
0
EOF