0
SECTION
2
HEADER
9
$INSUNITS
70
4
0
ENDSEC
0
SECTION
2
TABLES
0
TABLE
2
LTYPE
0
LTYPE
72
65
70
64
2
CONTINUOUS
3
______
73
0
40
0
0
ENDTAB
0
TABLE
2
LAYER
0
ENDTAB
0
ENDSEC
0
SECTION
2
ENTITIES
0
LINE
8
0
10
352.8608399
20
-68.2471698
11
370.5171855
21
-68.863743
0
LINE
8
0
10
372.4461682
20
-70.9323237
11
369.3750124
21
-158.8787164
0
LINE
8
0
10
367.3064317
20
-160.8076991
11
350.8778533
21
-160.2340005
0
LINE
8
0
10
349.8478781
20
-159.9056968
11
347.8396997
21
-158.5835945
0
LINE
8
0
10
346.7399255
20
-158.2540725
11
331.9895472
21
-158.2540725
0
LINE
8
0
10
330.8132038
20
-157.8715447
11
329.1151552
21
-156.6366003
0
LINE
8
0
10
327.9388118
20
-156.2540725
11
313.2395471
21
-156.2540725
0
LINE
8
0
10
312.0632037
20
-155.8715446
11
310.3651553
21
-154.6366003
0
LINE
8
0
10
309.1888119
20
-154.2540724
11
294.4895472
21
-154.2540724
0
LINE
8
0
10
293.3132038
20
-154.6366002
11
291.6151552
21
-155.8715446
0
LINE
8
0
10
290.4388118
20
-156.2540724
11
277.5459042
21
-156.2540724
0
LINE
8
0
10
275.5555405
20
-158.4501648
11
276.2972559
21
-165.9786747
0
LINE
8
0
10
274.4791172
20
-168.1673379
11
255.9709129
21
-169.7670689
0
LINE
8
0
10
255.6799705
20
-169.8140098
11
239.985645
21
-173.550127
0
LINE
8
0
10
239.4488124
20
-173.7637061
11
222.3811324
21
-183.6177358
0
LINE
8
0
10
219.6490816
20
-182.885685
11
207.8990816
21
-162.534088
0
LINE
8
0
10
208.6311324
20
-159.8020372
11
217.6652785
21
-154.5861705
0
LINE
8
0
10
218.585843
20
-152.2960587
11
211.7958718
21
-128.9284016
0
LINE
8
0
10
213.1987983
20
-126.4384889
11
229.8374211
21
-121.9801833
0
LINE
8
0
10
231.3186571
20
-120.1154308
11
231.3391795
21
-119.5040724
0
LINE
8
0
10
231.3391795
20
-119.5040724
11
231.3391795
21
-68.2540724
0
LINE
8
0
10
233.3391795
20
-66.2540724
11
271.6888118
21
-66.2540724
0
LINE
8
0
10
272.8651552
20
-65.8715446
11
274.5632038
21
-64.6366002
0
LINE
8
0
10
275.7395472
20
-64.2540724
11
290.4388118
21
-64.2540724
0
LINE
8
0
10
291.6151552
20
-63.8715446
11
293.3132038
21
-62.6366002
0
LINE
8
0
10
294.4895472
20
-62.2540724
11
309.1888119
21
-62.2540724
0
LINE
8
0
10
310.3651553
20
-62.6366003
11
312.0632037
21
-63.8715446
0
LINE
8
0
10
313.2395471
20
-64.2540725
11
327.9388118
21
-64.2540725
0
LINE
8
0
10
329.1151552
20
-64.6366003
11
330.8132038
21
-65.8715447
0
LINE
8
0
10
331.9895472
20
-66.2540725
11
346.9703056
21
-66.2540725
0
LINE
8
0
10
347.6837828
20
-66.385664
11
352.2171616
21
-68.1167966
0
ARC
8
0
10
370.4473865
20
-70.8625247
40
2
50
357.9999998
51
87.9999998
0
ARC
8
0
10
367.3762307
20
-158.8089174
40
2
50
267.9999998
51
357.9999998
0
ARC
8
0
10
350.9476523
20
-158.2352188
40
2
50
236.6407323
51
267.9999998
0
ARC
8
0
10
346.7399255
20
-160.2540725
40
2
50
56.6407323
51
90
0
ARC
8
0
10
331.9895472
20
-156.2540725
40
2
50
233.972627
51
270
0
ARC
8
0
10
327.9388118
20
-158.2540725
40
2
50
53.972627
51
90
0
ARC
8
0
10
313.2395471
20
-154.2540725
40
2
50
233.972627
51
270
0
ARC
8
0
10
309.1888119
20
-156.2540724
40
2
50
53.972627
51
90
0
ARC
8
0
10
294.4895472
20
-156.2540724
40
2
50
90
51
126.027373
0
ARC
8
0
10
290.4388118
20
-154.2540724
40
2
50
270
51
306.027373
0
ARC
8
0
10
277.5459042
20
-158.2540724
40
2
50
90
51
185.6266729
0
ARC
8
0
10
274.3068922
20
-166.1747671
40
2
50
274.9400011
51
5.6266729
0
ARC
8
0
10
256.1431379
20
-171.7596397
40
2
50
94.9400011
51
103.3903285
0
ARC
8
0
10
240.4488124
20
-175.4957569
40
2
50
103.3903285
51
120.0000001
0
ARC
8
0
10
221.3811324
20
-181.885685
40
2
50
210.0000001
51
300.0000001
0
ARC
8
0
10
209.6311324
20
-161.534088
40
2
50
120.0000001
51
210.0000001
0
ARC
8
0
10
216.6652785
20
-152.8541197
40
2
50
300.0000001
51
16.2023511
0
ARC
8
0
10
213.7164363
20
-128.3703406
40
2
50
104.9999979
51
196.2023511
0
ARC
8
0
10
229.319783
20
-120.0483316
40
2
50
284.9999979
51
358.0773888
0
ARC
8
0
10
233.3391795
20
-68.2540724
40
2
50
90
51
180
0
ARC
8
0
10
271.6888118
20
-64.2540724
40
2
50
270
51
306.027373
0
ARC
8
0
10
275.7395472
20
-66.2540724
40
2
50
90
51
126.027373
0
ARC
8
0
10
290.4388118
20
-62.2540724
40
2
50
270
51
306.027373
0
ARC
8
0
10
294.4895472
20
-64.2540724
40
2
50
90
51
126.027373
0
ARC
8
0
10
309.1888119
20
-64.2540724
40
2
50
53.972627
51
90
0
ARC
8
0
10
313.2395471
20
-62.2540725
40
2
50
233.972627
51
270
0
ARC
8
0
10
327.9388118
20
-66.2540725
40
2
50
53.972627
51
90
0
ARC
8
0
10
331.9895472
20
-64.2540725
40
2
50
233.972627
51
270
0
ARC
8
0
10
346.9703056
20
-68.2540725
40
2
50
69.0999622
51
90
0
ARC
8
0
10
352.9306389
20
-66.2483881
40
2
50
249.0999622
51
267.9999998
0
LINE
8
0
10
351.4383267
20
-156.7514393
11
365.4297983
21
-157.2400323
0
LINE
8
0
10
365.4297983
20
-157.2400323
11
365.9183913
21
-143.2485607
0
LINE
8
0
10
365.9183913
20
-143.2485607
11
351.9269197
21
-142.7599677
0
LINE
8
0
10
351.9269197
20
-142.7599677
11
351.4383267
21
-156.7514393
0
LINE
8
0
10
352.0577928
20
-139.0122521
11
366.0492644
21
-139.5008451
0
LINE
8
0
10
366.0492644
20
-139.5008451
11
366.5378574
21
-125.5093735
0
LINE
8
0
10
366.5378574
20
-125.5093735
11
352.5463858
21
-125.0207805
0
LINE
8
0
10
352.5463858
20
-125.0207805
11
352.0577928
21
-139.0122521
0
LINE
8
0
10
352.6772589
20
-121.2730649
11
366.6687305
21
-121.7616579
0
LINE
8
0
10
366.6687305
20
-121.7616579
11
367.1573235
21
-107.7701863
0
LINE
8
0
10
367.1573235
20
-107.7701863
11
353.1658519
21
-107.2815933
0
LINE
8
0
10
353.1658519
20
-107.2815933
11
352.6772589
21
-121.2730649
0
LINE
8
0
10
353.296725
20
-103.5338777
11
367.2881966
21
-104.0224707
0
LINE
8
0
10
367.2881966
20
-104.0224707
11
367.7767896
21
-90.0309991
0
LINE
8
0
10
367.7767896
20
-90.0309991
11
353.785318
21
-89.5424061
0
LINE
8
0
10
353.785318
20
-89.5424061
11
353.296725
21
-103.5338777
0
LINE
8
0
10
353.9161911
20
-85.7946905
11
367.9076627
21
-86.2832835
0
LINE
8
0
10
367.9076627
20
-86.2832835
11
368.3962557
21
-72.2918119
0
LINE
8
0
10
368.3962557
20
-72.2918119
11
354.4047841
21
-71.8032189
0
LINE
8
0
10
354.4047841
20
-71.8032189
11
353.9161911
21
-85.7946905
0
LINE
8
0
10
332.3391795
20
-154.7540725
11
346.3391795
21
-154.7540725
0
LINE
8
0
10
346.3391795
20
-154.7540725
11
346.3391795
21
-140.7540725
0
LINE
8
0
10
346.3391795
20
-140.7540725
11
332.3391795
21
-140.7540725
0
LINE
8
0
10
332.3391795
20
-140.7540725
11
332.3391795
21
-154.7540725
0
LINE
8
0
10
332.3391795
20
-137.0040725
11
346.3391795
21
-137.0040725
0
LINE
8
0
10
346.3391795
20
-137.0040725
11
346.3391795
21
-123.0040725
0
LINE
8
0
10
346.3391795
20
-123.0040725
11
332.3391795
21
-123.0040725
0
LINE
8
0
10
332.3391795
20
-123.0040725
11
332.3391795
21
-137.0040725
0
LINE
8
0
10
332.3391795
20
-119.2540725
11
346.3391795
21
-119.2540725
0
LINE
8
0
10
346.3391795
20
-119.2540725
11
346.3391795
21
-105.2540725
0
LINE
8
0
10
346.3391795
20
-105.2540725
11
332.3391795
21
-105.2540725
0
LINE
8
0
10
332.3391795
20
-105.2540725
11
332.3391795
21
-119.2540725
0
LINE
8
0
10
332.3391795
20
-101.5040725
11
346.3391795
21
-101.5040725
0
LINE
8
0
10
346.3391795
20
-101.5040725
11
346.3391795
21
-87.5040725
0
LINE
8
0
10
346.3391795
20
-87.5040725
11
332.3391795
21
-87.5040725
0
LINE
8
0
10
332.3391795
20
-87.5040725
11
332.3391795
21
-101.5040725
0
LINE
8
0
10
332.3391795
20
-83.7540725
11
346.3391795
21
-83.7540725
0
LINE
8
0
10
346.3391795
20
-83.7540725
11
346.3391795
21
-69.7540725
0
LINE
8
0
10
346.3391795
20
-69.7540725
11
332.3391795
21
-69.7540725
0
LINE
8
0
10
332.3391795
20
-69.7540725
11
332.3391795
21
-83.7540725
0
LINE
8
0
10
313.5891795
20
-152.7540725
11
327.5891795
21
-152.7540725
0
LINE
8
0
10
327.5891795
20
-152.7540725
11
327.5891795
21
-138.7540725
0
LINE
8
0
10
327.5891795
20
-138.7540725
11
313.5891795
21
-138.7540725
0
LINE
8
0
10
313.5891795
20
-138.7540725
11
313.5891795
21
-152.7540725
0
LINE
8
0
10
313.5891795
20
-135.0040725
11
327.5891795
21
-135.0040725
0
LINE
8
0
10
327.5891795
20
-135.0040725
11
327.5891795
21
-121.0040725
0
LINE
8
0
10
327.5891795
20
-121.0040725
11
313.5891795
21
-121.0040725
0
LINE
8
0
10
313.5891795
20
-121.0040725
11
313.5891795
21
-135.0040725
0
LINE
8
0
10
313.5891795
20
-117.2540725
11
327.5891795
21
-117.2540725
0
LINE
8
0
10
327.5891795
20
-117.2540725
11
327.5891795
21
-103.2540725
0
LINE
8
0
10
327.5891795
20
-103.2540725
11
313.5891795
21
-103.2540725
0
LINE
8
0
10
313.5891795
20
-103.2540725
11
313.5891795
21
-117.2540725
0
LINE
8
0
10
313.5891795
20
-99.5040725
11
327.5891795
21
-99.5040725
0
LINE
8
0
10
327.5891795
20
-99.5040725
11
327.5891795
21
-85.5040725
0
LINE
8
0
10
327.5891795
20
-85.5040725
11
313.5891795
21
-85.5040725
0
LINE
8
0
10
313.5891795
20
-85.5040725
11
313.5891795
21
-99.5040725
0
LINE
8
0
10
313.5891795
20
-81.7540725
11
327.5891795
21
-81.7540725
0
LINE
8
0
10
327.5891795
20
-81.7540725
11
327.5891795
21
-67.7540725
0
LINE
8
0
10
327.5891795
20
-67.7540725
11
313.5891795
21
-67.7540725
0
LINE
8
0
10
313.5891795
20
-67.7540725
11
313.5891795
21
-81.7540725
0
LINE
8
0
10
294.8391795
20
-150.7540724
11
308.8391795
21
-150.7540724
0
LINE
8
0
10
308.8391795
20
-150.7540724
11
308.8391795
21
-136.7540724
0
LINE
8
0
10
308.8391795
20
-136.7540724
11
294.8391795
21
-136.7540724
0
LINE
8
0
10
294.8391795
20
-136.7540724
11
294.8391795
21
-150.7540724
0
LINE
8
0
10
294.8391795
20
-133.0040724
11
308.8391795
21
-133.0040724
0
LINE
8
0
10
308.8391795
20
-133.0040724
11
308.8391795
21
-119.0040724
0
LINE
8
0
10
308.8391795
20
-119.0040724
11
294.8391795
21
-119.0040724
0
LINE
8
0
10
294.8391795
20
-119.0040724
11
294.8391795
21
-133.0040724
0
LINE
8
0
10
294.8391795
20
-115.2540724
11
308.8391795
21
-115.2540724
0
LINE
8
0
10
308.8391795
20
-115.2540724
11
308.8391795
21
-101.2540724
0
LINE
8
0
10
308.8391795
20
-101.2540724
11
294.8391795
21
-101.2540724
0
LINE
8
0
10
294.8391795
20
-101.2540724
11
294.8391795
21
-115.2540724
0
LINE
8
0
10
294.8391795
20
-97.5040724
11
308.8391795
21
-97.5040724
0
LINE
8
0
10
308.8391795
20
-97.5040724
11
308.8391795
21
-83.5040724
0
LINE
8
0
10
308.8391795
20
-83.5040724
11
294.8391795
21
-83.5040724
0
LINE
8
0
10
294.8391795
20
-83.5040724
11
294.8391795
21
-97.5040724
0
LINE
8
0
10
294.8391795
20
-79.7540724
11
308.8391795
21
-79.7540724
0
LINE
8
0
10
308.8391795
20
-79.7540724
11
308.8391795
21
-65.7540724
0
LINE
8
0
10
308.8391795
20
-65.7540724
11
294.8391795
21
-65.7540724
0
LINE
8
0
10
294.8391795
20
-65.7540724
11
294.8391795
21
-79.7540724
0
LINE
8
0
10
276.0891795
20
-152.7540724
11
290.0891795
21
-152.7540724
0
LINE
8
0
10
290.0891795
20
-152.7540724
11
290.0891795
21
-138.7540724
0
LINE
8
0
10
290.0891795
20
-138.7540724
11
276.0891795
21
-138.7540724
0
LINE
8
0
10
276.0891795
20
-138.7540724
11
276.0891795
21
-152.7540724
0
LINE
8
0
10
276.0891795
20
-135.0040724
11
290.0891795
21
-135.0040724
0
LINE
8
0
10
290.0891795
20
-135.0040724
11
290.0891795
21
-121.0040724
0
LINE
8
0
10
290.0891795
20
-121.0040724
11
276.0891795
21
-121.0040724
0
LINE
8
0
10
276.0891795
20
-121.0040724
11
276.0891795
21
-135.0040724
0
LINE
8
0
10
276.0891795
20
-117.2540724
11
290.0891795
21
-117.2540724
0
LINE
8
0
10
290.0891795
20
-117.2540724
11
290.0891795
21
-103.2540724
0
LINE
8
0
10
290.0891795
20
-103.2540724
11
276.0891795
21
-103.2540724
0
LINE
8
0
10
276.0891795
20
-103.2540724
11
276.0891795
21
-117.2540724
0
LINE
8
0
10
276.0891795
20
-99.5040724
11
290.0891795
21
-99.5040724
0
LINE
8
0
10
290.0891795
20
-99.5040724
11
290.0891795
21
-85.5040724
0
LINE
8
0
10
290.0891795
20
-85.5040724
11
276.0891795
21
-85.5040724
0
LINE
8
0
10
276.0891795
20
-85.5040724
11
276.0891795
21
-99.5040724
0
LINE
8
0
10
276.0891795
20
-81.7540724
11
290.0891795
21
-81.7540724
0
LINE
8
0
10
290.0891795
20
-81.7540724
11
290.0891795
21
-67.7540724
0
LINE
8
0
10
290.0891795
20
-67.7540724
11
276.0891795
21
-67.7540724
0
LINE
8
0
10
276.0891795
20
-67.7540724
11
276.0891795
21
-81.7540724
0
LINE
8
0
10
257.3391795
20
-137.0040724
11
271.3391795
21
-137.0040724
0
LINE
8
0
10
271.3391795
20
-137.0040724
11
271.3391795
21
-123.0040724
0
LINE
8
0
10
271.3391795
20
-123.0040724
11
257.3391795
21
-123.0040724
0
LINE
8
0
10
257.3391795
20
-123.0040724
11
257.3391795
21
-137.0040724
0
LINE
8
0
10
257.3391795
20
-119.2540724
11
271.3391795
21
-119.2540724
0
LINE
8
0
10
271.3391795
20
-119.2540724
11
271.3391795
21
-105.2540724
0
LINE
8
0
10
271.3391795
20
-105.2540724
11
257.3391795
21
-105.2540724
0
LINE
8
0
10
257.3391795
20
-105.2540724
11
257.3391795
21
-119.2540724
0
LINE
8
0
10
257.3391795
20
-101.5040724
11
271.3391795
21
-101.5040724
0
LINE
8
0
10
271.3391795
20
-101.5040724
11
271.3391795
21
-87.5040724
0
LINE
8
0
10
271.3391795
20
-87.5040724
11
257.3391795
21
-87.5040724
0
LINE
8
0
10
257.3391795
20
-87.5040724
11
257.3391795
21
-101.5040724
0
LINE
8
0
10
257.3391795
20
-83.7540724
11
271.3391795
21
-83.7540724
0
LINE
8
0
10
271.3391795
20
-83.7540724
11
271.3391795
21
-69.7540724
0
LINE
8
0
10
271.3391795
20
-69.7540724
11
257.3391795
21
-69.7540724
0
LINE
8
0
10
257.3391795
20
-69.7540724
11
257.3391795
21
-83.7540724
0
LINE
8
0
10
257.9759068
20
-162.8375255
11
271.9226326
21
-161.6173451
0
LINE
8
0
10
271.9226326
20
-161.6173451
11
270.7024522
21
-147.6706193
0
LINE
8
0
10
270.7024522
20
-147.6706193
11
256.7557264
21
-148.8907997
0
LINE
8
0
10
256.7557264
20
-148.8907997
11
257.9759068
21
-162.8375255
0
LINE
8
0
10
238.6218659
20
-167.4008978
11
252.1448275
21
-163.7774312
0
LINE
8
0
10
252.1448275
20
-163.7774312
11
248.5213609
21
-150.2544696
0
LINE
8
0
10
248.5213609
20
-150.2544696
11
234.9983993
21
-153.8779362
0
LINE
8
0
10
234.9983993
20
-153.8779362
11
238.6218659
21
-167.4008978
0
LINE
8
0
10
220.7381832
20
-176.7720643
11
232.8625388
21
-169.7720643
0
LINE
8
0
10
232.8625388
20
-169.7720643
11
225.8625388
21
-157.6477087
0
LINE
8
0
10
225.8625388
20
-157.6477087
11
213.7381832
21
-164.6477087
0
LINE
8
0
10
213.7381832
20
-164.6477087
11
220.7381832
21
-176.7720643
0
LINE
8
0
10
238.2259068
20
-138.3375255
11
252.1726326
21
-137.1173451
0
LINE
8
0
10
252.1726326
20
-137.1173451
11
250.9524522
21
-123.1706193
0
LINE
8
0
10
250.9524522
20
-123.1706193
11
237.0057264
21
-124.3907997
0
LINE
8
0
10
237.0057264
20
-124.3907997
11
238.2259068
21
-138.3375255
0
LINE
8
0
10
219.6190119
20
-142.835531
11
233.1419735
21
-139.2120644
0
LINE
8
0
10
233.1419735
20
-139.2120644
11
229.5185069
21
-125.6891028
0
LINE
8
0
10
229.5185069
20
-125.6891028
11
215.9955453
21
-129.3125694
0
LINE
8
0
10
215.9955453
20
-129.3125694
11
219.6190119
21
-142.835531
0
ENDSEC
0
EOF