0
SECTION
2
HEADER
9
$INSUNITS
70
4
0
ENDSEC
0
SECTION
2
TABLES
0
TABLE
2
LTYPE
0
LTYPE
72
65
70
64
2
CONTINUOUS
3
______
73
0
40
0
0
ENDTAB
0
TABLE
2
LAYER
0
ENDTAB
0
ENDSEC
0
SECTION
2
ENTITIES
0
LINE
8
0
10
55.8175191
20
-68.2471698
11
38.1611735
21
-68.863743
0
LINE
8
0
10
36.2321908
20
-70.9323237
11
39.3033466
21
-158.8787164
0
LINE
8
0
10
41.3719273
20
-160.8076991
11
57.8005057
21
-160.2340005
0
LINE
8
0
10
58.8304809
20
-159.9056968
11
60.8386593
21
-158.5835945
0
LINE
8
0
10
61.9384335
20
-158.2540725
11
76.6888118
21
-158.2540725
0
LINE
8
0
10
77.8651552
20
-157.8715447
11
79.5632038
21
-156.6366003
0
LINE
8
0
10
80.7395472
20
-156.2540725
11
95.4388119
21
-156.2540725
0
LINE
8
0
10
96.6151553
20
-155.8715446
11
98.3126448
21
-154.6370068
0
LINE
8
0
10
99.4902381
20
-154.2544793
11
114.1921359
21
-154.263668
0
LINE
8
0
10
115.3633723
20
-154.6433974
11
117.0644273
21
-155.8743426
0
LINE
8
0
10
118.2369137
20
-156.2540724
11
131.1324548
21
-156.2540724
0
LINE
8
0
10
133.1228185
20
-158.4501648
11
132.3811031
21
-165.9786747
0
LINE
8
0
10
134.1992418
20
-168.1673379
11
152.7074461
21
-169.7670689
0
LINE
8
0
10
152.9983885
20
-169.8140098
11
168.692714
21
-173.550127
0
LINE
8
0
10
169.2295466
20
-173.7637061
11
186.2972266
21
-183.6177358
0
LINE
8
0
10
189.0292774
20
-182.885685
11
200.7792774
21
-162.534088
0
LINE
8
0
10
200.0472266
20
-159.8020372
11
191.0130805
21
-154.5861705
0
LINE
8
0
10
190.092516
20
-152.2960587
11
196.8824872
21
-128.9284016
0
LINE
8
0
10
195.4795607
20
-126.4384889
11
178.8409379
21
-121.9801833
0
LINE
8
0
10
177.3597019
20
-120.1154308
11
177.3391795
21
-119.5040724
0
LINE
8
0
10
177.3391795
20
-119.5040724
11
177.3391795
21
-68.2540724
0
LINE
8
0
10
175.3391795
20
-66.2540724
11
136.9895472
21
-66.2540724
0
LINE
8
0
10
135.8132038
20
-65.8715446
11
134.1151552
21
-64.6366002
0
LINE
8
0
10
132.9388118
20
-64.2540724
11
118.2395472
21
-64.2540724
0
LINE
8
0
10
117.0632038
20
-63.8715446
11
115.3651552
21
-62.6366002
0
LINE
8
0
10
114.1888118
20
-62.2540724
11
99.4895471
21
-62.2540724
0
LINE
8
0
10
98.3132037
20
-62.6366003
11
96.6151553
21
-63.8715446
0
LINE
8
0
10
95.4388119
20
-64.2540725
11
80.7395472
21
-64.2540725
0
LINE
8
0
10
79.5632038
20
-64.6366003
11
77.8651552
21
-65.8715447
0
LINE
8
0
10
76.6888118
20
-66.2540725
11
61.7080534
21
-66.2540725
0
LINE
8
0
10
60.9945762
20
-66.385664
11
56.4611974
21
-68.1167966
0
ARC
8
0
10
38.2309725
20
-70.8625247
40
2
50
92.0000002
51
182.0000002
0
ARC
8
0
10
41.3021283
20
-158.8089174
40
2
50
182.0000002
51
272.0000002
0
ARC
8
0
10
57.7307067
20
-158.2352188
40
2
50
272.0000002
51
303.3592677
0
ARC
8
0
10
61.9384335
20
-160.2540725
40
2
50
90
51
123.3592677
0
ARC
8
0
10
76.6888118
20
-156.2540725
40
2
50
270
51
306.027373
0
ARC
8
0
10
80.7395472
20
-158.2540725
40
2
50
90
51
126.027373
0
ARC
8
0
10
95.4388119
20
-154.2540725
40
2
50
270
51
306.027373
0
ARC
8
0
10
99.4889881
20
-156.2544789
40
2
50
89.9641901
51
126.027373
0
ARC
8
0
10
114.1908859
20
-156.2636676
40
2
50
54.1091343
51
89.9641901
0
ARC
8
0
10
118.2369137
20
-154.2540724
40
2
50
234.1091343
51
270
0
ARC
8
0
10
131.1324548
20
-158.2540724
40
2
50
354.3733271
51
90
0
ARC
8
0
10
134.3714668
20
-166.1747671
40
2
50
174.3733271
51
265.0599989
0
ARC
8
0
10
152.5352211
20
-171.7596397
40
2
50
76.6096715
51
85.0599989
0
ARC
8
0
10
168.2295466
20
-175.4957569
40
2
50
59.9999999
51
76.6096715
0
ARC
8
0
10
187.2972266
20
-181.885685
40
2
50
239.9999999
51
329.9999999
0
ARC
8
0
10
199.0472266
20
-161.534088
40
2
50
329.9999999
51
59.9999999
0
ARC
8
0
10
192.0130805
20
-152.8541197
40
2
50
163.7976489
51
239.9999999
0
ARC
8
0
10
194.9619227
20
-128.3703406
40
2
50
343.7976489
51
75.0000021
0
ARC
8
0
10
179.358576
20
-120.0483316
40
2
50
181.9226112
51
255.0000021
0
ARC
8
0
10
175.3391795
20
-68.2540724
40
2
50
0
51
90
0
ARC
8
0
10
136.9895472
20
-64.2540724
40
2
50
233.972627
51
270
0
ARC
8
0
10
132.9388118
20
-66.2540724
40
2
50
53.972627
51
90
0
ARC
8
0
10
118.2395472
20
-62.2540724
40
2
50
233.972627
51
270
0
ARC
8
0
10
114.1888118
20
-64.2540724
40
2
50
53.972627
51
90
0
ARC
8
0
10
99.4895471
20
-64.2540724
40
2
50
90
51
126.027373
0
ARC
8
0
10
95.4388119
20
-62.2540725
40
2
50
270
51
306.027373
0
ARC
8
0
10
80.7395472
20
-66.2540725
40
2
50
90
51
126.027373
0
ARC
8
0
10
76.6888118
20
-64.2540725
40
2
50
270
51
306.027373
0
ARC
8
0
10
61.7080534
20
-68.2540725
40
2
50
90
51
110.9000378
0
ARC
8
0
10
55.7477201
20
-66.2483881
40
2
50
272.0000002
51
290.9000378
0
LINE
8
0
10
43.2485607
20
-157.2400323
11
57.2400323
21
-156.7514393
0
LINE
8
0
10
57.2400323
20
-156.7514393
11
56.7514393
21
-142.7599677
0
LINE
8
0
10
56.7514393
20
-142.7599677
11
42.7599677
21
-143.2485607
0
LINE
8
0
10
42.7599677
20
-143.2485607
11
43.2485607
21
-157.2400323
0
LINE
8
0
10
42.6290946
20
-139.5008451
11
56.6205662
21
-139.0122521
0
LINE
8
0
10
56.6205662
20
-139.0122521
11
56.1319732
21
-125.0207805
0
LINE
8
0
10
56.1319732
20
-125.0207805
11
42.1405016
21
-125.5093735
0
LINE
8
0
10
42.1405016
20
-125.5093735
11
42.6290946
21
-139.5008451
0
LINE
8
0
10
42.0096285
20
-121.7616579
11
56.0011001
21
-121.2730649
0
LINE
8
0
10
56.0011001
20
-121.2730649
11
55.5125071
21
-107.2815933
0
LINE
8
0
10
55.5125071
20
-107.2815933
11
41.5210355
21
-107.7701863
0
LINE
8
0
10
41.5210355
20
-107.7701863
11
42.0096285
21
-121.7616579
0
LINE
8
0
10
41.3901624
20
-104.0224707
11
55.381634
21
-103.5338777
0
LINE
8
0
10
55.381634
20
-103.5338777
11
54.893041
21
-89.5424061
0
LINE
8
0
10
54.893041
20
-89.5424061
11
40.9015694
21
-90.0309991
0
LINE
8
0
10
40.9015694
20
-90.0309991
11
41.3901624
21
-104.0224707
0
LINE
8
0
10
40.7706963
20
-86.2832835
11
54.7621679
21
-85.7946905
0
LINE
8
0
10
54.7621679
20
-85.7946905
11
54.2735749
21
-71.8032189
0
LINE
8
0
10
54.2735749
20
-71.8032189
11
40.2821033
21
-72.2918119
0
LINE
8
0
10
40.2821033
20
-72.2918119
11
40.7706963
21
-86.2832835
0
LINE
8
0
10
62.3391795
20
-154.7540725
11
76.3391795
21
-154.7540725
0
LINE
8
0
10
76.3391795
20
-154.7540725
11
76.3391795
21
-140.7540725
0
LINE
8
0
10
76.3391795
20
-140.7540725
11
62.3391795
21
-140.7540725
0
LINE
8
0
10
62.3391795
20
-140.7540725
11
62.3391795
21
-154.7540725
0
LINE
8
0
10
62.3391795
20
-137.0040725
11
76.3391795
21
-137.0040725
0
LINE
8
0
10
76.3391795
20
-137.0040725
11
76.3391795
21
-123.0040725
0
LINE
8
0
10
76.3391795
20
-123.0040725
11
62.3391795
21
-123.0040725
0
LINE
8
0
10
62.3391795
20
-123.0040725
11
62.3391795
21
-137.0040725
0
LINE
8
0
10
62.3391795
20
-119.2540725
11
76.3391795
21
-119.2540725
0
LINE
8
0
10
76.3391795
20
-119.2540725
11
76.3391795
21
-105.2540725
0
LINE
8
0
10
76.3391795
20
-105.2540725
11
62.3391795
21
-105.2540725
0
LINE
8
0
10
62.3391795
20
-105.2540725
11
62.3391795
21
-119.2540725
0
LINE
8
0
10
62.3391795
20
-101.5040725
11
76.3391795
21
-101.5040725
0
LINE
8
0
10
76.3391795
20
-101.5040725
11
76.3391795
21
-87.5040725
0
LINE
8
0
10
76.3391795
20
-87.5040725
11
62.3391795
21
-87.5040725
0
LINE
8
0
10
62.3391795
20
-87.5040725
11
62.3391795
21
-101.5040725
0
LINE
8
0
10
62.3391795
20
-83.7540725
11
76.3391795
21
-83.7540725
0
LINE
8
0
10
76.3391795
20
-83.7540725
11
76.3391795
21
-69.7540725
0
LINE
8
0
10
76.3391795
20
-69.7540725
11
62.3391795
21
-69.7540725
0
LINE
8
0
10
62.3391795
20
-69.7540725
11
62.3391795
21
-83.7540725
0
LINE
8
0
10
81.0891795
20
-152.7540725
11
95.0891795
21
-152.7540725
0
LINE
8
0
10
95.0891795
20
-152.7540725
11
95.0891795
21
-138.7540725
0
LINE
8
0
10
95.0891795
20
-138.7540725
11
81.0891795
21
-138.7540725
0
LINE
8
0
10
81.0891795
20
-138.7540725
11
81.0891795
21
-152.7540725
0
LINE
8
0
10
81.0891795
20
-135.0040725
11
95.0891795
21
-135.0040725
0
LINE
8
0
10
95.0891795
20
-135.0040725
11
95.0891795
21
-121.0040725
0
LINE
8
0
10
95.0891795
20
-121.0040725
11
81.0891795
21
-121.0040725
0
LINE
8
0
10
81.0891795
20
-121.0040725
11
81.0891795
21
-135.0040725
0
LINE
8
0
10
81.0891795
20
-117.2540725
11
95.0891795
21
-117.2540725
0
LINE
8
0
10
95.0891795
20
-117.2540725
11
95.0891795
21
-103.2540725
0
LINE
8
0
10
95.0891795
20
-103.2540725
11
81.0891795
21
-103.2540725
0
LINE
8
0
10
81.0891795
20
-103.2540725
11
81.0891795
21
-117.2540725
0
LINE
8
0
10
81.0891795
20
-99.5040725
11
95.0891795
21
-99.5040725
0
LINE
8
0
10
95.0891795
20
-99.5040725
11
95.0891795
21
-85.5040725
0
LINE
8
0
10
95.0891795
20
-85.5040725
11
81.0891795
21
-85.5040725
0
LINE
8
0
10
81.0891795
20
-85.5040725
11
81.0891795
21
-99.5040725
0
LINE
8
0
10
81.0891795
20
-81.7540725
11
95.0891795
21
-81.7540725
0
LINE
8
0
10
95.0891795
20
-81.7540725
11
95.0891795
21
-67.7540725
0
LINE
8
0
10
95.0891795
20
-67.7540725
11
81.0891795
21
-67.7540725
0
LINE
8
0
10
81.0891795
20
-67.7540725
11
81.0891795
21
-81.7540725
0
LINE
8
0
10
99.8391795
20
-150.7540724
11
113.8391795
21
-150.7540724
0
LINE
8
0
10
113.8391795
20
-150.7540724
11
113.8391795
21
-136.7540724
0
LINE
8
0
10
113.8391795
20
-136.7540724
11
99.8391795
21
-136.7540724
0
LINE
8
0
10
99.8391795
20
-136.7540724
11
99.8391795
21
-150.7540724
0
LINE
8
0
10
99.8391795
20
-133.0040724
11
113.8391795
21
-133.0040724
0
LINE
8
0
10
113.8391795
20
-133.0040724
11
113.8391795
21
-119.0040724
0
LINE
8
0
10
113.8391795
20
-119.0040724
11
99.8391795
21
-119.0040724
0
LINE
8
0
10
99.8391795
20
-119.0040724
11
99.8391795
21
-133.0040724
0
LINE
8
0
10
99.8391795
20
-115.2540724
11
113.8391795
21
-115.2540724
0
LINE
8
0
10
113.8391795
20
-115.2540724
11
113.8391795
21
-101.2540724
0
LINE
8
0
10
113.8391795
20
-101.2540724
11
99.8391795
21
-101.2540724
0
LINE
8
0
10
99.8391795
20
-101.2540724
11
99.8391795
21
-115.2540724
0
LINE
8
0
10
99.8391795
20
-97.5040724
11
113.8391795
21
-97.5040724
0
LINE
8
0
10
113.8391795
20
-97.5040724
11
113.8391795
21
-83.5040724
0
LINE
8
0
10
113.8391795
20
-83.5040724
11
99.8391795
21
-83.5040724
0
LINE
8
0
10
99.8391795
20
-83.5040724
11
99.8391795
21
-97.5040724
0
LINE
8
0
10
99.8391795
20
-79.7540724
11
113.8391795
21
-79.7540724
0
LINE
8
0
10
113.8391795
20
-79.7540724
11
113.8391795
21
-65.7540724
0
LINE
8
0
10
113.8391795
20
-65.7540724
11
99.8391795
21
-65.7540724
0
LINE
8
0
10
99.8391795
20
-65.7540724
11
99.8391795
21
-79.7540724
0
LINE
8
0
10
118.5891795
20
-152.7540724
11
132.5891795
21
-152.7540724
0
LINE
8
0
10
132.5891795
20
-152.7540724
11
132.5891795
21
-138.7540724
0
LINE
8
0
10
132.5891795
20
-138.7540724
11
118.5891795
21
-138.7540724
0
LINE
8
0
10
118.5891795
20
-138.7540724
11
118.5891795
21
-152.7540724
0
LINE
8
0
10
118.5891795
20
-135.0040724
11
132.5891795
21
-135.0040724
0
LINE
8
0
10
132.5891795
20
-135.0040724
11
132.5891795
21
-121.0040724
0
LINE
8
0
10
132.5891795
20
-121.0040724
11
118.5891795
21
-121.0040724
0
LINE
8
0
10
118.5891795
20
-121.0040724
11
118.5891795
21
-135.0040724
0
LINE
8
0
10
118.5891795
20
-117.2540724
11
132.5891795
21
-117.2540724
0
LINE
8
0
10
132.5891795
20
-117.2540724
11
132.5891795
21
-103.2540724
0
LINE
8
0
10
132.5891795
20
-103.2540724
11
118.5891795
21
-103.2540724
0
LINE
8
0
10
118.5891795
20
-103.2540724
11
118.5891795
21
-117.2540724
0
LINE
8
0
10
118.5891795
20
-99.5040724
11
132.5891795
21
-99.5040724
0
LINE
8
0
10
132.5891795
20
-99.5040724
11
132.5891795
21
-85.5040724
0
LINE
8
0
10
132.5891795
20
-85.5040724
11
118.5891795
21
-85.5040724
0
LINE
8
0
10
118.5891795
20
-85.5040724
11
118.5891795
21
-99.5040724
0
LINE
8
0
10
118.5891795
20
-81.7540724
11
132.5891795
21
-81.7540724
0
LINE
8
0
10
132.5891795
20
-81.7540724
11
132.5891795
21
-67.7540724
0
LINE
8
0
10
132.5891795
20
-67.7540724
11
118.5891795
21
-67.7540724
0
LINE
8
0
10
118.5891795
20
-67.7540724
11
118.5891795
21
-81.7540724
0
LINE
8
0
10
137.3391795
20
-137.0040724
11
151.3391795
21
-137.0040724
0
LINE
8
0
10
151.3391795
20
-137.0040724
11
151.3391795
21
-123.0040724
0
LINE
8
0
10
151.3391795
20
-123.0040724
11
137.3391795
21
-123.0040724
0
LINE
8
0
10
137.3391795
20
-123.0040724
11
137.3391795
21
-137.0040724
0
LINE
8
0
10
137.3391795
20
-119.2540724
11
151.3391795
21
-119.2540724
0
LINE
8
0
10
151.3391795
20
-119.2540724
11
151.3391795
21
-105.2540724
0
LINE
8
0
10
151.3391795
20
-105.2540724
11
137.3391795
21
-105.2540724
0
LINE
8
0
10
137.3391795
20
-105.2540724
11
137.3391795
21
-119.2540724
0
LINE
8
0
10
137.3391795
20
-101.5040724
11
151.3391795
21
-101.5040724
0
LINE
8
0
10
151.3391795
20
-101.5040724
11
151.3391795
21
-87.5040724
0
LINE
8
0
10
151.3391795
20
-87.5040724
11
137.3391795
21
-87.5040724
0
LINE
8
0
10
137.3391795
20
-87.5040724
11
137.3391795
21
-101.5040724
0
LINE
8
0
10
137.3391795
20
-83.7540724
11
151.3391795
21
-83.7540724
0
LINE
8
0
10
151.3391795
20
-83.7540724
11
151.3391795
21
-69.7540724
0
LINE
8
0
10
151.3391795
20
-69.7540724
11
137.3391795
21
-69.7540724
0
LINE
8
0
10
137.3391795
20
-69.7540724
11
137.3391795
21
-83.7540724
0
LINE
8
0
10
136.7557264
20
-161.6173451
11
150.7024522
21
-162.8375255
0
LINE
8
0
10
150.7024522
20
-162.8375255
11
151.9226326
21
-148.8907997
0
LINE
8
0
10
151.9226326
20
-148.8907997
11
137.9759068
21
-147.6706193
0
LINE
8
0
10
137.9759068
20
-147.6706193
11
136.7557264
21
-161.6173451
0
LINE
8
0
10
156.5335315
20
-163.7774312
11
170.0564931
21
-167.4008978
0
LINE
8
0
10
170.0564931
20
-167.4008978
11
173.6799597
21
-153.8779362
0
LINE
8
0
10
173.6799597
20
-153.8779362
11
160.1569981
21
-150.2544696
0
LINE
8
0
10
160.1569981
20
-150.2544696
11
156.5335315
21
-163.7774312
0
LINE
8
0
10
175.8158202
20
-169.7720643
11
187.9401758
21
-176.7720643
0
LINE
8
0
10
187.9401758
20
-176.7720643
11
194.9401758
21
-164.6477087
0
LINE
8
0
10
194.9401758
20
-164.6477087
11
182.8158202
21
-157.6477087
0
LINE
8
0
10
182.8158202
20
-157.6477087
11
175.8158202
21
-169.7720643
0
LINE
8
0
10
156.5057264
20
-137.1173451
11
170.4524522
21
-138.3375255
0
LINE
8
0
10
170.4524522
20
-138.3375255
11
171.6726326
21
-124.3907997
0
LINE
8
0
10
171.6726326
20
-124.3907997
11
157.7259068
21
-123.1706193
0
LINE
8
0
10
157.7259068
20
-123.1706193
11
156.5057264
21
-137.1173451
0
LINE
8
0
10
175.5363855
20
-139.2120644
11
189.0593471
21
-142.835531
0
LINE
8
0
10
189.0593471
20
-142.835531
11
192.6828137
21
-129.3125694
0
LINE
8
0
10
192.6828137
20
-129.3125694
11
179.1598521
21
-125.6891028
0
LINE
8
0
10
179.1598521
20
-125.6891028
11
175.5363855
21
-139.2120644
0
LINE
8
0
10
56.0978591
20
-66.7364658
11
34.6109563
21
-67.486805
0
LINE
8
0
10
34.6109563
20
-67.486805
11
37.9264086
21
-162.4289336
0
LINE
8
0
10
37.9264086
20
-162.4289336
11
58.4139206
21
-161.713494
0
LINE
8
0
10
58.4139206
20
-161.713494
11
61.3391795
21
-159.7540725
0
LINE
8
0
10
61.3391795
20
-159.7540725
11
77.3391795
21
-159.7540725
0
LINE
8
0
10
77.3391795
20
-159.7540725
11
80.0891795
21
-157.7540725
0
LINE
8
0
10
80.0891795
20
-157.7540725
11
96.0891795
21
-157.7540725
0
LINE
8
0
10
96.0891795
20
-157.7540725
11
98.8391795
21
-155.7540724
0
LINE
8
0
10
98.8391795
20
-155.7540724
11
114.8391795
21
-155.7540724
0
LINE
8
0
10
114.8391795
20
-155.7540724
11
117.5891795
21
-157.7540724
0
LINE
8
0
10
117.5891795
20
-157.7540724
11
131.8391795
21
-157.7540724
0
LINE
8
0
10
131.8391795
20
-157.7540724
11
130.5576207
21
-169.3565948
0
LINE
8
0
10
130.5576207
20
-169.3565948
11
152.4664227
21
-171.2286811
0
LINE
8
0
10
152.4664227
20
-171.2286811
11
168.2267186
21
-174.9167739
0
LINE
8
0
10
168.2267186
20
-174.9167739
11
188.5783155
21
-186.6667739
0
LINE
8
0
10
188.5783155
20
-186.6667739
11
203.8283155
21
-160.2529991
0
LINE
8
0
10
203.8283155
20
-160.2529991
11
191.7039599
21
-153.2529991
0
LINE
8
0
10
191.7039599
20
-153.2529991
11
199.289501
21
-125.906445
0
LINE
8
0
10
199.289501
20
-125.906445
11
179.2465401
21
-120.5359499
0
LINE
8
0
10
179.2465401
20
-120.5359499
11
178.8391795
21
-118.0040724
0
LINE
8
0
10
178.8391795
20
-118.0040724
11
178.8391795
21
-64.7540724
0
LINE
8
0
10
178.8391795
20
-64.7540724
11
136.3391795
21
-64.7540724
0
LINE
8
0
10
136.3391795
20
-64.7540724
11
133.5891795
21
-62.7540724
0
LINE
8
0
10
133.5891795
20
-62.7540724
11
117.5891795
21
-62.7540724
0
LINE
8
0
10
117.5891795
20
-62.7540724
11
114.8391795
21
-60.7540724
0
LINE
8
0
10
114.8391795
20
-60.7540724
11
98.8391795
21
-60.7540724
0
LINE
8
0
10
98.8391795
20
-60.7540724
11
96.0891795
21
-62.7540725
0
LINE
8
0
10
96.0891795
20
-62.7540725
11
80.0891795
21
-62.7540725
0
LINE
8
0
10
80.0891795
20
-62.7540725
11
77.3391795
21
-64.7540725
0
LINE
8
0
10
77.3391795
20
-64.7540725
11
61.3391795
21
-64.7540725
0
LINE
8
0
10
61.3391795
20
-64.7540725
11
56.0978591
21
-66.7364658
0
LINE
8
0
10
352.8608399
20
-68.2471698
11
370.5171855
21
-68.863743
0
LINE
8
0
10
372.4461682
20
-70.9323237
11
369.3750124
21
-158.8787164
0
LINE
8
0
10
367.3064317
20
-160.8076991
11
350.8778533
21
-160.2340005
0
LINE
8
0
10
349.8478781
20
-159.9056968
11
347.8396997
21
-158.5835945
0
LINE
8
0
10
346.7399255
20
-158.2540725
11
331.9895472
21
-158.2540725
0
LINE
8
0
10
330.8132038
20
-157.8715447
11
329.1151552
21
-156.6366003
0
LINE
8
0
10
327.9388118
20
-156.2540725
11
313.2395471
21
-156.2540725
0
LINE
8
0
10
312.0632037
20
-155.8715446
11
310.3651553
21
-154.6366003
0
LINE
8
0
10
309.1888119
20
-154.2540724
11
294.4895472
21
-154.2540724
0
LINE
8
0
10
293.3132038
20
-154.6366002
11
291.6151552
21
-155.8715446
0
LINE
8
0
10
290.4388118
20
-156.2540724
11
277.5459042
21
-156.2540724
0
LINE
8
0
10
275.5555405
20
-158.4501648
11
276.2972559
21
-165.9786747
0
LINE
8
0
10
274.4791172
20
-168.1673379
11
255.9709129
21
-169.7670689
0
LINE
8
0
10
255.6799705
20
-169.8140098
11
239.985645
21
-173.550127
0
LINE
8
0
10
239.4488124
20
-173.7637061
11
222.3811324
21
-183.6177358
0
LINE
8
0
10
219.6490816
20
-182.885685
11
207.8990816
21
-162.534088
0
LINE
8
0
10
208.6311324
20
-159.8020372
11
217.6652785
21
-154.5861705
0
LINE
8
0
10
218.585843
20
-152.2960587
11
211.7958718
21
-128.9284016
0
LINE
8
0
10
213.1987983
20
-126.4384889
11
229.8374211
21
-121.9801833
0
LINE
8
0
10
231.3186571
20
-120.1154308
11
231.3391795
21
-119.5040724
0
LINE
8
0
10
231.3391795
20
-119.5040724
11
231.3391795
21
-68.2540724
0
LINE
8
0
10
233.3391795
20
-66.2540724
11
271.6888118
21
-66.2540724
0
LINE
8
0
10
272.8651552
20
-65.8715446
11
274.5632038
21
-64.6366002
0
LINE
8
0
10
275.7395472
20
-64.2540724
11
290.4388118
21
-64.2540724
0
LINE
8
0
10
291.6151552
20
-63.8715446
11
293.3132038
21
-62.6366002
0
LINE
8
0
10
294.4895472
20
-62.2540724
11
309.1888119
21
-62.2540724
0
LINE
8
0
10
310.3651553
20
-62.6366003
11
312.0632037
21
-63.8715446
0
LINE
8
0
10
313.2395471
20
-64.2540725
11
327.9388118
21
-64.2540725
0
LINE
8
0
10
329.1151552
20
-64.6366003
11
330.8132038
21
-65.8715447
0
LINE
8
0
10
331.9895472
20
-66.2540725
11
346.9703056
21
-66.2540725
0
LINE
8
0
10
347.6837828
20
-66.385664
11
352.2171616
21
-68.1167966
0
ARC
8
0
10
370.4473865
20
-70.8625247
40
2
50
357.9999998
51
87.9999998
0
ARC
8
0
10
367.3762307
20
-158.8089174
40
2
50
267.9999998
51
357.9999998
0
ARC
8
0
10
350.9476523
20
-158.2352188
40
2
50
236.6407323
51
267.9999998
0
ARC
8
0
10
346.7399255
20
-160.2540725
40
2
50
56.6407323
51
90
0
ARC
8
0
10
331.9895472
20
-156.2540725
40
2
50
233.972627
51
270
0
ARC
8
0
10
327.9388118
20
-158.2540725
40
2
50
53.972627
51
90
0
ARC
8
0
10
313.2395471
20
-154.2540725
40
2
50
233.972627
51
270
0
ARC
8
0
10
309.1888119
20
-156.2540724
40
2
50
53.972627
51
90
0
ARC
8
0
10
294.4895472
20
-156.2540724
40
2
50
90
51
126.027373
0
ARC
8
0
10
290.4388118
20
-154.2540724
40
2
50
270
51
306.027373
0
ARC
8
0
10
277.5459042
20
-158.2540724
40
2
50
90
51
185.6266729
0
ARC
8
0
10
274.3068922
20
-166.1747671
40
2
50
274.9400011
51
5.6266729
0
ARC
8
0
10
256.1431379
20
-171.7596397
40
2
50
94.9400011
51
103.3903285
0
ARC
8
0
10
240.4488124
20
-175.4957569
40
2
50
103.3903285
51
120.0000001
0
ARC
8
0
10
221.3811324
20
-181.885685
40
2
50
210.0000001
51
300.0000001
0
ARC
8
0
10
209.6311324
20
-161.534088
40
2
50
120.0000001
51
210.0000001
0
ARC
8
0
10
216.6652785
20
-152.8541197
40
2
50
300.0000001
51
16.2023511
0
ARC
8
0
10
213.7164363
20
-128.3703406
40
2
50
104.9999979
51
196.2023511
0
ARC
8
0
10
229.319783
20
-120.0483316
40
2
50
284.9999979
51
358.0773888
0
ARC
8
0
10
233.3391795
20
-68.2540724
40
2
50
90
51
180
0
ARC
8
0
10
271.6888118
20
-64.2540724
40
2
50
270
51
306.027373
0
ARC
8
0
10
275.7395472
20
-66.2540724
40
2
50
90
51
126.027373
0
ARC
8
0
10
290.4388118
20
-62.2540724
40
2
50
270
51
306.027373
0
ARC
8
0
10
294.4895472
20
-64.2540724
40
2
50
90
51
126.027373
0
ARC
8
0
10
309.1888119
20
-64.2540724
40
2
50
53.972627
51
90
0
ARC
8
0
10
313.2395471
20
-62.2540725
40
2
50
233.972627
51
270
0
ARC
8
0
10
327.9388118
20
-66.2540725
40
2
50
53.972627
51
90
0
ARC
8
0
10
331.9895472
20
-64.2540725
40
2
50
233.972627
51
270
0
ARC
8
0
10
346.9703056
20
-68.2540725
40
2
50
69.0999622
51
90
0
ARC
8
0
10
352.9306389
20
-66.2483881
40
2
50
249.0999622
51
267.9999998
0
LINE
8
0
10
351.4383267
20
-156.7514393
11
365.4297983
21
-157.2400323
0
LINE
8
0
10
365.4297983
20
-157.2400323
11
365.9183913
21
-143.2485607
0
LINE
8
0
10
365.9183913
20
-143.2485607
11
351.9269197
21
-142.7599677
0
LINE
8
0
10
351.9269197
20
-142.7599677
11
351.4383267
21
-156.7514393
0
LINE
8
0
10
352.0577928
20
-139.0122521
11
366.0492644
21
-139.5008451
0
LINE
8
0
10
366.0492644
20
-139.5008451
11
366.5378574
21
-125.5093735
0
LINE
8
0
10
366.5378574
20
-125.5093735
11
352.5463858
21
-125.0207805
0
LINE
8
0
10
352.5463858
20
-125.0207805
11
352.0577928
21
-139.0122521
0
LINE
8
0
10
352.6772589
20
-121.2730649
11
366.6687305
21
-121.7616579
0
LINE
8
0
10
366.6687305
20
-121.7616579
11
367.1573235
21
-107.7701863
0
LINE
8
0
10
367.1573235
20
-107.7701863
11
353.1658519
21
-107.2815933
0
LINE
8
0
10
353.1658519
20
-107.2815933
11
352.6772589
21
-121.2730649
0
LINE
8
0
10
353.296725
20
-103.5338777
11
367.2881966
21
-104.0224707
0
LINE
8
0
10
367.2881966
20
-104.0224707
11
367.7767896
21
-90.0309991
0
LINE
8
0
10
367.7767896
20
-90.0309991
11
353.785318
21
-89.5424061
0
LINE
8
0
10
353.785318
20
-89.5424061
11
353.296725
21
-103.5338777
0
LINE
8
0
10
353.9161911
20
-85.7946905
11
367.9076627
21
-86.2832835
0
LINE
8
0
10
367.9076627
20
-86.2832835
11
368.3962557
21
-72.2918119
0
LINE
8
0
10
368.3962557
20
-72.2918119
11
354.4047841
21
-71.8032189
0
LINE
8
0
10
354.4047841
20
-71.8032189
11
353.9161911
21
-85.7946905
0
LINE
8
0
10
332.3391795
20
-154.7540725
11
346.3391795
21
-154.7540725
0
LINE
8
0
10
346.3391795
20
-154.7540725
11
346.3391795
21
-140.7540725
0
LINE
8
0
10
346.3391795
20
-140.7540725
11
332.3391795
21
-140.7540725
0
LINE
8
0
10
332.3391795
20
-140.7540725
11
332.3391795
21
-154.7540725
0
LINE
8
0
10
332.3391795
20
-137.0040725
11
346.3391795
21
-137.0040725
0
LINE
8
0
10
346.3391795
20
-137.0040725
11
346.3391795
21
-123.0040725
0
LINE
8
0
10
346.3391795
20
-123.0040725
11
332.3391795
21
-123.0040725
0
LINE
8
0
10
332.3391795
20
-123.0040725
11
332.3391795
21
-137.0040725
0
LINE
8
0
10
332.3391795
20
-119.2540725
11
346.3391795
21
-119.2540725
0
LINE
8
0
10
346.3391795
20
-119.2540725
11
346.3391795
21
-105.2540725
0
LINE
8
0
10
346.3391795
20
-105.2540725
11
332.3391795
21
-105.2540725
0
LINE
8
0
10
332.3391795
20
-105.2540725
11
332.3391795
21
-119.2540725
0
LINE
8
0
10
332.3391795
20
-101.5040725
11
346.3391795
21
-101.5040725
0
LINE
8
0
10
346.3391795
20
-101.5040725
11
346.3391795
21
-87.5040725
0
LINE
8
0
10
346.3391795
20
-87.5040725
11
332.3391795
21
-87.5040725
0
LINE
8
0
10
332.3391795
20
-87.5040725
11
332.3391795
21
-101.5040725
0
LINE
8
0
10
332.3391795
20
-83.7540725
11
346.3391795
21
-83.7540725
0
LINE
8
0
10
346.3391795
20
-83.7540725
11
346.3391795
21
-69.7540725
0
LINE
8
0
10
346.3391795
20
-69.7540725
11
332.3391795
21
-69.7540725
0
LINE
8
0
10
332.3391795
20
-69.7540725
11
332.3391795
21
-83.7540725
0
LINE
8
0
10
313.5891795
20
-152.7540725
11
327.5891795
21
-152.7540725
0
LINE
8
0
10
327.5891795
20
-152.7540725
11
327.5891795
21
-138.7540725
0
LINE
8
0
10
327.5891795
20
-138.7540725
11
313.5891795
21
-138.7540725
0
LINE
8
0
10
313.5891795
20
-138.7540725
11
313.5891795
21
-152.7540725
0
LINE
8
0
10
313.5891795
20
-135.0040725
11
327.5891795
21
-135.0040725
0
LINE
8
0
10
327.5891795
20
-135.0040725
11
327.5891795
21
-121.0040725
0
LINE
8
0
10
327.5891795
20
-121.0040725
11
313.5891795
21
-121.0040725
0
LINE
8
0
10
313.5891795
20
-121.0040725
11
313.5891795
21
-135.0040725
0
LINE
8
0
10
313.5891795
20
-117.2540725
11
327.5891795
21
-117.2540725
0
LINE
8
0
10
327.5891795
20
-117.2540725
11
327.5891795
21
-103.2540725
0
LINE
8
0
10
327.5891795
20
-103.2540725
11
313.5891795
21
-103.2540725
0
LINE
8
0
10
313.5891795
20
-103.2540725
11
313.5891795
21
-117.2540725
0
LINE
8
0
10
313.5891795
20
-99.5040725
11
327.5891795
21
-99.5040725
0
LINE
8
0
10
327.5891795
20
-99.5040725
11
327.5891795
21
-85.5040725
0
LINE
8
0
10
327.5891795
20
-85.5040725
11
313.5891795
21
-85.5040725
0
LINE
8
0
10
313.5891795
20
-85.5040725
11
313.5891795
21
-99.5040725
0
LINE
8
0
10
313.5891795
20
-81.7540725
11
327.5891795
21
-81.7540725
0
LINE
8
0
10
327.5891795
20
-81.7540725
11
327.5891795
21
-67.7540725
0
LINE
8
0
10
327.5891795
20
-67.7540725
11
313.5891795
21
-67.7540725
0
LINE
8
0
10
313.5891795
20
-67.7540725
11
313.5891795
21
-81.7540725
0
LINE
8
0
10
294.8391795
20
-150.7540724
11
308.8391795
21
-150.7540724
0
LINE
8
0
10
308.8391795
20
-150.7540724
11
308.8391795
21
-136.7540724
0
LINE
8
0
10
308.8391795
20
-136.7540724
11
294.8391795
21
-136.7540724
0
LINE
8
0
10
294.8391795
20
-136.7540724
11
294.8391795
21
-150.7540724
0
LINE
8
0
10
294.8391795
20
-133.0040724
11
308.8391795
21
-133.0040724
0
LINE
8
0
10
308.8391795
20
-133.0040724
11
308.8391795
21
-119.0040724
0
LINE
8
0
10
308.8391795
20
-119.0040724
11
294.8391795
21
-119.0040724
0
LINE
8
0
10
294.8391795
20
-119.0040724
11
294.8391795
21
-133.0040724
0
LINE
8
0
10
294.8391795
20
-115.2540724
11
308.8391795
21
-115.2540724
0
LINE
8
0
10
308.8391795
20
-115.2540724
11
308.8391795
21
-101.2540724
0
LINE
8
0
10
308.8391795
20
-101.2540724
11
294.8391795
21
-101.2540724
0
LINE
8
0
10
294.8391795
20
-101.2540724
11
294.8391795
21
-115.2540724
0
LINE
8
0
10
294.8391795
20
-97.5040724
11
308.8391795
21
-97.5040724
0
LINE
8
0
10
308.8391795
20
-97.5040724
11
308.8391795
21
-83.5040724
0
LINE
8
0
10
308.8391795
20
-83.5040724
11
294.8391795
21
-83.5040724
0
LINE
8
0
10
294.8391795
20
-83.5040724
11
294.8391795
21
-97.5040724
0
LINE
8
0
10
294.8391795
20
-79.7540724
11
308.8391795
21
-79.7540724
0
LINE
8
0
10
308.8391795
20
-79.7540724
11
308.8391795
21
-65.7540724
0
LINE
8
0
10
308.8391795
20
-65.7540724
11
294.8391795
21
-65.7540724
0
LINE
8
0
10
294.8391795
20
-65.7540724
11
294.8391795
21
-79.7540724
0
LINE
8
0
10
276.0891795
20
-152.7540724
11
290.0891795
21
-152.7540724
0
LINE
8
0
10
290.0891795
20
-152.7540724
11
290.0891795
21
-138.7540724
0
LINE
8
0
10
290.0891795
20
-138.7540724
11
276.0891795
21
-138.7540724
0
LINE
8
0
10
276.0891795
20
-138.7540724
11
276.0891795
21
-152.7540724
0
LINE
8
0
10
276.0891795
20
-135.0040724
11
290.0891795
21
-135.0040724
0
LINE
8
0
10
290.0891795
20
-135.0040724
11
290.0891795
21
-121.0040724
0
LINE
8
0
10
290.0891795
20
-121.0040724
11
276.0891795
21
-121.0040724
0
LINE
8
0
10
276.0891795
20
-121.0040724
11
276.0891795
21
-135.0040724
0
LINE
8
0
10
276.0891795
20
-117.2540724
11
290.0891795
21
-117.2540724
0
LINE
8
0
10
290.0891795
20
-117.2540724
11
290.0891795
21
-103.2540724
0
LINE
8
0
10
290.0891795
20
-103.2540724
11
276.0891795
21
-103.2540724
0
LINE
8
0
10
276.0891795
20
-103.2540724
11
276.0891795
21
-117.2540724
0
LINE
8
0
10
276.0891795
20
-99.5040724
11
290.0891795
21
-99.5040724
0
LINE
8
0
10
290.0891795
20
-99.5040724
11
290.0891795
21
-85.5040724
0
LINE
8
0
10
290.0891795
20
-85.5040724
11
276.0891795
21
-85.5040724
0
LINE
8
0
10
276.0891795
20
-85.5040724
11
276.0891795
21
-99.5040724
0
LINE
8
0
10
276.0891795
20
-81.7540724
11
290.0891795
21
-81.7540724
0
LINE
8
0
10
290.0891795
20
-81.7540724
11
290.0891795
21
-67.7540724
0
LINE
8
0
10
290.0891795
20
-67.7540724
11
276.0891795
21
-67.7540724
0
LINE
8
0
10
276.0891795
20
-67.7540724
11
276.0891795
21
-81.7540724
0
LINE
8
0
10
257.3391795
20
-137.0040724
11
271.3391795
21
-137.0040724
0
LINE
8
0
10
271.3391795
20
-137.0040724
11
271.3391795
21
-123.0040724
0
LINE
8
0
10
271.3391795
20
-123.0040724
11
257.3391795
21
-123.0040724
0
LINE
8
0
10
257.3391795
20
-123.0040724
11
257.3391795
21
-137.0040724
0
LINE
8
0
10
257.3391795
20
-119.2540724
11
271.3391795
21
-119.2540724
0
LINE
8
0
10
271.3391795
20
-119.2540724
11
271.3391795
21
-105.2540724
0
LINE
8
0
10
271.3391795
20
-105.2540724
11
257.3391795
21
-105.2540724
0
LINE
8
0
10
257.3391795
20
-105.2540724
11
257.3391795
21
-119.2540724
0
LINE
8
0
10
257.3391795
20
-101.5040724
11
271.3391795
21
-101.5040724
0
LINE
8
0
10
271.3391795
20
-101.5040724
11
271.3391795
21
-87.5040724
0
LINE
8
0
10
271.3391795
20
-87.5040724
11
257.3391795
21
-87.5040724
0
LINE
8
0
10
257.3391795
20
-87.5040724
11
257.3391795
21
-101.5040724
0
LINE
8
0
10
257.3391795
20
-83.7540724
11
271.3391795
21
-83.7540724
0
LINE
8
0
10
271.3391795
20
-83.7540724
11
271.3391795
21
-69.7540724
0
LINE
8
0
10
271.3391795
20
-69.7540724
11
257.3391795
21
-69.7540724
0
LINE
8
0
10
257.3391795
20
-69.7540724
11
257.3391795
21
-83.7540724
0
LINE
8
0
10
257.9759068
20
-162.8375255
11
271.9226326
21
-161.6173451
0
LINE
8
0
10
271.9226326
20
-161.6173451
11
270.7024522
21
-147.6706193
0
LINE
8
0
10
270.7024522
20
-147.6706193
11
256.7557264
21
-148.8907997
0
LINE
8
0
10
256.7557264
20
-148.8907997
11
257.9759068
21
-162.8375255
0
LINE
8
0
10
238.6218659
20
-167.4008978
11
252.1448275
21
-163.7774312
0
LINE
8
0
10
252.1448275
20
-163.7774312
11
248.5213609
21
-150.2544696
0
LINE
8
0
10
248.5213609
20
-150.2544696
11
234.9983993
21
-153.8779362
0
LINE
8
0
10
234.9983993
20
-153.8779362
11
238.6218659
21
-167.4008978
0
LINE
8
0
10
220.7381832
20
-176.7720643
11
232.8625388
21
-169.7720643
0
LINE
8
0
10
232.8625388
20
-169.7720643
11
225.8625388
21
-157.6477087
0
LINE
8
0
10
225.8625388
20
-157.6477087
11
213.7381832
21
-164.6477087
0
LINE
8
0
10
213.7381832
20
-164.6477087
11
220.7381832
21
-176.7720643
0
LINE
8
0
10
238.2259068
20
-138.3375255
11
252.1726326
21
-137.1173451
0
LINE
8
0
10
252.1726326
20
-137.1173451
11
250.9524522
21
-123.1706193
0
LINE
8
0
10
250.9524522
20
-123.1706193
11
237.0057264
21
-124.3907997
0
LINE
8
0
10
237.0057264
20
-124.3907997
11
238.2259068
21
-138.3375255
0
LINE
8
0
10
219.6190119
20
-142.835531
11
233.1419735
21
-139.2120644
0
LINE
8
0
10
233.1419735
20
-139.2120644
11
229.5185069
21
-125.6891028
0
LINE
8
0
10
229.5185069
20
-125.6891028
11
215.9955453
21
-129.3125694
0
LINE
8
0
10
215.9955453
20
-129.3125694
11
219.6190119
21
-142.835531
0
LINE
8
0
10
352.5804999
20
-66.7364658
11
374.0674027
21
-67.486805
0
LINE
8
0
10
374.0674027
20
-67.486805
11
370.7519504
21
-162.4289336
0
LINE
8
0
10
370.7519504
20
-162.4289336
11
350.2644384
21
-161.713494
0
LINE
8
0
10
350.2644384
20
-161.713494
11
347.3391795
21
-159.7540725
0
LINE
8
0
10
347.3391795
20
-159.7540725
11
331.3391795
21
-159.7540725
0
LINE
8
0
10
331.3391795
20
-159.7540725
11
328.5891795
21
-157.7540725
0
LINE
8
0
10
328.5891795
20
-157.7540725
11
312.5891795
21
-157.7540725
0
LINE
8
0
10
312.5891795
20
-157.7540725
11
309.8391795
21
-155.7540724
0
LINE
8
0
10
309.8391795
20
-155.7540724
11
293.8391795
21
-155.7540724
0
LINE
8
0
10
293.8391795
20
-155.7540724
11
291.0891795
21
-157.7540724
0
LINE
8
0
10
291.0891795
20
-157.7540724
11
276.8391795
21
-157.7540724
0
LINE
8
0
10
276.8391795
20
-157.7540724
11
278.1207383
21
-169.3565948
0
LINE
8
0
10
278.1207383
20
-169.3565948
11
256.2119363
21
-171.2286811
0
LINE
8
0
10
256.2119363
20
-171.2286811
11
240.4516404
21
-174.9167739
0
LINE
8
0
10
240.4516404
20
-174.9167739
11
220.1000435
21
-186.6667739
0
LINE
8
0
10
220.1000435
20
-186.6667739
11
204.8500435
21
-160.2529991
0
LINE
8
0
10
204.8500435
20
-160.2529991
11
216.9743991
21
-153.2529991
0
LINE
8
0
10
216.9743991
20
-153.2529991
11
209.388858
21
-125.906445
0
LINE
8
0
10
209.388858
20
-125.906445
11
229.4318189
21
-120.5359499
0
LINE
8
0
10
229.4318189
20
-120.5359499
11
229.8391795
21
-118.0040724
0
LINE
8
0
10
229.8391795
20
-118.0040724
11
229.8391795
21
-64.7540724
0
LINE
8
0
10
229.8391795
20
-64.7540724
11
272.3391795
21
-64.7540724
0
LINE
8
0
10
272.3391795
20
-64.7540724
11
275.0891795
21
-62.7540724
0
LINE
8
0
10
275.0891795
20
-62.7540724
11
291.0891795
21
-62.7540724
0
LINE
8
0
10
291.0891795
20
-62.7540724
11
293.8391795
21
-60.7540724
0
LINE
8
0
10
293.8391795
20
-60.7540724
11
309.8391795
21
-60.7540724
0
LINE
8
0
10
309.8391795
20
-60.7540724
11
312.5891795
21
-62.7540725
0
LINE
8
0
10
312.5891795
20
-62.7540725
11
328.5891795
21
-62.7540725
0
LINE
8
0
10
328.5891795
20
-62.7540725
11
331.3391795
21
-64.7540725
0
LINE
8
0
10
331.3391795
20
-64.7540725
11
347.3391795
21
-64.7540725
0
LINE
8
0
10
347.3391795
20
-64.7540725
11
352.5804999
21
-66.7364658
0
ENDSEC
0
EOF