0
SECTION
2
HEADER
9
$INSUNITS
70
4
0
ENDSEC
0
SECTION
2
TABLES
0
TABLE
2
LTYPE
0
LTYPE
72
65
70
64
2
CONTINUOUS
3
______
73
0
40
0
0
ENDTAB
0
TABLE
2
LAYER
0
ENDTAB
0
ENDSEC
0
SECTION
2
ENTITIES
0
LINE
8
0
10
82.1129769
20
-71.7612345
11
89.7826821
21
-159.426368
0
LINE
8
0
10
83.9310549
20
-69.5945337
11
117.6091744
21
-66.6480801
0
LINE
8
0
10
119.0830915
20
-65.7885379
11
126.4170504
21
-55.1180443
0
LINE
8
0
10
128.0652789
20
-54.2508915
11
143.2906802
21
-54.2508915
0
LINE
8
0
10
145.2685528
20
-52.5475725
11
145.5075572
21
-50.9542104
0
LINE
8
0
10
147.4854298
20
-49.2508914
11
165.9974905
21
-49.2508914
0
LINE
8
0
10
167.9820463
20
-51.002822
11
168.2940637
21
-53.4989608
0
LINE
8
0
10
170.2786195
20
-55.2508914
11
185.1271189
21
-55.2508914
0
LINE
8
0
10
186.9997465
20
-56.5485624
11
187.263155
21
-57.2508914
0
LINE
8
0
10
187.263155
20
-57.2508914
11
203.263055
21
-57.2508914
0
LINE
8
0
10
205.263055
20
-59.2508914
11
205.263055
21
-129.5008914
0
LINE
8
0
10
203.263055
20
-131.5008914
11
186.944106
21
-131.5008914
0
LINE
8
0
10
184.9739125
20
-133.1568894
11
182.8021975
21
-145.5948934
0
LINE
8
0
10
180.832004
20
-147.2508914
11
166.2786195
21
-147.2508914
0
LINE
8
0
10
164.2940637
20
-145.4989608
11
163.9820463
21
-143.002822
0
LINE
8
0
10
161.9974905
20
-141.2508914
11
151.4854298
21
-141.2508914
0
LINE
8
0
10
149.5075572
20
-142.9542104
11
149.2685528
21
-144.5475725
0
LINE
8
0
10
147.2906802
20
-146.2508915
11
132.9352368
21
-146.2508915
0
LINE
8
0
10
130.9368108
20
-148.1715607
11
130.6217771
21
-156.1075807
0
LINE
8
0
10
91.9493829
20
-161.244446
11
128.7976625
21
-158.0206393
0
ARC
8
0
10
84.1053663
20
-71.5869231
40
2
50
94.9999976
51
184.9999976
0
ARC
8
0
10
117.434863
20
-64.6556907
40
2
50
274.9999976
51
325.4987911
0
ARC
8
0
10
128.0652789
20
-56.2508915
40
2
50
90
51
145.4987911
0
ARC
8
0
10
143.2906802
20
-52.2508915
40
2
50
270
51
351.4692321
0
ARC
8
0
10
147.4854298
20
-51.2508914
40
2
50
90
51
171.4692321
0
ARC
8
0
10
165.9974905
20
-51.2508914
40
2
50
7.1250142
51
90
0
ARC
8
0
10
170.2786195
20
-53.2508914
40
2
50
187.1250142
51
270
0
ARC
8
0
10
185.1271189
20
-57.2508914
40
2
50
20.5585573
51
90
0
ARC
8
0
10
203.263055
20
-59.2508914
40
2
50
0
51
90
0
ARC
8
0
10
203.263055
20
-129.5008914
40
2
50
270
51
0
0
ARC
8
0
10
186.944106
20
-133.5008914
40
2
50
90
51
170.0958184
0
ARC
8
0
10
180.832004
20
-145.2508914
40
2
50
270
51
350.0958184
0
ARC
8
0
10
166.2786195
20
-145.2508914
40
2
50
187.1250142
51
270
0
ARC
8
0
10
161.9974905
20
-143.2508914
40
2
50
7.1250142
51
90
0
ARC
8
0
10
151.4854298
20
-143.2508914
40
2
50
90
51
171.4692321
0
ARC
8
0
10
147.2906802
20
-144.2508915
40
2
50
270
51
351.4692321
0
ARC
8
0
10
132.9352368
20
-148.2508915
40
2
50
90
51
177.7267436
0
ARC
8
0
10
128.6233511
20
-156.0282499
40
2
50
274.9999976
51
357.7267436
0
ARC
8
0
10
91.7750715
20
-159.2520566
40
2
50
184.9999976
51
274.9999976
0
LINE
8
0
10
93.6367273
20
-157.5834531
11
107.5834531
21
-156.3632727
0
LINE
8
0
10
107.5834531
20
-156.3632727
11
106.3632727
21
-142.4165469
0
LINE
8
0
10
106.3632727
20
-142.4165469
11
92.4165469
21
-143.6367273
0
LINE
8
0
10
92.4165469
20
-143.6367273
11
93.6367273
21
-157.5834531
0
LINE
8
0
10
92.0897129
20
-139.9009972
11
106.0364387
21
-138.6808168
0
LINE
8
0
10
106.0364387
20
-138.6808168
11
104.8162583
21
-124.734091
0
LINE
8
0
10
104.8162583
20
-124.734091
11
90.8695325
21
-125.9542714
0
LINE
8
0
10
90.8695325
20
-125.9542714
11
92.0897129
21
-139.9009972
0
LINE
8
0
10
90.5426985
20
-122.2185413
11
104.4894243
21
-120.9983609
0
LINE
8
0
10
104.4894243
20
-120.9983609
11
103.2692439
21
-107.0516351
0
LINE
8
0
10
103.2692439
20
-107.0516351
11
89.3225181
21
-108.2718155
0
LINE
8
0
10
89.3225181
20
-108.2718155
11
90.5426985
21
-122.2185413
0
LINE
8
0
10
88.9956841
20
-104.5360854
11
102.9424099
21
-103.315905
0
LINE
8
0
10
102.9424099
20
-103.315905
11
101.7222295
21
-89.3691792
0
LINE
8
0
10
101.7222295
20
-89.3691792
11
87.7755037
21
-90.5893596
0
LINE
8
0
10
87.7755037
20
-90.5893596
11
88.9956841
21
-104.5360854
0
LINE
8
0
10
87.4486697
20
-86.8536295
11
101.3953955
21
-85.6334491
0
LINE
8
0
10
101.3953955
20
-85.6334491
11
100.1752151
21
-71.6867233
0
LINE
8
0
10
100.1752151
20
-71.6867233
11
86.2284893
21
-72.9069037
0
LINE
8
0
10
86.2284893
20
-72.9069037
11
87.4486697
21
-86.8536295
0
LINE
8
0
10
112.3153779
20
-155.9492829
11
126.2621037
21
-154.7291025
0
LINE
8
0
10
126.2621037
20
-154.7291025
11
125.0419233
21
-140.7823767
0
LINE
8
0
10
125.0419233
20
-140.7823767
11
111.0951975
21
-142.0025571
0
LINE
8
0
10
111.0951975
20
-142.0025571
11
112.3153779
21
-155.9492829
0
LINE
8
0
10
110.7683635
20
-138.266827
11
124.7150893
21
-137.0466466
0
LINE
8
0
10
124.7150893
20
-137.0466466
11
123.4949089
21
-123.0999208
0
LINE
8
0
10
123.4949089
20
-123.0999208
11
109.5481831
21
-124.3201012
0
LINE
8
0
10
109.5481831
20
-124.3201012
11
110.7683635
21
-138.266827
0
LINE
8
0
10
109.2213491
20
-120.5843711
11
123.1680749
21
-119.3641907
0
LINE
8
0
10
123.1680749
20
-119.3641907
11
121.9478945
21
-105.4174649
0
LINE
8
0
10
121.9478945
20
-105.4174649
11
108.0011687
21
-106.6376453
0
LINE
8
0
10
108.0011687
20
-106.6376453
11
109.2213491
21
-120.5843711
0
LINE
8
0
10
107.6743347
20
-102.9019152
11
121.6210605
21
-101.6817348
0
LINE
8
0
10
121.6210605
20
-101.6817348
11
120.4008801
21
-87.735009
0
LINE
8
0
10
120.4008801
20
-87.735009
11
106.4541543
21
-88.9551894
0
LINE
8
0
10
106.4541543
20
-88.9551894
11
107.6743347
21
-102.9019152
0
LINE
8
0
10
106.1273203
20
-85.2194593
11
120.0740461
21
-83.9992789
0
LINE
8
0
10
120.0740461
20
-83.9992789
11
118.8538657
21
-70.0525531
0
LINE
8
0
10
118.8538657
20
-70.0525531
11
104.9071399
21
-71.2727335
0
LINE
8
0
10
104.9071399
20
-71.2727335
11
106.1273203
21
-85.2194593
0
LINE
8
0
10
131.013055
20
-142.7508915
11
145.013055
21
-142.7508915
0
LINE
8
0
10
145.013055
20
-142.7508915
11
145.013055
21
-128.7508915
0
LINE
8
0
10
145.013055
20
-128.7508915
11
131.013055
21
-128.7508915
0
LINE
8
0
10
131.013055
20
-128.7508915
11
131.013055
21
-142.7508915
0
LINE
8
0
10
131.013055
20
-125.0008915
11
145.013055
21
-125.0008915
0
LINE
8
0
10
145.013055
20
-125.0008915
11
145.013055
21
-111.0008915
0
LINE
8
0
10
145.013055
20
-111.0008915
11
131.013055
21
-111.0008915
0
LINE
8
0
10
131.013055
20
-111.0008915
11
131.013055
21
-125.0008915
0
LINE
8
0
10
131.013055
20
-107.2508915
11
145.013055
21
-107.2508915
0
LINE
8
0
10
145.013055
20
-107.2508915
11
145.013055
21
-93.2508915
0
LINE
8
0
10
145.013055
20
-93.2508915
11
131.013055
21
-93.2508915
0
LINE
8
0
10
131.013055
20
-93.2508915
11
131.013055
21
-107.2508915
0
LINE
8
0
10
131.013055
20
-89.5008915
11
145.013055
21
-89.5008915
0
LINE
8
0
10
145.013055
20
-89.5008915
11
145.013055
21
-75.5008915
0
LINE
8
0
10
145.013055
20
-75.5008915
11
131.013055
21
-75.5008915
0
LINE
8
0
10
131.013055
20
-75.5008915
11
131.013055
21
-89.5008915
0
LINE
8
0
10
131.013055
20
-71.7508915
11
145.013055
21
-71.7508915
0
LINE
8
0
10
145.013055
20
-71.7508915
11
145.013055
21
-57.7508915
0
LINE
8
0
10
145.013055
20
-57.7508915
11
131.013055
21
-57.7508915
0
LINE
8
0
10
131.013055
20
-57.7508915
11
131.013055
21
-71.7508915
0
LINE
8
0
10
149.763055
20
-137.7508914
11
163.763055
21
-137.7508914
0
LINE
8
0
10
163.763055
20
-137.7508914
11
163.763055
21
-123.7508914
0
LINE
8
0
10
163.763055
20
-123.7508914
11
149.763055
21
-123.7508914
0
LINE
8
0
10
149.763055
20
-123.7508914
11
149.763055
21
-137.7508914
0
LINE
8
0
10
149.763055
20
-120.0008914
11
163.763055
21
-120.0008914
0
LINE
8
0
10
163.763055
20
-120.0008914
11
163.763055
21
-106.0008914
0
LINE
8
0
10
163.763055
20
-106.0008914
11
149.763055
21
-106.0008914
0
LINE
8
0
10
149.763055
20
-106.0008914
11
149.763055
21
-120.0008914
0
LINE
8
0
10
149.763055
20
-102.2508914
11
163.763055
21
-102.2508914
0
LINE
8
0
10
163.763055
20
-102.2508914
11
163.763055
21
-88.2508914
0
LINE
8
0
10
163.763055
20
-88.2508914
11
149.763055
21
-88.2508914
0
LINE
8
0
10
149.763055
20
-88.2508914
11
149.763055
21
-102.2508914
0
LINE
8
0
10
149.763055
20
-84.5008914
11
163.763055
21
-84.5008914
0
LINE
8
0
10
163.763055
20
-84.5008914
11
163.763055
21
-70.5008914
0
LINE
8
0
10
163.763055
20
-70.5008914
11
149.763055
21
-70.5008914
0
LINE
8
0
10
149.763055
20
-70.5008914
11
149.763055
21
-84.5008914
0
LINE
8
0
10
149.763055
20
-66.7508914
11
163.763055
21
-66.7508914
0
LINE
8
0
10
163.763055
20
-66.7508914
11
163.763055
21
-52.7508914
0
LINE
8
0
10
163.763055
20
-52.7508914
11
149.763055
21
-52.7508914
0
LINE
8
0
10
149.763055
20
-52.7508914
11
149.763055
21
-66.7508914
0
LINE
8
0
10
168.513055
20
-143.7508914
11
182.513055
21
-143.7508914
0
LINE
8
0
10
182.513055
20
-143.7508914
11
182.513055
21
-129.7508914
0
LINE
8
0
10
182.513055
20
-129.7508914
11
168.513055
21
-129.7508914
0
LINE
8
0
10
168.513055
20
-129.7508914
11
168.513055
21
-143.7508914
0
LINE
8
0
10
168.513055
20
-126.0008914
11
182.513055
21
-126.0008914
0
LINE
8
0
10
182.513055
20
-126.0008914
11
182.513055
21
-112.0008914
0
LINE
8
0
10
182.513055
20
-112.0008914
11
168.513055
21
-112.0008914
0
LINE
8
0
10
168.513055
20
-112.0008914
11
168.513055
21
-126.0008914
0
LINE
8
0
10
168.513055
20
-108.2508914
11
182.513055
21
-108.2508914
0
LINE
8
0
10
182.513055
20
-108.2508914
11
182.513055
21
-94.2508914
0
LINE
8
0
10
182.513055
20
-94.2508914
11
168.513055
21
-94.2508914
0
LINE
8
0
10
168.513055
20
-94.2508914
11
168.513055
21
-108.2508914
0
LINE
8
0
10
168.513055
20
-90.5008914
11
182.513055
21
-90.5008914
0
LINE
8
0
10
182.513055
20
-90.5008914
11
182.513055
21
-76.5008914
0
LINE
8
0
10
182.513055
20
-76.5008914
11
168.513055
21
-76.5008914
0
LINE
8
0
10
168.513055
20
-76.5008914
11
168.513055
21
-90.5008914
0
LINE
8
0
10
168.513055
20
-72.7508914
11
182.513055
21
-72.7508914
0
LINE
8
0
10
182.513055
20
-72.7508914
11
182.513055
21
-58.7508914
0
LINE
8
0
10
182.513055
20
-58.7508914
11
168.513055
21
-58.7508914
0
LINE
8
0
10
168.513055
20
-58.7508914
11
168.513055
21
-72.7508914
0
LINE
8
0
10
187.263055
20
-128.0008914
11
201.263055
21
-128.0008914
0
LINE
8
0
10
201.263055
20
-128.0008914
11
201.263055
21
-114.0008914
0
LINE
8
0
10
201.263055
20
-114.0008914
11
187.263055
21
-114.0008914
0
LINE
8
0
10
187.263055
20
-114.0008914
11
187.263055
21
-128.0008914
0
LINE
8
0
10
187.263055
20
-110.2508914
11
201.263055
21
-110.2508914
0
LINE
8
0
10
201.263055
20
-110.2508914
11
201.263055
21
-96.2508914
0
LINE
8
0
10
201.263055
20
-96.2508914
11
187.263055
21
-96.2508914
0
LINE
8
0
10
187.263055
20
-96.2508914
11
187.263055
21
-110.2508914
0
LINE
8
0
10
187.263055
20
-92.5008914
11
201.263055
21
-92.5008914
0
LINE
8
0
10
201.263055
20
-92.5008914
11
201.263055
21
-78.5008914
0
LINE
8
0
10
201.263055
20
-78.5008914
11
187.263055
21
-78.5008914
0
LINE
8
0
10
187.263055
20
-78.5008914
11
187.263055
21
-92.5008914
0
LINE
8
0
10
187.263055
20
-74.7508914
11
201.263055
21
-74.7508914
0
LINE
8
0
10
201.263055
20
-74.7508914
11
201.263055
21
-60.7508914
0
LINE
8
0
10
201.263055
20
-60.7508914
11
187.263055
21
-60.7508914
0
LINE
8
0
10
187.263055
20
-60.7508914
11
187.263055
21
-74.7508914
0
ENDSEC
0
EOF