0
SECTION
2
HEADER
9
$INSUNITS
70
4
0
ENDSEC
0
SECTION
2
TABLES
0
TABLE
2
LTYPE
0
LTYPE
72
65
70
64
2
CONTINUOUS
3
______
73
0
40
0
0
ENDTAB
0
TABLE
2
LAYER
0
ENDTAB
0
ENDSEC
0
SECTION
2
ENTITIES
0
LINE
8
0
10
361.0089191
20
-66.2186843
11
399.5950551
21
-69.5945337
0
LINE
8
0
10
401.4131331
20
-71.7612345
11
393.7434279
21
-159.426368
0
LINE
8
0
10
391.5767271
20
-161.244446
11
354.9704185
21
-158.041809
0
LINE
8
0
10
353.1526804
20
-155.8712656
11
353.8182571
21
-148.4290455
0
LINE
8
0
10
351.8262076
20
-146.2508915
11
336.6155535
21
-146.2508915
0
LINE
8
0
10
334.6180488
20
-144.1510163
11
334.6580612
21
-143.3507666
0
LINE
8
0
10
332.6605565
20
-141.2508914
11
320.8481236
21
-141.2508914
0
LINE
8
0
10
318.8498575
20
-143.3341524
11
318.9264095
21
-145.1713984
0
LINE
8
0
10
316.931761
20
-147.2546561
11
302.5741625
21
-147.2806268
0
LINE
8
0
10
300.5853907
20
-149.4549349
11
301.7019503
21
-162.2172692
0
LINE
8
0
10
299.8736773
20
-164.3848357
11
282.2434337
21
-165.8364378
0
LINE
8
0
10
281.9721666
20
-165.8776578
11
267.5496813
21
-169.0944621
0
LINE
8
0
10
266.9850649
20
-169.3144464
11
249.9300079
21
-179.1611882
0
LINE
8
0
10
247.1979571
20
-178.4291374
11
234.4479571
21
-156.3454896
0
LINE
8
0
10
235.1800079
20
-153.6134388
11
243.1313768
21
-149.0227138
0
LINE
8
0
10
244.0518434
20
-146.732265
11
241.5909596
21
-138.2686883
0
LINE
8
0
10
241.5795744
20
-138.2279283
11
236.6674889
21
-119.8957758
0
LINE
8
0
10
238.0817026
20
-117.4462861
11
254.7612966
21
-112.9770023
0
LINE
8
0
10
256.2425326
20
-111.1122498
11
256.263055
21
-110.5008914
0
LINE
8
0
10
256.263055
20
-110.5008914
11
256.263055
21
-59.2508914
0
LINE
8
0
10
258.263055
20
-57.2508914
11
296.0026564
21
-57.2508914
0
LINE
8
0
10
297.331384
20
-56.74571
11
298.444726
21
-55.7560728
0
LINE
8
0
10
299.7734536
20
-55.2508914
11
313.594653
21
-55.2508914
0
LINE
8
0
10
315.5929191
20
-53.3341524
11
315.6831909
21
-51.1676304
0
LINE
8
0
10
317.681457
20
-49.2508914
11
335.8605565
21
-49.2508914
0
LINE
8
0
10
337.8580612
20
-51.1510162
11
337.9180488
21
-52.3507667
0
LINE
8
0
10
339.9155535
20
-54.2508915
11
354.513055
21
-54.2508915
0
LINE
8
0
10
356.513055
20
-56.2508915
11
356.513055
21
-63.9483022
0
LINE
8
0
10
358.3059538
20
-65.9375506
11
360.9761293
21
-66.2155432
0
ARC
8
0
10
399.4207437
20
-71.5869231
40
2
50
355.0000024
51
85.0000024
0
ARC
8
0
10
391.7510385
20
-159.2520566
40
2
50
265.0000024
51
355.0000024
0
ARC
8
0
10
355.1447299
20
-156.0494196
40
2
50
174.88949
51
265.0000024
0
ARC
8
0
10
351.8262076
20
-148.2508915
40
2
50
354.88949
51
90
0
ARC
8
0
10
336.6155535
20
-144.2508915
40
2
50
177.1375956
51
270
0
ARC
8
0
10
332.6605565
20
-143.2508914
40
2
50
357.1375956
51
90
0
ARC
8
0
10
320.8481236
20
-143.2508914
40
2
50
90
51
182.3859414
0
ARC
8
0
10
316.9281434
20
-145.2546594
40
2
50
270.1036367
51
2.3859414
0
ARC
8
0
10
302.5777801
20
-149.2806235
40
2
50
90.1036367
51
184.9999976
0
ARC
8
0
10
299.7095609
20
-162.3915806
40
2
50
274.7068812
51
4.9999976
0
ARC
8
0
10
282.4075501
20
-167.8296929
40
2
50
94.7068812
51
102.5734969
0
ARC
8
0
10
267.9850649
20
-171.0464972
40
2
50
102.5734969
51
120.0000001
0
ARC
8
0
10
248.9300079
20
-177.4291374
40
2
50
210.0000001
51
300.0000001
0
ARC
8
0
10
236.1800079
20
-155.3454896
40
2
50
120.0000001
51
210.0000001
0
ARC
8
0
10
242.1313768
20
-147.290663
40
2
50
300.0000001
51
16.2124038
0
ARC
8
0
10
243.5114261
20
-137.7102903
40
2
50
194.9999979
51
196.2124038
0
ARC
8
0
10
238.5993406
20
-119.3781378
40
2
50
104.9999979
51
194.9999979
0
ARC
8
0
10
254.2436585
20
-111.0451506
40
2
50
284.9999979
51
358.0773888
0
ARC
8
0
10
258.263055
20
-59.2508914
40
2
50
90
51
180
0
ARC
8
0
10
296.0026564
20
-55.2508914
40
2
50
270
51
311.6335384
0
ARC
8
0
10
299.7734536
20
-57.2508914
40
2
50
90
51
131.6335384
0
ARC
8
0
10
313.594653
20
-53.2508914
40
2
50
270
51
357.6140586
0
ARC
8
0
10
317.681457
20
-51.2508914
40
2
50
90
51
177.6140586
0
ARC
8
0
10
335.8605565
20
-51.2508914
40
2
50
2.8624044
51
90
0
ARC
8
0
10
339.9155535
20
-52.2508915
40
2
50
182.8624044
51
270
0
ARC
8
0
10
354.513055
20
-56.2508915
40
2
50
0
51
90
0
ARC
8
0
10
358.513055
20
-63.9483022
40
2
50
180
51
264.0563332
0
ARC
8
0
10
361.1832305
20
-64.2262948
40
2
50
264.0563332
51
265.0000024
0
LINE
8
0
10
375.9426569
20
-156.3632727
11
389.8893827
21
-157.5834531
0
LINE
8
0
10
389.8893827
20
-157.5834531
11
391.1095631
21
-143.6367273
0
LINE
8
0
10
391.1095631
20
-143.6367273
11
377.1628373
21
-142.4165469
0
LINE
8
0
10
377.1628373
20
-142.4165469
11
375.9426569
21
-156.3632727
0
LINE
8
0
10
377.4896713
20
-138.6808168
11
391.4363971
21
-139.9009972
0
LINE
8
0
10
391.4363971
20
-139.9009972
11
392.6565775
21
-125.9542714
0
LINE
8
0
10
392.6565775
20
-125.9542714
11
378.7098517
21
-124.734091
0
LINE
8
0
10
378.7098517
20
-124.734091
11
377.4896713
21
-138.6808168
0
LINE
8
0
10
379.0366857
20
-120.9983609
11
392.9834115
21
-122.2185413
0
LINE
8
0
10
392.9834115
20
-122.2185413
11
394.2035919
21
-108.2718155
0
LINE
8
0
10
394.2035919
20
-108.2718155
11
380.2568661
21
-107.0516351
0
LINE
8
0
10
380.2568661
20
-107.0516351
11
379.0366857
21
-120.9983609
0
LINE
8
0
10
380.5837001
20
-103.315905
11
394.5304259
21
-104.5360854
0
LINE
8
0
10
394.5304259
20
-104.5360854
11
395.7506063
21
-90.5893596
0
LINE
8
0
10
395.7506063
20
-90.5893596
11
381.8038805
21
-89.3691792
0
LINE
8
0
10
381.8038805
20
-89.3691792
11
380.5837001
21
-103.315905
0
LINE
8
0
10
382.1307145
20
-85.6334491
11
396.0774403
21
-86.8536295
0
LINE
8
0
10
396.0774403
20
-86.8536295
11
397.2976207
21
-72.9069037
0
LINE
8
0
10
397.2976207
20
-72.9069037
11
383.3508949
21
-71.6867233
0
LINE
8
0
10
383.3508949
20
-71.6867233
11
382.1307145
21
-85.6334491
0
LINE
8
0
10
357.2640063
20
-154.7291025
11
371.2107321
21
-155.9492829
0
LINE
8
0
10
371.2107321
20
-155.9492829
11
372.4309125
21
-142.0025571
0
LINE
8
0
10
372.4309125
20
-142.0025571
11
358.4841867
21
-140.7823767
0
LINE
8
0
10
358.4841867
20
-140.7823767
11
357.2640063
21
-154.7291025
0
LINE
8
0
10
358.8110207
20
-137.0466466
11
372.7577465
21
-138.266827
0
LINE
8
0
10
372.7577465
20
-138.266827
11
373.9779269
21
-124.3201012
0
LINE
8
0
10
373.9779269
20
-124.3201012
11
360.0312011
21
-123.0999208
0
LINE
8
0
10
360.0312011
20
-123.0999208
11
358.8110207
21
-137.0466466
0
LINE
8
0
10
360.3580351
20
-119.3641907
11
374.3047609
21
-120.5843711
0
LINE
8
0
10
374.3047609
20
-120.5843711
11
375.5249413
21
-106.6376453
0
LINE
8
0
10
375.5249413
20
-106.6376453
11
361.5782155
21
-105.4174649
0
LINE
8
0
10
361.5782155
20
-105.4174649
11
360.3580351
21
-119.3641907
0
LINE
8
0
10
361.9050495
20
-101.6817348
11
375.8517753
21
-102.9019152
0
LINE
8
0
10
375.8517753
20
-102.9019152
11
377.0719557
21
-88.9551894
0
LINE
8
0
10
377.0719557
20
-88.9551894
11
363.1252299
21
-87.735009
0
LINE
8
0
10
363.1252299
20
-87.735009
11
361.9050495
21
-101.6817348
0
LINE
8
0
10
363.4520639
20
-83.9992789
11
377.3987897
21
-85.2194593
0
LINE
8
0
10
377.3987897
20
-85.2194593
11
378.6189701
21
-71.2727335
0
LINE
8
0
10
378.6189701
20
-71.2727335
11
364.6722443
21
-70.0525531
0
LINE
8
0
10
364.6722443
20
-70.0525531
11
363.4520639
21
-83.9992789
0
LINE
8
0
10
338.513055
20
-142.7508915
11
352.513055
21
-142.7508915
0
LINE
8
0
10
352.513055
20
-142.7508915
11
352.513055
21
-128.7508915
0
LINE
8
0
10
352.513055
20
-128.7508915
11
338.513055
21
-128.7508915
0
LINE
8
0
10
338.513055
20
-128.7508915
11
338.513055
21
-142.7508915
0
LINE
8
0
10
338.513055
20
-125.0008915
11
352.513055
21
-125.0008915
0
LINE
8
0
10
352.513055
20
-125.0008915
11
352.513055
21
-111.0008915
0
LINE
8
0
10
352.513055
20
-111.0008915
11
338.513055
21
-111.0008915
0
LINE
8
0
10
338.513055
20
-111.0008915
11
338.513055
21
-125.0008915
0
LINE
8
0
10
338.513055
20
-107.2508915
11
352.513055
21
-107.2508915
0
LINE
8
0
10
352.513055
20
-107.2508915
11
352.513055
21
-93.2508915
0
LINE
8
0
10
352.513055
20
-93.2508915
11
338.513055
21
-93.2508915
0
LINE
8
0
10
338.513055
20
-93.2508915
11
338.513055
21
-107.2508915
0
LINE
8
0
10
338.513055
20
-89.5008915
11
352.513055
21
-89.5008915
0
LINE
8
0
10
352.513055
20
-89.5008915
11
352.513055
21
-75.5008915
0
LINE
8
0
10
352.513055
20
-75.5008915
11
338.513055
21
-75.5008915
0
LINE
8
0
10
338.513055
20
-75.5008915
11
338.513055
21
-89.5008915
0
LINE
8
0
10
338.513055
20
-71.7508915
11
352.513055
21
-71.7508915
0
LINE
8
0
10
352.513055
20
-71.7508915
11
352.513055
21
-57.7508915
0
LINE
8
0
10
352.513055
20
-57.7508915
11
338.513055
21
-57.7508915
0
LINE
8
0
10
338.513055
20
-57.7508915
11
338.513055
21
-71.7508915
0
LINE
8
0
10
319.763055
20
-137.7508914
11
333.763055
21
-137.7508914
0
LINE
8
0
10
333.763055
20
-137.7508914
11
333.763055
21
-123.7508914
0
LINE
8
0
10
333.763055
20
-123.7508914
11
319.763055
21
-123.7508914
0
LINE
8
0
10
319.763055
20
-123.7508914
11
319.763055
21
-137.7508914
0
LINE
8
0
10
319.763055
20
-120.0008914
11
333.763055
21
-120.0008914
0
LINE
8
0
10
333.763055
20
-120.0008914
11
333.763055
21
-106.0008914
0
LINE
8
0
10
333.763055
20
-106.0008914
11
319.763055
21
-106.0008914
0
LINE
8
0
10
319.763055
20
-106.0008914
11
319.763055
21
-120.0008914
0
LINE
8
0
10
319.763055
20
-102.2508914
11
333.763055
21
-102.2508914
0
LINE
8
0
10
333.763055
20
-102.2508914
11
333.763055
21
-88.2508914
0
LINE
8
0
10
333.763055
20
-88.2508914
11
319.763055
21
-88.2508914
0
LINE
8
0
10
319.763055
20
-88.2508914
11
319.763055
21
-102.2508914
0
LINE
8
0
10
319.763055
20
-84.5008914
11
333.763055
21
-84.5008914
0
LINE
8
0
10
333.763055
20
-84.5008914
11
333.763055
21
-70.5008914
0
LINE
8
0
10
333.763055
20
-70.5008914
11
319.763055
21
-70.5008914
0
LINE
8
0
10
319.763055
20
-70.5008914
11
319.763055
21
-84.5008914
0
LINE
8
0
10
319.763055
20
-66.7508914
11
333.763055
21
-66.7508914
0
LINE
8
0
10
333.763055
20
-66.7508914
11
333.763055
21
-52.7508914
0
LINE
8
0
10
333.763055
20
-52.7508914
11
319.763055
21
-52.7508914
0
LINE
8
0
10
319.763055
20
-52.7508914
11
319.763055
21
-66.7508914
0
LINE
8
0
10
301.013055
20
-143.7508914
11
315.013055
21
-143.7508914
0
LINE
8
0
10
315.013055
20
-143.7508914
11
315.013055
21
-129.7508914
0
LINE
8
0
10
315.013055
20
-129.7508914
11
301.013055
21
-129.7508914
0
LINE
8
0
10
301.013055
20
-129.7508914
11
301.013055
21
-143.7508914
0
LINE
8
0
10
301.013055
20
-126.0008914
11
315.013055
21
-126.0008914
0
LINE
8
0
10
315.013055
20
-126.0008914
11
315.013055
21
-112.0008914
0
LINE
8
0
10
315.013055
20
-112.0008914
11
301.013055
21
-112.0008914
0
LINE
8
0
10
301.013055
20
-112.0008914
11
301.013055
21
-126.0008914
0
LINE
8
0
10
301.013055
20
-108.2508914
11
315.013055
21
-108.2508914
0
LINE
8
0
10
315.013055
20
-108.2508914
11
315.013055
21
-94.2508914
0
LINE
8
0
10
315.013055
20
-94.2508914
11
301.013055
21
-94.2508914
0
LINE
8
0
10
301.013055
20
-94.2508914
11
301.013055
21
-108.2508914
0
LINE
8
0
10
301.013055
20
-90.5008914
11
315.013055
21
-90.5008914
0
LINE
8
0
10
315.013055
20
-90.5008914
11
315.013055
21
-76.5008914
0
LINE
8
0
10
315.013055
20
-76.5008914
11
301.013055
21
-76.5008914
0
LINE
8
0
10
301.013055
20
-76.5008914
11
301.013055
21
-90.5008914
0
LINE
8
0
10
301.013055
20
-72.7508914
11
315.013055
21
-72.7508914
0
LINE
8
0
10
315.013055
20
-72.7508914
11
315.013055
21
-58.7508914
0
LINE
8
0
10
315.013055
20
-58.7508914
11
301.013055
21
-58.7508914
0
LINE
8
0
10
301.013055
20
-58.7508914
11
301.013055
21
-72.7508914
0
LINE
8
0
10
282.263055
20
-128.0008914
11
296.263055
21
-128.0008914
0
LINE
8
0
10
296.263055
20
-128.0008914
11
296.263055
21
-114.0008914
0
LINE
8
0
10
296.263055
20
-114.0008914
11
282.263055
21
-114.0008914
0
LINE
8
0
10
282.263055
20
-114.0008914
11
282.263055
21
-128.0008914
0
LINE
8
0
10
282.263055
20
-110.2508914
11
296.263055
21
-110.2508914
0
LINE
8
0
10
296.263055
20
-110.2508914
11
296.263055
21
-96.2508914
0
LINE
8
0
10
296.263055
20
-96.2508914
11
282.263055
21
-96.2508914
0
LINE
8
0
10
282.263055
20
-96.2508914
11
282.263055
21
-110.2508914
0
LINE
8
0
10
282.263055
20
-92.5008914
11
296.263055
21
-92.5008914
0
LINE
8
0
10
296.263055
20
-92.5008914
11
296.263055
21
-78.5008914
0
LINE
8
0
10
296.263055
20
-78.5008914
11
282.263055
21
-78.5008914
0
LINE
8
0
10
282.263055
20
-78.5008914
11
282.263055
21
-92.5008914
0
LINE
8
0
10
282.263055
20
-74.7508914
11
296.263055
21
-74.7508914
0
LINE
8
0
10
296.263055
20
-74.7508914
11
296.263055
21
-60.7508914
0
LINE
8
0
10
296.263055
20
-60.7508914
11
282.263055
21
-60.7508914
0
LINE
8
0
10
282.263055
20
-60.7508914
11
282.263055
21
-74.7508914
0
LINE
8
0
10
282.8997823
20
-153.8343445
11
296.8465081
21
-152.6141641
0
LINE
8
0
10
296.8465081
20
-152.6141641
11
295.6263277
21
-138.6674383
0
LINE
8
0
10
295.6263277
20
-138.6674383
11
281.6796019
21
-139.8876187
0
LINE
8
0
10
281.6796019
20
-139.8876187
11
282.8997823
21
-153.8343445
0
LINE
8
0
10
263.5457414
20
-158.3977168
11
277.068703
21
-154.7742502
0
LINE
8
0
10
277.068703
20
-154.7742502
11
273.4452364
21
-141.2512886
0
LINE
8
0
10
273.4452364
20
-141.2512886
11
259.9222748
21
-144.8747552
0
LINE
8
0
10
259.9222748
20
-144.8747552
11
263.5457414
21
-158.3977168
0
LINE
8
0
10
245.6620587
20
-167.7688833
11
257.7864143
21
-160.7688833
0
LINE
8
0
10
257.7864143
20
-160.7688833
11
250.7864143
21
-148.6445277
0
LINE
8
0
10
250.7864143
20
-148.6445277
11
238.6620587
21
-155.6445277
0
LINE
8
0
10
238.6620587
20
-155.6445277
11
245.6620587
21
-167.7688833
0
LINE
8
0
10
263.1497823
20
-129.3343445
11
277.0965081
21
-128.1141641
0
LINE
8
0
10
277.0965081
20
-128.1141641
11
275.8763277
21
-114.1674383
0
LINE
8
0
10
275.8763277
20
-114.1674383
11
261.9296019
21
-115.3876187
0
LINE
8
0
10
261.9296019
20
-115.3876187
11
263.1497823
21
-129.3343445
0
LINE
8
0
10
244.5428874
20
-133.83235
11
258.065849
21
-130.2088834
0
LINE
8
0
10
258.065849
20
-130.2088834
11
254.4423824
21
-116.6859218
0
LINE
8
0
10
254.4423824
20
-116.6859218
11
240.9194208
21
-120.3093884
0
LINE
8
0
10
240.9194208
20
-120.3093884
11
244.5428874
21
-133.83235
0
ENDSEC
0
EOF