solid csg.js
facet normal 0 0 -1
outer loop
vertex 77.33917949999999 -64.7540725 0
vertex 80.08917963749997 -62.7540724 0
vertex 96.08917963749997 -62.7540724 0
endloop
endfacet
facet normal 0 0 -1
outer loop
vertex 77.33917949999999 -64.7540725 0
vertex 96.08917963749997 -62.7540724 0
vertex 117.5891795 -62.7540724 0
endloop
endfacet
facet normal 0 0 -1
outer loop
vertex 77.33917949999999 -64.7540725 0
vertex 117.5891795 -62.7540724 0
vertex 133.58917950000003 -62.7540724 0
endloop
endfacet
facet normal 0 0 -1
outer loop
vertex 77.33917949999999 -64.7540725 0
vertex 133.58917950000003 -62.7540724 0
vertex 135.26373693664172 -63.97193235392123 0
endloop
endfacet
facet normal 0 0 -1
outer loop
vertex 77.33917949999999 -64.7540725 0
vertex 135.26373693664172 -63.97193235392123 0
vertex 112.86617707827115 -64.7540724 0
endloop
endfacet
facet normal 0 0 -1
outer loop
vertex 77.33917949999999 -64.7540725 0
vertex 112.86617707827115 -64.7540724 0
vertex 75.54727292075646 -66.0572772849044 0
endloop
endfacet
facet normal 0 0 -1
outer loop
vertex 136.3391795 -64.7540724 0
vertex 178.8391795 -64.7540724 0
vertex 178.8391795 -81.0492350409981 0
endloop
endfacet
facet normal 0 0 -1
outer loop
vertex 136.3391795 -64.7540724 0
vertex 178.8391795 -81.0492350409981 0
vertex 61.33917949999994 -159.7540725 0
endloop
endfacet
facet normal 0 0 -1
outer loop
vertex 136.3391795 -64.7540724 0
vertex 61.33917949999994 -159.7540725 0
vertex 58.413920599999955 -161.713494 0
endloop
endfacet
facet normal 0 0 -1
outer loop
vertex 136.3391795 -64.7540724 0
vertex 58.413920599999955 -161.713494 0
vertex 37.9264086 -162.4289336 0
endloop
endfacet
facet normal 0 0 -1
outer loop
vertex 136.3391795 -64.7540724 0
vertex 37.9264086 -162.4289336 0
vertex 34.6109563 -67.486805 0
endloop
endfacet
facet normal 0 0 -1
outer loop
vertex 136.3391795 -64.7540724 0
vertex 34.6109563 -67.486805 0
vertex 56.09785910000001 -66.73646579999999 0
endloop
endfacet
facet normal 0 0 -1
outer loop
vertex 136.3391795 -64.7540724 0
vertex 56.09785910000001 -66.73646579999999 0
vertex 75.54727292075646 -66.0572772849044 0
endloop
endfacet
facet normal 0 0 -1
outer loop
vertex 136.3391795 -64.7540724 0
vertex 75.54727292075646 -66.0572772849044 0
vertex 112.86617707827115 -64.7540724 0
endloop
endfacet
facet normal 0 0 -1
outer loop
vertex 61.339179499999986 -64.7540725 0
vertex 77.33917949999999 -64.7540725 0
vertex 75.54727292075646 -66.0572772849044 0
endloop
endfacet
facet normal 0 0 -1
outer loop
vertex 61.339179499999986 -64.7540725 0
vertex 75.54727292075646 -66.0572772849044 0
vertex 56.09785910000001 -66.73646579999999 0
endloop
endfacet
facet normal 0 0 -1
outer loop
vertex 98.83917949999997 -60.7540724 0
vertex 114.83917950000001 -60.7540724 0
vertex 117.5891795 -62.7540724 0
endloop
endfacet
facet normal 0 0 -1
outer loop
vertex 98.83917949999997 -60.7540724 0
vertex 117.5891795 -62.7540724 0
vertex 96.08917963749997 -62.7540724 0
endloop
endfacet
facet normal 0 0 -1
outer loop
vertex 136.3391795 -64.7540724 0
vertex 112.86617707827115 -64.7540724 0
vertex 135.26373693664172 -63.97193235392123 0
endloop
endfacet
facet normal 0 0 -1
outer loop
vertex 178.8391795 -85.93589068181817 0
vertex 80.08917949999999 -157.7540725 0
vertex 77.33917949999999 -159.7540725 0
endloop
endfacet
facet normal 0 0 -1
outer loop
vertex 178.8391795 -85.93589068181817 0
vertex 77.33917949999999 -159.7540725 0
vertex 61.33917949999994 -159.7540725 0
endloop
endfacet
facet normal 0 0 -1
outer loop
vertex 178.8391795 -85.93589068181817 0
vertex 61.33917949999994 -159.7540725 0
vertex 178.8391795 -81.0492350409981 0
endloop
endfacet
facet normal 0 0 -1
outer loop
vertex 203.8283155 -160.2529991 0
vertex 195.37466591307998 -174.8951496853783 0
vertex 152.46642269999995 -171.2286811 0
endloop
endfacet
facet normal 0 0 -1
outer loop
vertex 203.8283155 -160.2529991 0
vertex 152.46642269999995 -171.2286811 0
vertex 130.5576207 -169.3565948 0
endloop
endfacet
facet normal 0 0 -1
outer loop
vertex 203.8283155 -160.2529991 0
vertex 130.5576207 -169.3565948 0
vertex 131.6844584737137 -159.15483073683 0
endloop
endfacet
facet normal 0 0 -1
outer loop
vertex 203.8283155 -160.2529991 0
vertex 131.6844584737137 -159.15483073683 0
vertex 171.79693084196657 -157.7540725 0
endloop
endfacet
facet normal 0 0 -1
outer loop
vertex 203.8283155 -160.2529991 0
vertex 171.79693084196657 -157.7540725 0
vertex 197.92000553664062 -156.8418347372923 0
endloop
endfacet
facet normal 0 0 -1
outer loop
vertex 192.1323680576236 -180.51097430102078 0
vertex 168.22671859999997 -174.9167739 0
vertex 152.46642269999995 -171.2286811 0
endloop
endfacet
facet normal 0 0 -1
outer loop
vertex 192.1323680576236 -180.51097430102078 0
vertex 152.46642269999995 -171.2286811 0
vertex 195.37466591307998 -174.8951496853783 0
endloop
endfacet
facet normal 0 0 -1
outer loop
vertex 131.8391794889545 -157.7540725 0
vertex 171.79693084196657 -157.7540725 0
vertex 131.6844584737137 -159.15483073683 0
endloop
endfacet
facet normal 0 0 -1
outer loop
vertex 188.57831550000003 -186.66677390000004 0
vertex 168.22671859999997 -174.9167739 0
vertex 192.1323680576236 -180.51097430102078 0
endloop
endfacet
facet normal 0 0 -1
outer loop
vertex 178.8391795 -97.57225130909107 0
vertex 175.89621360105042 -99.71259025170771 0
vertex 155.874908455414 -114.27354017658163 0
endloop
endfacet
facet normal 0 0 -1
outer loop
vertex 178.8391795 -97.57225130909107 0
vertex 155.874908455414 -114.27354017658163 0
vertex 141.8528148383183 -124.4714269534546 0
endloop
endfacet
facet normal 0 0 -1
outer loop
vertex 178.8391795 -97.57225130909107 0
vertex 141.8528148383183 -124.4714269534546 0
vertex 98.83917950000001 -155.7540724 0
endloop
endfacet
facet normal 0 0 -1
outer loop
vertex 178.8391795 -97.57225130909107 0
vertex 98.83917950000001 -155.7540724 0
vertex 96.08917950000001 -157.7540725 0
endloop
endfacet
facet normal 0 0 -1
outer loop
vertex 178.8391795 -97.57225130909107 0
vertex 96.08917950000001 -157.7540725 0
vertex 80.08917949999999 -157.7540725 0
endloop
endfacet
facet normal 0 0 -1
outer loop
vertex 178.8391795 -97.57225130909107 0
vertex 80.08917949999999 -157.7540725 0
vertex 178.8391795 -85.93589068181817 0
endloop
endfacet
facet normal 0 0 -1
outer loop
vertex 191.7039599 -153.2529991 0
vertex 196.03594591012364 -155.7540724 0
vertex 114.8391795 -155.7540724 0
endloop
endfacet
facet normal 0 0 -1
outer loop
vertex 191.7039599 -153.2529991 0
vertex 114.8391795 -155.7540724 0
vertex 98.83917950000001 -155.7540724 0
endloop
endfacet
facet normal 0 0 -1
outer loop
vertex 191.7039599 -153.2529991 0
vertex 98.83917950000001 -155.7540724 0
vertex 141.8528148383183 -124.4714269534546 0
endloop
endfacet
facet normal 0 0 -1
outer loop
vertex 197.92000553664062 -156.8418347372923 0
vertex 171.79693084196657 -157.7540725 0
vertex 131.8391794889545 -157.7540725 0
endloop
endfacet
facet normal 0 0 -1
outer loop
vertex 197.92000553664062 -156.8418347372923 0
vertex 131.8391794889545 -157.7540725 0
vertex 117.58917963750002 -157.7540725 0
endloop
endfacet
facet normal 0 0 -1
outer loop
vertex 197.92000553664062 -156.8418347372923 0
vertex 117.58917963750002 -157.7540725 0
vertex 114.8391795 -155.7540724 0
endloop
endfacet
facet normal 0 0 -1
outer loop
vertex 197.92000553664062 -156.8418347372923 0
vertex 114.8391795 -155.7540724 0
vertex 196.03594591012364 -155.7540724 0
endloop
endfacet
facet normal 0 0 -1
outer loop
vertex 179.24654009999998 -120.53594989999998 0
vertex 199.28950100000003 -125.90644499999998 0
vertex 191.7039599 -153.2529991 0
endloop
endfacet
facet normal 0 0 -1
outer loop
vertex 179.24654009999998 -120.53594989999998 0
vertex 191.7039599 -153.2529991 0
vertex 141.8528148383183 -124.4714269534546 0
endloop
endfacet
facet normal 0 0 -1
outer loop
vertex 179.24654009999998 -120.53594989999998 0
vertex 141.8528148383183 -124.4714269534546 0
vertex 155.874908455414 -114.27354017658163 0
endloop
endfacet
facet normal 0 0 -1
outer loop
vertex 178.8391795 -118.00407240000014 0
vertex 179.24654009999998 -120.53594989999998 0
vertex 155.874908455414 -114.27354017658163 0
endloop
endfacet
facet normal 0 0 -1
outer loop
vertex 178.8391795 -118.00407240000014 0
vertex 155.874908455414 -114.27354017658163 0
vertex 175.89621360105042 -99.71259025170771 0
endloop
endfacet
facet normal 0 0 -1
outer loop
vertex 178.8391795 -118.00407240000014 0
vertex 175.89621360105042 -99.71259025170771 0
vertex 178.8391795 -97.57225130909107 0
endloop
endfacet
facet normal 0 0 1
outer loop
vertex 117.58917950000001 -62.7540724 1.2
vertex 96.08917963749997 -62.7540724 1.2
vertex 80.08917963750001 -62.7540724 1.2
endloop
endfacet
facet normal 0 0 1
outer loop
vertex 117.58917950000001 -62.7540724 1.2
vertex 80.08917963750001 -62.7540724 1.2
vertex 77.33917950000001 -64.7540725 1.2
endloop
endfacet
facet normal 0 0 1
outer loop
vertex 117.58917950000001 -62.7540724 1.2
vertex 77.33917950000001 -64.7540725 1.2
vertex 75.54727292075646 -66.05727728490442 1.2
endloop
endfacet
facet normal 0 0 1
outer loop
vertex 117.58917950000001 -62.7540724 1.2
vertex 75.54727292075646 -66.05727728490442 1.2
vertex 112.86617707827136 -64.7540724 1.2
endloop
endfacet
facet normal 0 0 1
outer loop
vertex 117.58917950000001 -62.7540724 1.2
vertex 112.86617707827136 -64.7540724 1.2
vertex 135.26373693664172 -63.97193235392125 1.2
endloop
endfacet
facet normal 0 0 1
outer loop
vertex 117.58917950000001 -62.7540724 1.2
vertex 135.26373693664172 -63.97193235392125 1.2
vertex 133.5891795 -62.7540724 1.2
endloop
endfacet
facet normal 0 0 1
outer loop
vertex 178.8391795 -64.7540724 1.2
vertex 136.3391795 -64.7540724 1.2
vertex 112.86617707827136 -64.7540724 1.2
endloop
endfacet
facet normal 0 0 1
outer loop
vertex 178.8391795 -64.7540724 1.2
vertex 112.86617707827136 -64.7540724 1.2
vertex 75.54727292075646 -66.05727728490442 1.2
endloop
endfacet
facet normal 0 0 1
outer loop
vertex 178.8391795 -64.7540724 1.2
vertex 75.54727292075646 -66.05727728490442 1.2
vertex 56.09785910000001 -66.7364658 1.2
endloop
endfacet
facet normal 0 0 1
outer loop
vertex 178.8391795 -64.7540724 1.2
vertex 56.09785910000001 -66.7364658 1.2
vertex 34.6109563 -67.486805 1.2
endloop
endfacet
facet normal 0 0 1
outer loop
vertex 178.8391795 -64.7540724 1.2
vertex 34.6109563 -67.486805 1.2
vertex 37.926408600000016 -162.42893360000002 1.2
endloop
endfacet
facet normal 0 0 1
outer loop
vertex 178.8391795 -64.7540724 1.2
vertex 37.926408600000016 -162.42893360000002 1.2
vertex 58.413920599999926 -161.71349400000003 1.2
endloop
endfacet
facet normal 0 0 1
outer loop
vertex 178.8391795 -64.7540724 1.2
vertex 58.413920599999926 -161.71349400000003 1.2
vertex 61.33917949999997 -159.7540725 1.2
endloop
endfacet
facet normal 0 0 1
outer loop
vertex 178.8391795 -64.7540724 1.2
vertex 61.33917949999997 -159.7540725 1.2
vertex 178.8391795 -81.0492350409981 1.2
endloop
endfacet
facet normal 0 0 1
outer loop
vertex 77.33917950000001 -64.7540725 1.2
vertex 61.3391795 -64.7540725 1.2
vertex 56.09785910000001 -66.7364658 1.2
endloop
endfacet
facet normal 0 0 1
outer loop
vertex 77.33917950000001 -64.7540725 1.2
vertex 56.09785910000001 -66.7364658 1.2
vertex 75.54727292075646 -66.05727728490442 1.2
endloop
endfacet
facet normal 0 0 1
outer loop
vertex 98.83917949999999 -60.7540724 1.2
vertex 96.08917963749997 -62.7540724 1.2
vertex 117.58917950000001 -62.7540724 1.2
endloop
endfacet
facet normal 0 0 1
outer loop
vertex 98.83917949999999 -60.7540724 1.2
vertex 117.58917950000001 -62.7540724 1.2
vertex 114.83917950000001 -60.7540724 1.2
endloop
endfacet
facet normal 0 0 1
outer loop
vertex 136.3391795 -64.7540724 1.2
vertex 135.26373693664172 -63.97193235392125 1.2
vertex 112.86617707827136 -64.7540724 1.2
endloop
endfacet
facet normal 0 0 1
outer loop
vertex 178.8391795 -81.0492350409981 1.2
vertex 61.33917949999997 -159.7540725 1.2
vertex 77.33917949999997 -159.7540725 1.2
endloop
endfacet
facet normal 0 0 1
outer loop
vertex 178.8391795 -81.0492350409981 1.2
vertex 77.33917949999997 -159.7540725 1.2
vertex 80.08917949999997 -157.7540725 1.2
endloop
endfacet
facet normal 0 0 1
outer loop
vertex 178.8391795 -81.0492350409981 1.2
vertex 80.08917949999997 -157.7540725 1.2
vertex 178.8391795 -85.93589068181818 1.2
endloop
endfacet
facet normal 0 0 1
outer loop
vertex 197.92000553664062 -156.8418347372923 1.2
vertex 171.79693084196674 -157.7540725 1.2
vertex 131.6844584737137 -159.15483073683004 1.2
endloop
endfacet
facet normal 0 0 1
outer loop
vertex 197.92000553664062 -156.8418347372923 1.2
vertex 131.6844584737137 -159.15483073683004 1.2
vertex 130.5576207 -169.35659479999998 1.2
endloop
endfacet
facet normal 0 0 1
outer loop
vertex 197.92000553664062 -156.8418347372923 1.2
vertex 130.5576207 -169.35659479999998 1.2
vertex 152.46642269999984 -171.22868109999996 1.2
endloop
endfacet
facet normal 0 0 1
outer loop
vertex 197.92000553664062 -156.8418347372923 1.2
vertex 152.46642269999984 -171.22868109999996 1.2
vertex 195.37466591307998 -174.8951496853783 1.2
endloop
endfacet
facet normal 0 0 1
outer loop
vertex 197.92000553664062 -156.8418347372923 1.2
vertex 195.37466591307998 -174.8951496853783 1.2
vertex 203.82831550000003 -160.2529991 1.2
endloop
endfacet
facet normal 0 0 1
outer loop
vertex 195.37466591307998 -174.8951496853783 1.2
vertex 152.46642269999984 -171.22868109999996 1.2
vertex 168.2267186 -174.9167739 1.2
endloop
endfacet
facet normal 0 0 1
outer loop
vertex 195.37466591307998 -174.8951496853783 1.2
vertex 168.2267186 -174.9167739 1.2
vertex 192.1323680576236 -180.51097430102078 1.2
endloop
endfacet
facet normal 0 0 1
outer loop
vertex 131.8391794889545 -157.7540725 1.2
vertex 131.6844584737137 -159.15483073683004 1.2
vertex 171.79693084196674 -157.7540725 1.2
endloop
endfacet
facet normal 0 0 1
outer loop
vertex 192.1323680576236 -180.51097430102078 1.2
vertex 168.2267186 -174.9167739 1.2
vertex 188.57831550000006 -186.66677390000004 1.2
endloop
endfacet
facet normal 0 0 1
outer loop
vertex 178.8391795 -85.93589068181818 1.2
vertex 80.08917949999997 -157.7540725 1.2
vertex 96.08917950000001 -157.7540725 1.2
endloop
endfacet
facet normal 0 0 1
outer loop
vertex 178.8391795 -85.93589068181818 1.2
vertex 96.08917950000001 -157.7540725 1.2
vertex 98.83917950000001 -155.7540724 1.2
endloop
endfacet
facet normal 0 0 1
outer loop
vertex 178.8391795 -85.93589068181818 1.2
vertex 98.83917950000001 -155.7540724 1.2
vertex 141.8528148383183 -124.47142695345461 1.2
endloop
endfacet
facet normal 0 0 1
outer loop
vertex 178.8391795 -85.93589068181818 1.2
vertex 141.8528148383183 -124.47142695345461 1.2
vertex 155.87490845541402 -114.27354017658162 1.2
endloop
endfacet
facet normal 0 0 1
outer loop
vertex 178.8391795 -85.93589068181818 1.2
vertex 155.87490845541402 -114.27354017658162 1.2
vertex 175.89621360105042 -99.71259025170772 1.2
endloop
endfacet
facet normal 0 0 1
outer loop
vertex 178.8391795 -85.93589068181818 1.2
vertex 175.89621360105042 -99.71259025170772 1.2
vertex 178.8391795 -97.57225130909109 1.2
endloop
endfacet
facet normal 0 0 1
outer loop
vertex 191.7039599 -153.2529991 1.2
vertex 141.8528148383183 -124.47142695345461 1.2
vertex 98.83917950000001 -155.7540724 1.2
endloop
endfacet
facet normal 0 0 1
outer loop
vertex 191.7039599 -153.2529991 1.2
vertex 98.83917950000001 -155.7540724 1.2
vertex 114.8391795 -155.7540724 1.2
endloop
endfacet
facet normal 0 0 1
outer loop
vertex 191.7039599 -153.2529991 1.2
vertex 114.8391795 -155.7540724 1.2
vertex 196.03594591012364 -155.7540724 1.2
endloop
endfacet
facet normal 0 0 1
outer loop
vertex 196.03594591012364 -155.7540724 1.2
vertex 114.8391795 -155.7540724 1.2
vertex 117.5891796375 -157.7540725 1.2
endloop
endfacet
facet normal 0 0 1
outer loop
vertex 196.03594591012364 -155.7540724 1.2
vertex 117.5891796375 -157.7540725 1.2
vertex 131.8391794889545 -157.7540725 1.2
endloop
endfacet
facet normal 0 0 1
outer loop
vertex 196.03594591012364 -155.7540724 1.2
vertex 131.8391794889545 -157.7540725 1.2
vertex 171.79693084196674 -157.7540725 1.2
endloop
endfacet
facet normal 0 0 1
outer loop
vertex 196.03594591012364 -155.7540724 1.2
vertex 171.79693084196674 -157.7540725 1.2
vertex 197.92000553664062 -156.8418347372923 1.2
endloop
endfacet
facet normal 0 0 1
outer loop
vertex 179.2465401 -120.53594989999999 1.2
vertex 155.87490845541402 -114.27354017658162 1.2
vertex 141.8528148383183 -124.47142695345461 1.2
endloop
endfacet
facet normal 0 0 1
outer loop
vertex 179.2465401 -120.53594989999999 1.2
vertex 141.8528148383183 -124.47142695345461 1.2
vertex 191.7039599 -153.2529991 1.2
endloop
endfacet
facet normal 0 0 1
outer loop
vertex 179.2465401 -120.53594989999999 1.2
vertex 191.7039599 -153.2529991 1.2
vertex 199.289501 -125.90644499999999 1.2
endloop
endfacet
facet normal 0 0 1
outer loop
vertex 178.8391795 -118.0040724 1.2
vertex 175.89621360105042 -99.71259025170772 1.2
vertex 155.87490845541402 -114.27354017658162 1.2
endloop
endfacet
facet normal 0 0 1
outer loop
vertex 178.8391795 -118.0040724 1.2
vertex 155.87490845541402 -114.27354017658162 1.2
vertex 179.2465401 -120.53594989999999 1.2
endloop
endfacet
facet normal 0 0 1
outer loop
vertex 178.8391795 -97.57225130909109 1.2
vertex 175.89621360105042 -99.71259025170772 1.2
vertex 178.8391795 -118.0040724 1.2
endloop
endfacet
facet normal -0.03489949764227162 0.9993908269862783 0
outer loop
vertex 34.6109563 -67.486805 1.2
vertex 56.09785910000001 -66.7364658 1.2
vertex 56.09785910000001 -66.73646579999999 0
endloop
endfacet
facet normal -0.03489949764227162 0.9993908269862783 0
outer loop
vertex 34.6109563 -67.486805 1.2
vertex 56.09785910000001 -66.73646579999999 0
vertex 34.6109563 -67.486805 0
endloop
endfacet
facet normal -0.9993908269779384 -0.03489949788109925 0
outer loop
vertex 37.926408600000016 -162.42893360000002 1.2
vertex 34.6109563 -67.486805 1.2
vertex 34.6109563 -67.486805 0
endloop
endfacet
facet normal -0.9993908269779384 -0.03489949788109925 0
outer loop
vertex 37.926408600000016 -162.42893360000002 1.2
vertex 34.6109563 -67.486805 0
vertex 37.9264086 -162.4289336 0
endloop
endfacet
facet normal 0.03489949260938375 -0.9993908271620306 0
outer loop
vertex 58.413920599999926 -161.71349400000003 1.2
vertex 37.926408600000016 -162.42893360000002 1.2
vertex 37.9264086 -162.4289336 0
endloop
endfacet
facet normal 0.03489949260938375 -0.9993908271620306 0
outer loop
vertex 58.413920599999926 -161.71349400000003 1.2
vertex 37.9264086 -162.4289336 0
vertex 58.413920599999955 -161.713494 0
endloop
endfacet
facet normal 0.5565174837971102 -0.8308358984950838 0
outer loop
vertex 61.33917949999997 -159.7540725 1.2
vertex 58.413920599999926 -161.71349400000003 1.2
vertex 58.413920599999955 -161.713494 0
endloop
endfacet
facet normal 0.5565174837971102 -0.8308358984950838 0
outer loop
vertex 61.33917949999997 -159.7540725 1.2
vertex 58.413920599999955 -161.713494 0
vertex 61.33917949999994 -159.7540725 0
endloop
endfacet
facet normal 0 -1 0
outer loop
vertex 77.33917949999997 -159.7540725 1.2
vertex 61.33917949999997 -159.7540725 1.2
vertex 61.33917949999994 -159.7540725 0
endloop
endfacet
facet normal 0 -1 0
outer loop
vertex 77.33917949999997 -159.7540725 1.2
vertex 61.33917949999994 -159.7540725 0
vertex 77.33917949999999 -159.7540725 0
endloop
endfacet
facet normal 0.588171697675048 -0.8087360843031874 0
outer loop
vertex 80.08917949999997 -157.7540725 1.2
vertex 77.33917949999997 -159.7540725 1.2
vertex 77.33917949999999 -159.7540725 0
endloop
endfacet
facet normal 0.588171697675048 -0.8087360843031874 0
outer loop
vertex 80.08917949999997 -157.7540725 1.2
vertex 77.33917949999999 -159.7540725 0
vertex 80.08917949999999 -157.7540725 0
endloop
endfacet
facet normal 0 -1 0
outer loop
vertex 96.08917950000001 -157.7540725 1.2
vertex 80.08917949999997 -157.7540725 1.2
vertex 80.08917949999999 -157.7540725 0
endloop
endfacet
facet normal 0 -1 0
outer loop
vertex 96.08917950000001 -157.7540725 1.2
vertex 80.08917949999999 -157.7540725 0
vertex 96.08917950000001 -157.7540725 0
endloop
endfacet
facet normal 0.5881717169098443 -0.8087360703142441 0
outer loop
vertex 98.83917950000001 -155.7540724 1.2
vertex 96.08917950000001 -157.7540725 1.2
vertex 96.08917950000001 -157.7540725 0
endloop
endfacet
facet normal 0.5881717169098443 -0.8087360703142441 0
outer loop
vertex 98.83917950000001 -155.7540724 1.2
vertex 96.08917950000001 -157.7540725 0
vertex 98.83917950000001 -155.7540724 0
endloop
endfacet
facet normal 0 -1 0
outer loop
vertex 114.8391795 -155.7540724 1.2
vertex 98.83917950000001 -155.7540724 1.2
vertex 98.83917950000001 -155.7540724 0
endloop
endfacet
facet normal 0 -1 0
outer loop
vertex 114.8391795 -155.7540724 1.2
vertex 98.83917950000001 -155.7540724 0
vertex 114.8391795 -155.7540724 0
endloop
endfacet
facet normal -0.5881716976750306 -0.8087360843032 0
outer loop
vertex 117.5891796375 -157.7540725 1.2
vertex 114.8391795 -155.7540724 1.2
vertex 114.8391795 -155.7540724 0
endloop
endfacet
facet normal -0.5881716976750306 -0.8087360843032 0
outer loop
vertex 117.5891796375 -157.7540725 1.2
vertex 114.8391795 -155.7540724 0
vertex 117.58917963750002 -157.7540725 0
endloop
endfacet
facet normal 0 -1 0
outer loop
vertex 131.8391794889545 -157.7540725 1.2
vertex 117.5891796375 -157.7540725 1.2
vertex 117.58917963750002 -157.7540725 0
endloop
endfacet
facet normal 0 -1 0
outer loop
vertex 131.8391794889545 -157.7540725 1.2
vertex 117.58917963750002 -157.7540725 0
vertex 131.8391794889545 -157.7540725 0
endloop
endfacet
facet normal 0 0 -1
outer loop
vertex 130.5576207 -169.35659479999998 1.2
vertex 131.6844584737137 -159.15483073683004 1.2
vertex 131.8391794889545 -157.7540725 1.2
endloop
endfacet
facet normal 0 0 -1
outer loop
vertex 130.5576207 -169.35659479999998 1.2
vertex 131.8391794889545 -157.7540725 1.2
vertex 131.8391794889545 -157.7540725 0
endloop
endfacet
facet normal -0.9939550823368454 0.10978749608564263 4.306618453006398e-14
outer loop
vertex 130.5576207 -169.35659479999998 1.2
vertex 131.8391794889545 -157.7540725 0
vertex 131.6844584737137 -159.15483073683 0
endloop
endfacet
facet normal -0.9939550823368454 0.10978749608564263 4.306618453006398e-14
outer loop
vertex 130.5576207 -169.35659479999998 1.2
vertex 131.6844584737137 -159.15483073683 0
vertex 130.5576207 -169.3565948 0
endloop
endfacet
facet normal -0.08513879235829336 -0.9963691013052198 0
outer loop
vertex 152.46642269999984 -171.22868109999996 1.2
vertex 130.5576207 -169.35659479999998 1.2
vertex 130.5576207 -169.3565948 0
endloop
endfacet
facet normal -0.08513879235829336 -0.9963691013052198 0
outer loop
vertex 152.46642269999984 -171.22868109999996 1.2
vertex 130.5576207 -169.3565948 0
vertex 152.46642269999995 -171.2286811 0
endloop
endfacet
facet normal -0.2278559368154164 -0.9736948557212208 0
outer loop
vertex 168.2267186 -174.9167739 1.2
vertex 152.46642269999984 -171.22868109999996 1.2
vertex 152.46642269999995 -171.2286811 0
endloop
endfacet
facet normal -0.2278559368154164 -0.9736948557212208 0
outer loop
vertex 168.2267186 -174.9167739 1.2
vertex 152.46642269999995 -171.2286811 0
vertex 168.22671859999997 -174.9167739 0
endloop
endfacet
facet normal -0.5000000016387175 -0.8660254028383249 0
outer loop
vertex 188.57831550000006 -186.66677390000004 1.2
vertex 168.2267186 -174.9167739 1.2
vertex 168.22671859999997 -174.9167739 0
endloop
endfacet
facet normal -0.5000000016387175 -0.8660254028383249 0
outer loop
vertex 188.57831550000006 -186.66677390000004 1.2
vertex 168.22671859999997 -174.9167739 0
vertex 188.57831550000003 -186.66677390000004 0
endloop
endfacet
facet normal 0 0 1
outer loop
vertex 203.82831550000003 -160.2529991 1.2
vertex 195.37466591307998 -174.8951496853783 1.2
vertex 192.1323680576236 -180.51097430102078 1.2
endloop
endfacet
facet normal 0 0 1
outer loop
vertex 203.82831550000003 -160.2529991 1.2
vertex 192.1323680576236 -180.51097430102078 1.2
vertex 188.57831550000006 -186.66677390000004 1.2
endloop
endfacet
facet normal 0 0 1
outer loop
vertex 203.82831550000003 -160.2529991 1.2
vertex 188.57831550000006 -186.66677390000004 1.2
vertex 188.57831550000003 -186.66677390000004 0
endloop
endfacet
facet normal 0.8660254036580022 -0.5000000002189944 -3.9984931260916135e-14
outer loop
vertex 203.82831550000003 -160.2529991 1.2
vertex 188.57831550000003 -186.66677390000004 0
vertex 192.1323680576236 -180.51097430102078 0
endloop
endfacet
facet normal 0.8660254036580022 -0.5000000002189944 -3.9984931260916135e-14
outer loop
vertex 203.82831550000003 -160.2529991 1.2
vertex 192.1323680576236 -180.51097430102078 0
vertex 195.37466591307998 -174.8951496853783 0
endloop
endfacet
facet normal 0.8660254036580022 -0.5000000002189944 -3.9984931260916135e-14
outer loop
vertex 203.82831550000003 -160.2529991 1.2
vertex 195.37466591307998 -174.8951496853783 0
vertex 203.8283155 -160.2529991 0
endloop
endfacet
facet normal 0 0 1
outer loop
vertex 191.7039599 -153.2529991 1.2
vertex 196.03594591012364 -155.7540724 1.2
vertex 197.92000553664062 -156.8418347372923 1.2
endloop
endfacet
facet normal 0 0 1
outer loop
vertex 191.7039599 -153.2529991 1.2
vertex 197.92000553664062 -156.8418347372923 1.2
vertex 203.82831550000003 -160.2529991 1.2
endloop
endfacet
facet normal 0 0 1
outer loop
vertex 191.7039599 -153.2529991 1.2
vertex 203.82831550000003 -160.2529991 1.2
vertex 203.8283155 -160.2529991 0
endloop
endfacet
facet normal 0.5000000016387111 0.8660254028383283 1.3886611970520474e-14
outer loop
vertex 191.7039599 -153.2529991 1.2
vertex 203.8283155 -160.2529991 0
vertex 197.92000553664062 -156.8418347372923 0
endloop
endfacet
facet normal 0.5000000016387111 0.8660254028383283 1.3886611970520474e-14
outer loop
vertex 191.7039599 -153.2529991 1.2
vertex 197.92000553664062 -156.8418347372923 0
vertex 196.03594591012364 -155.7540724 0
endloop
endfacet
facet normal 0.5000000016387111 0.8660254028383283 1.3886611970520474e-14
outer loop
vertex 191.7039599 -153.2529991 1.2
vertex 196.03594591012364 -155.7540724 0
vertex 191.7039599 -153.2529991 0
endloop
endfacet
facet normal 0.9636152935652292 -0.26729303396683773 0
outer loop
vertex 199.289501 -125.90644499999999 1.2
vertex 191.7039599 -153.2529991 1.2
vertex 191.7039599 -153.2529991 0
endloop
endfacet
facet normal 0.9636152935652292 -0.26729303396683773 0
outer loop
vertex 199.289501 -125.90644499999999 1.2
vertex 191.7039599 -153.2529991 0
vertex 199.28950100000003 -125.90644499999998 0
endloop
endfacet
facet normal 0.25881904118685395 0.965925827338268 0
outer loop
vertex 179.2465401 -120.53594989999999 1.2
vertex 199.289501 -125.90644499999999 1.2
vertex 199.28950100000003 -125.90644499999998 0
endloop
endfacet
facet normal 0.25881904118685395 0.965925827338268 0
outer loop
vertex 179.2465401 -120.53594989999999 1.2
vertex 199.28950100000003 -125.90644499999998 0
vertex 179.24654009999998 -120.53594989999998 0
endloop
endfacet
facet normal 0.9873027599293971 0.15884980401560223 0
outer loop
vertex 178.8391795 -118.0040724 1.2
vertex 179.2465401 -120.53594989999999 1.2
vertex 179.24654009999998 -120.53594989999998 0
endloop
endfacet
facet normal 0.9873027599293971 0.15884980401560223 0
outer loop
vertex 178.8391795 -118.0040724 1.2
vertex 179.24654009999998 -120.53594989999998 0
vertex 178.8391795 -118.00407240000014 0
endloop
endfacet
facet normal 1 0 0
outer loop
vertex 178.8391795 -64.7540724 1.2
vertex 178.8391795 -81.0492350409981 1.2
vertex 178.8391795 -85.93589068181818 1.2
endloop
endfacet
facet normal 1 0 0
outer loop
vertex 178.8391795 -64.7540724 1.2
vertex 178.8391795 -85.93589068181818 1.2
vertex 178.8391795 -97.57225130909109 1.2
endloop
endfacet
facet normal 1 0 0
outer loop
vertex 178.8391795 -64.7540724 1.2
vertex 178.8391795 -97.57225130909109 1.2
vertex 178.8391795 -118.0040724 1.2
endloop
endfacet
facet normal 1 0 0
outer loop
vertex 178.8391795 -64.7540724 1.2
vertex 178.8391795 -118.0040724 1.2
vertex 178.8391795 -118.00407240000014 0
endloop
endfacet
facet normal 1 0 0
outer loop
vertex 178.8391795 -64.7540724 1.2
vertex 178.8391795 -118.00407240000014 0
vertex 178.8391795 -97.57225130909107 0
endloop
endfacet
facet normal 1 0 0
outer loop
vertex 178.8391795 -64.7540724 1.2
vertex 178.8391795 -97.57225130909107 0
vertex 178.8391795 -85.93589068181817 0
endloop
endfacet
facet normal 1 0 0
outer loop
vertex 178.8391795 -64.7540724 1.2
vertex 178.8391795 -85.93589068181817 0
vertex 178.8391795 -81.0492350409981 0
endloop
endfacet
facet normal 1 0 0
outer loop
vertex 178.8391795 -64.7540724 1.2
vertex 178.8391795 -81.0492350409981 0
vertex 178.8391795 -64.7540724 0
endloop
endfacet
facet normal 0 1 0
outer loop
vertex 136.3391795 -64.7540724 1.2
vertex 178.8391795 -64.7540724 1.2
vertex 178.8391795 -64.7540724 0
endloop
endfacet
facet normal 0 1 0
outer loop
vertex 136.3391795 -64.7540724 1.2
vertex 178.8391795 -64.7540724 0
vertex 136.3391795 -64.7540724 0
endloop
endfacet
facet normal 0 0 -1
outer loop
vertex 133.5891795 -62.7540724 1.2
vertex 135.26373693664172 -63.97193235392125 1.2
vertex 136.3391795 -64.7540724 1.2
endloop
endfacet
facet normal 0 0 -1
outer loop
vertex 133.5891795 -62.7540724 1.2
vertex 136.3391795 -64.7540724 1.2
vertex 136.3391795 -64.7540724 0
endloop
endfacet
facet normal 0.5881716976750544 0.8087360843031826 2.894289136769203e-14
outer loop
vertex 133.5891795 -62.7540724 1.2
vertex 136.3391795 -64.7540724 0
vertex 135.26373693664172 -63.97193235392123 0
endloop
endfacet
facet normal 0.5881716976750544 0.8087360843031826 2.894289136769203e-14
outer loop
vertex 133.5891795 -62.7540724 1.2
vertex 135.26373693664172 -63.97193235392123 0
vertex 133.58917950000003 -62.7540724 0
endloop
endfacet
facet normal 0 1 0
outer loop
vertex 117.58917950000001 -62.7540724 1.2
vertex 133.5891795 -62.7540724 1.2
vertex 133.58917950000003 -62.7540724 0
endloop
endfacet
facet normal 0 1 0
outer loop
vertex 117.58917950000001 -62.7540724 1.2
vertex 133.58917950000003 -62.7540724 0
vertex 117.5891795 -62.7540724 0
endloop
endfacet
facet normal 0.5881716976750544 0.8087360843031824 0
outer loop
vertex 114.83917950000001 -60.7540724 1.2
vertex 117.58917950000001 -62.7540724 1.2
vertex 117.5891795 -62.7540724 0
endloop
endfacet
facet normal 0.5881716976750544 0.8087360843031824 0
outer loop
vertex 114.83917950000001 -60.7540724 1.2
vertex 117.5891795 -62.7540724 0
vertex 114.83917950000001 -60.7540724 0
endloop
endfacet
facet normal 0 1 0
outer loop
vertex 98.83917949999999 -60.7540724 1.2
vertex 114.83917950000001 -60.7540724 1.2
vertex 114.83917950000001 -60.7540724 0
endloop
endfacet
facet normal 0 1 0
outer loop
vertex 98.83917949999999 -60.7540724 1.2
vertex 114.83917950000001 -60.7540724 0
vertex 98.83917949999997 -60.7540724 0
endloop
endfacet
facet normal -0.5881717169098662 0.8087360703142282 0
outer loop
vertex 96.08917963749997 -62.7540724 1.2
vertex 98.83917949999999 -60.7540724 1.2
vertex 98.83917949999997 -60.7540724 0
endloop
endfacet
facet normal -0.5881717169098662 0.8087360703142282 0
outer loop
vertex 96.08917963749997 -62.7540724 1.2
vertex 98.83917949999997 -60.7540724 0
vertex 96.08917963749997 -62.7540724 0
endloop
endfacet
facet normal 0 1 0
outer loop
vertex 80.08917963750001 -62.7540724 1.2
vertex 96.08917963749997 -62.7540724 1.2
vertex 96.08917963749997 -62.7540724 0
endloop
endfacet
facet normal 0 1 0
outer loop
vertex 80.08917963750001 -62.7540724 1.2
vertex 96.08917963749997 -62.7540724 0
vertex 80.08917963749997 -62.7540724 0
endloop
endfacet
facet normal -0.5881716976750513 0.8087360843031849 0
outer loop
vertex 77.33917950000001 -64.7540725 1.2
vertex 80.08917963750001 -62.7540724 1.2
vertex 80.08917963749997 -62.7540724 0
endloop
endfacet
facet normal -0.5881716976750513 0.8087360843031849 0
outer loop
vertex 77.33917950000001 -64.7540725 1.2
vertex 80.08917963749997 -62.7540724 0
vertex 77.33917949999999 -64.7540725 0
endloop
endfacet
facet normal 0 1 0
outer loop
vertex 61.3391795 -64.7540725 1.2
vertex 77.33917950000001 -64.7540725 1.2
vertex 77.33917949999999 -64.7540725 0
endloop
endfacet
facet normal 0 1 0
outer loop
vertex 61.3391795 -64.7540725 1.2
vertex 77.33917949999999 -64.7540725 0
vertex 61.339179499999986 -64.7540725 0
endloop
endfacet
facet normal -0.35376580362327487 0.9353340345495712 0
outer loop
vertex 56.09785910000001 -66.7364658 1.2
vertex 61.3391795 -64.7540725 1.2
vertex 61.339179499999986 -64.7540725 0
endloop
endfacet
facet normal -0.35376580362327487 0.9353340345495712 0
outer loop
vertex 56.09785910000001 -66.7364658 1.2
vertex 61.339179499999986 -64.7540725 0
vertex 56.09785910000001 -66.73646579999999 0
endloop
endfacet
endsolid csg.js
